NotoSerifBengali-ExtraCondensedExtraBold.ufo
<glyph name="exclam" format="2">
  <advance width="334.97619047619054"/>
  <unicode hex="0021"/>
  <outline>
    <contour>
      <point x="136.57142857142856" y="230.02380952380952" type="line"/>
      <point x="197.95238095238096" y="230.02380952380952" type="line"/>
      <point x="250.52380952380955" y="714.0" type="line"/>
      <point x="83.99999999999999" y="714.0" type="line"/>
    </contour>
    <contour>
      <point x="168.76190476190476" y="-8.0" type="curve" smooth="yes"/>
      <point x="208.5952380952381" y="-8.0"/>
      <point x="242.88095238095238" y="11.095238095238095"/>
      <point x="242.88095238095238" y="70.3809523809524" type="curve" smooth="yes"/>
      <point x="242.88095238095238" y="129.66666666666666"/>
      <point x="208.5952380952381" y="148.76190476190476"/>
      <point x="168.76190476190476" y="148.76190476190476" type="curve" smooth="yes"/>
      <point x="126.47619047619048" y="148.76190476190476"/>
      <point x="94.19047619047619" y="129.66666666666666"/>
      <point x="94.19047619047619" y="70.3809523809524" type="curve" smooth="yes"/>
      <point x="94.19047619047619" y="11.095238095238095"/>
      <point x="126.47619047619048" y="-8.0"/>
    </contour>
  </outline>
</glyph>
<glyph name="quotedbl" format="2">
  <advance width="458.85714285714283"/>
  <unicode hex="0022"/>
  <outline>
    <contour>
      <point x="294.6190476190476" y="439.40476190476187" type="line"/>
      <point x="356.64285714285717" y="439.40476190476187" type="line"/>
      <point x="399.5714285714285" y="714.0" type="line"/>
      <point x="251.23809523809524" y="714.0" type="line"/>
    </contour>
    <contour>
      <point x="102.66666666666667" y="439.40476190476187" type="line"/>
      <point x="164.2380952380952" y="439.40476190476187" type="line"/>
      <point x="207.61904761904765" y="714.0" type="line"/>
      <point x="59.28571428571429" y="714.0" type="line"/>
    </contour>
  </outline>
</glyph>
<glyph name="numbersign" format="2">
  <advance width="461.4761904761904"/>
  <unicode hex="0023"/>
  <outline>
    <contour>
      <point x="50.64285714285713" y="0.0" type="line"/>
      <point x="125.11904761904762" y="0.0" type="line"/>
      <point x="163.11904761904762" y="199.8095238095238" type="line"/>
      <point x="237.90476190476193" y="199.8095238095238" type="line"/>
      <point x="201.45238095238096" y="0.0" type="line"/>
      <point x="275.92857142857144" y="0.0" type="line"/>
      <point x="312.3809523809524" y="199.8095238095238" type="line"/>
      <point x="417.3809523809524" y="199.8095238095238" type="line"/>
      <point x="417.3809523809524" y="271.2857142857143" type="line"/>
      <point x="327.4761904761904" y="271.2857142857143" type="line"/>
      <point x="360.3809523809524" y="447.1666666666667" type="line"/>
      <point x="449.3809523809524" y="447.1666666666667" type="line"/>
      <point x="449.3809523809524" y="520.1904761904761" type="line"/>
      <point x="373.4761904761905" y="520.1904761904761" type="line"/>
      <point x="410.9285714285714" y="714.0" type="line"/>
      <point x="336.0" y="714.0" type="line"/>
      <point x="299.00000000000006" y="520.1904761904761" type="line"/>
      <point x="224.2142857142857" y="520.1904761904761" type="line"/>
      <point x="260.11904761904765" y="714.0" type="line"/>
      <point x="184.64285714285717" y="714.0" type="line"/>
      <point x="149.73809523809524" y="520.1904761904761" type="line"/>
      <point x="44.642857142857146" y="520.1904761904761" type="line"/>
      <point x="44.642857142857146" y="447.1666666666667" type="line"/>
      <point x="135.64285714285714" y="447.1666666666667" type="line"/>
      <point x="101.73809523809523" y="271.2857142857143" type="line"/>
      <point x="12.642857142857142" y="271.2857142857143" type="line"/>
      <point x="12.642857142857142" y="199.8095238095238" type="line"/>
      <point x="88.64285714285715" y="199.8095238095238" type="line"/>
    </contour>
    <contour>
      <point x="176.21428571428572" y="271.2857142857143" type="line"/>
      <point x="211.11904761904762" y="447.1666666666667" type="line"/>
      <point x="286.9047619047619" y="447.1666666666667" type="line"/>
      <point x="253.0" y="271.2857142857143" type="line"/>
    </contour>
  </outline>
</glyph>
<glyph name="percent" format="2">
  <advance width="751.5"/>
  <unicode hex="0025"/>
  <outline>
    <contour>
      <point x="200.83333333333331" y="0.0" type="line"/>
      <point x="269.66666666666663" y="0.0" type="line"/>
      <point x="548.6666666666667" y="714.0" type="line"/>
      <point x="479.83333333333326" y="714.0" type="line"/>
    </contour>
    <contour>
      <point x="178.28571428571428" y="280.0" type="curve" smooth="yes"/>
      <point x="283.6666666666667" y="280.0"/>
      <point x="333.85714285714283" y="369.0"/>
      <point x="333.85714285714283" y="503.0" type="curve"/>
      <point x="333.85714285714283" y="637.0"/>
      <point x="283.6666666666667" y="724.0"/>
      <point x="179.28571428571428" y="724.0" type="curve" smooth="yes"/>
      <point x="68.90476190476191" y="724.0"/>
      <point x="23.26190476190476" y="637.0"/>
      <point x="23.26190476190476" y="503.0" type="curve" smooth="yes"/>
      <point x="23.26190476190476" y="369.0"/>
      <point x="68.9047619047619" y="280.0"/>
    </contour>
    <contour>
      <point x="178.83333333333334" y="328.83333333333337" type="curve" smooth="yes"/>
      <point x="139.02380952380955" y="328.83333333333337"/>
      <point x="124.57142857142857" y="391.73809523809524"/>
      <point x="124.57142857142857" y="503.0" type="curve"/>
      <point x="124.57142857142857" y="612.2619047619047"/>
      <point x="139.02380952380955" y="674.1666666666667"/>
      <point x="179.28571428571428" y="674.1666666666667" type="curve" smooth="yes"/>
      <point x="219.0952380952381" y="674.1666666666667"/>
      <point x="231.54761904761907" y="612.2619047619047"/>
      <point x="231.54761904761907" y="503.0" type="curve" smooth="yes"/>
      <point x="231.54761904761907" y="391.7380952380952"/>
      <point x="219.0952380952381" y="328.83333333333337"/>
    </contour>
    <contour>
      <point x="573.2142857142858" y="-10.0" type="curve" smooth="yes"/>
      <point x="677.5952380952381" y="-10.0"/>
      <point x="728.2380952380953" y="79.0"/>
      <point x="728.2380952380953" y="213.0" type="curve" smooth="yes"/>
      <point x="728.2380952380953" y="347.0"/>
      <point x="677.5952380952381" y="434.0"/>
      <point x="574.2142857142858" y="434.0" type="curve" smooth="yes"/>
      <point x="463.8333333333332" y="434.0"/>
      <point x="418.19047619047626" y="347.0"/>
      <point x="418.19047619047626" y="213.0" type="curve" smooth="yes"/>
      <point x="418.19047619047626" y="79.0"/>
      <point x="463.8333333333332" y="-10.0"/>
    </contour>
    <contour>
      <point x="573.2142857142858" y="38.833333333333336" type="curve" smooth="yes"/>
      <point x="533.9523809523808" y="38.833333333333336"/>
      <point x="519.5" y="101.73809523809523"/>
      <point x="519.5" y="213.0" type="curve" smooth="yes"/>
      <point x="519.5" y="322.2619047619048"/>
      <point x="533.952380952381" y="384.16666666666663"/>
      <point x="573.7619047619048" y="384.16666666666663" type="curve" smooth="yes"/>
      <point x="613.4761904761905" y="384.16666666666663"/>
      <point x="626.4761904761905" y="322.2619047619047"/>
      <point x="626.4761904761905" y="213.0" type="curve" smooth="yes"/>
      <point x="626.4761904761905" y="101.73809523809526"/>
      <point x="613.4761904761905" y="38.833333333333336"/>
    </contour>
  </outline>
</glyph>
<glyph name="quotesingle" format="2">
  <advance width="266.904761904762"/>
  <unicode hex="0027"/>
  <outline>
    <contour>
      <point x="102.66666666666667" y="439.40476190476187" type="line"/>
      <point x="164.2380952380952" y="439.40476190476187" type="line"/>
      <point x="207.61904761904765" y="714.0" type="line"/>
      <point x="59.28571428571429" y="714.0" type="line"/>
    </contour>
  </outline>
</glyph>
<glyph name="parenleft" format="2">
  <advance width="351.1666666666667"/>
  <unicode hex="0028"/>
  <outline>
    <contour>
      <point x="325.61904761904765" y="-139.2857142857143" type="curve"/>
      <point x="325.61904761904765" y="-74.80952380952381" type="line"/>
      <point x="227.80952380952385" y="6.642857142857143"/>
      <point x="202.52380952380955" y="159.0"/>
      <point x="202.52380952380955" y="318.0" type="curve" smooth="yes"/>
      <point x="202.52380952380955" y="476.0"/>
      <point x="227.80952380952385" y="626.3571428571428"/>
      <point x="325.61904761904765" y="709.3571428571428" type="curve"/>
      <point x="325.61904761904765" y="771.8333333333333" type="line"/>
      <point x="125.47619047619048" y="683.3571428571429"/>
      <point x="46.54761904761905" y="532.3333333333333"/>
      <point x="46.54761904761905" y="318.0" type="curve" smooth="yes"/>
      <point x="46.54761904761905" y="102.21428571428572"/>
      <point x="125.47619047619048" y="-49.35714285714286"/>
    </contour>
  </outline>
</glyph>
<glyph name="parenright" format="2">
  <advance width="351.1666666666667"/>
  <unicode hex="0029"/>
  <outline>
    <contour>
      <point x="26.0" y="-139.2857142857143" type="line"/>
      <point x="226.14285714285717" y="-49.35714285714286"/>
      <point x="304.6190476190476" y="102.21428571428572"/>
      <point x="304.6190476190476" y="318.0" type="curve" smooth="yes"/>
      <point x="304.6190476190476" y="532.3333333333333"/>
      <point x="226.14285714285717" y="683.3571428571429"/>
      <point x="26.0" y="771.8333333333333" type="curve"/>
      <point x="26.0" y="709.3571428571428" type="line"/>
      <point x="122.8095238095238" y="626.3571428571428"/>
      <point x="149.09523809523805" y="476.0"/>
      <point x="149.09523809523805" y="318.0" type="curve" smooth="yes"/>
      <point x="149.09523809523805" y="159.0"/>
      <point x="122.8095238095238" y="6.642857142857143"/>
      <point x="26.0" y="-74.80952380952381" type="curve"/>
    </contour>
  </outline>
</glyph>
<glyph name="asterisk" format="2">
  <advance width="410.85714285714283"/>
  <unicode hex="002A"/>
  <outline>
    <contour>
      <point x="157.64285714285717" y="365.26190476190476" type="line"/>
      <point x="257.85714285714283" y="365.26190476190476" type="line"/>
      <point x="226.11904761904762" y="528.7142857142856" type="line"/>
      <point x="346.76190476190476" y="424.9761904761904" type="line"/>
      <point x="388.0476190476191" y="522.6428571428571" type="line"/>
      <point x="265.5952380952381" y="562.3571428571428" type="line"/>
      <point x="388.0476190476191" y="602.6190476190476" type="line"/>
      <point x="346.76190476190476" y="700.2857142857142" type="line"/>
      <point x="226.11904761904762" y="595.547619047619" type="line"/>
      <point x="258.85714285714283" y="760.0" type="line"/>
      <point x="157.64285714285717" y="760.0" type="line"/>
      <point x="187.83333333333337" y="594.0" type="line"/>
      <point x="67.19047619047619" y="702.2857142857143" type="line"/>
      <point x="26.90476190476191" y="603.6190476190476" type="line"/>
      <point x="149.35714285714286" y="562.3571428571428" type="line"/>
      <point x="26.90476190476191" y="521.6428571428571" type="line"/>
      <point x="67.19047619047619" y="422.9761904761904" type="line"/>
      <point x="186.83333333333331" y="530.2619047619047" type="line"/>
    </contour>
  </outline>
</glyph>
<glyph name="plus" format="2">
  <advance width="425.0"/>
  <unicode hex="002B"/>
  <outline>
    <contour>
      <point x="175.35714285714286" y="143.0" type="line"/>
      <point x="249.19047619047623" y="143.0" type="line"/>
      <point x="249.19047619047623" y="322.35714285714283" type="line"/>
      <point x="389.1904761904762" y="322.35714285714283" type="line"/>
      <point x="389.1904761904762" y="392.6428571428571" type="line"/>
      <point x="249.19047619047623" y="392.6428571428571" type="line"/>
      <point x="249.19047619047623" y="572.0" type="line"/>
      <point x="175.35714285714286" y="572.0" type="line"/>
      <point x="175.35714285714286" y="392.6428571428571" type="line"/>
      <point x="35.80952380952381" y="392.6428571428571" type="line"/>
      <point x="35.80952380952381" y="322.35714285714283" type="line"/>
      <point x="175.35714285714286" y="322.35714285714283" type="line"/>
    </contour>
  </outline>
</glyph>
<glyph name="comma" format="2">
  <advance width="260.33333333333337"/>
  <unicode hex="002C"/>
  <outline>
    <contour>
      <point x="44.2857142857143" y="-154.0" type="line"/>
      <point x="154.30952380952382" y="-120.45238095238095"/>
      <point x="195.50000000000003" y="-46.35714285714286"/>
      <point x="195.50000000000003" y="35.738095238095234" type="curve" smooth="yes"/>
      <point x="195.50000000000003" y="105.02380952380952"/>
      <point x="170.95238095238096" y="148.76190476190476"/>
      <point x="119.57142857142857" y="148.76190476190476" type="curve" smooth="yes"/>
      <point x="83.38095238095238" y="148.76190476190476"/>
      <point x="53.642857142857146" y="124.66666666666666"/>
      <point x="53.642857142857146" y="81.92857142857143" type="curve" smooth="yes"/>
      <point x="53.642857142857146" y="3.3571428571428577"/>
      <point x="112.83333333333333" y="11.0"/>
      <point x="112.83333333333333" y="-25.0" type="curve" smooth="yes"/>
      <point x="112.83333333333333" y="-61.0"/>
      <point x="88.28571428571429" y="-83.16666666666666"/>
      <point x="44.2857142857143" y="-103.16666666666667" type="curve"/>
    </contour>
  </outline>
</glyph>
<glyph name="period" format="2">
  <advance width="260.33333333333337"/>
  <unicode hex="002E"/>
  <outline>
    <contour>
      <point x="130.11904761904765" y="-8.0" type="curve" smooth="yes"/>
      <point x="169.95238095238093" y="-8.0"/>
      <point x="205.23809523809524" y="11.095238095238095"/>
      <point x="205.23809523809524" y="70.3809523809524" type="curve" smooth="yes"/>
      <point x="205.23809523809524" y="129.66666666666666"/>
      <point x="169.95238095238093" y="148.76190476190476"/>
      <point x="130.11904761904765" y="148.76190476190476" type="curve" smooth="yes"/>
      <point x="87.83333333333334" y="148.76190476190476"/>
      <point x="55.095238095238095" y="129.66666666666666"/>
      <point x="55.095238095238095" y="70.3809523809524" type="curve" smooth="yes"/>
      <point x="55.095238095238095" y="11.095238095238095"/>
      <point x="87.83333333333334" y="-8.0"/>
    </contour>
  </outline>
</glyph>
<glyph name="zero" format="2">
  <advance width="461.4761904761905"/>
  <unicode hex="0030"/>
  <outline>
    <contour>
      <point x="230.73809523809524" y="-10.0" type="curve" smooth="yes"/>
      <point x="381.76190476190476" y="-10.0"/>
      <point x="437.21428571428567" y="132.19047619047618"/>
      <point x="437.21428571428567" y="358.0" type="curve" smooth="yes"/>
      <point x="437.21428571428567" y="585.8095238095239"/>
      <point x="382.66666666666663" y="724.0"/>
      <point x="231.73809523809524" y="724.0" type="curve" smooth="yes"/>
      <point x="72.26190476190476" y="724.0"/>
      <point x="23.26190476190476" y="583.3571428571428"/>
      <point x="23.26190476190476" y="359.0" type="curve" smooth="yes"/>
      <point x="23.26190476190476" y="130.73809523809524"/>
      <point x="72.71428571428571" y="-10.0"/>
    </contour>
    <contour>
      <point x="230.73809523809524" y="53.833333333333336" type="curve" smooth="yes"/>
      <point x="177.7619047619048" y="53.833333333333336"/>
      <point x="171.14285714285714" y="165.73809523809524"/>
      <point x="171.14285714285714" y="358.0" type="curve" smooth="yes"/>
      <point x="171.14285714285714" y="550.2619047619047"/>
      <point x="177.7619047619048" y="660.1666666666666"/>
      <point x="231.73809523809524" y="660.1666666666666" type="curve" smooth="yes"/>
      <point x="282.7142857142858" y="660.1666666666666"/>
      <point x="289.7857142857143" y="550.2619047619047"/>
      <point x="289.7857142857143" y="358.0" type="curve" smooth="yes"/>
      <point x="289.7857142857143" y="165.73809523809524"/>
      <point x="282.7142857142858" y="53.833333333333336"/>
    </contour>
  </outline>
</glyph>
<glyph name="one" format="2">
  <advance width="461.4761904761905"/>
  <unicode hex="0031"/>
  <outline>
    <contour>
      <point x="66.71428571428572" y="0.0" type="line"/>
      <point x="425.2380952380952" y="0.0" type="line"/>
      <point x="425.2380952380952" y="53.285714285714285" type="line"/>
      <point x="375.8571428571429" y="53.285714285714285" type="line" smooth="yes"/>
      <point x="342.50000000000006" y="53.285714285714285"/>
      <point x="323.69047619047615" y="74.57142857142857"/>
      <point x="323.69047619047615" y="117.64285714285714" type="curve" smooth="yes"/>
      <point x="323.69047619047615" y="718.0" type="line"/>
      <point x="212.80952380952382" y="718.0" type="line"/>
      <point x="155.26190476190476" y="669.547619047619" type="line" smooth="yes"/>
      <point x="99.16666666666666" y="622.0952380952381"/>
      <point x="57.976190476190474" y="605.0952380952381"/>
      <point x="24.976190476190478" y="595.0952380952381" type="curve"/>
      <point x="24.976190476190478" y="549.2619047619048"/>
      <point x="47.619047619047606" y="521.5238095238095"/>
      <point x="75.71428571428572" y="521.5238095238095" type="curve" smooth="yes"/>
      <point x="109.26190476190474" y="521.5238095238095"/>
      <point x="142.8095238095238" y="554.7857142857143"/>
      <point x="182.8095238095238" y="612.3333333333334" type="curve"/>
      <point x="182.8095238095238" y="117.64285714285714" type="line" smooth="yes"/>
      <point x="182.8095238095238" y="65.92857142857142"/>
      <point x="158.9047619047619" y="53.285714285714285"/>
      <point x="130.1904761904762" y="53.285714285714285" type="curve" smooth="yes"/>
      <point x="66.71428571428572" y="53.285714285714285" type="line"/>
    </contour>
  </outline>
</glyph>
<glyph name="two" format="2">
  <advance width="461.4761904761905"/>
  <unicode hex="0032"/>
  <outline>
    <contour>
      <point x="24.714285714285715" y="0.0" type="line"/>
      <point x="431.40476190476187" y="0.0" type="line"/>
      <point x="435.4047619047619" y="210.5" type="line"/>
      <point x="379.4761904761905" y="210.5" type="line"/>
      <point x="371.38095238095235" y="178.66666666666669" type="line" smooth="yes"/>
      <point x="360.3809523809524" y="131.66666666666666"/>
      <point x="329.452380952381" y="110.30952380952382"/>
      <point x="303.3809523809523" y="110.30952380952382" type="curve" smooth="yes"/>
      <point x="123.47619047619048" y="110.30952380952382" type="line"/>
      <point x="240.0" y="234.88095238095238" type="line" smooth="yes"/>
      <point x="343.47619047619054" y="341.9761904761904"/>
      <point x="415.85714285714283" y="435.7142857142857"/>
      <point x="415.85714285714283" y="550.9047619047619" type="curve" smooth="yes"/>
      <point x="415.85714285714283" y="654.0"/>
      <point x="347.76190476190476" y="724.0"/>
      <point x="214.64285714285714" y="724.0" type="curve" smooth="yes"/>
      <point x="87.16666666666667" y="724.0"/>
      <point x="26.52380952380953" y="653.7142857142857"/>
      <point x="26.52380952380953" y="584.2619047619048" type="curve" smooth="yes"/>
      <point x="26.52380952380953" y="514.2380952380952"/>
      <point x="83.0" y="496.14285714285717"/>
      <point x="143.57142857142856" y="496.14285714285717" type="curve"/>
      <point x="143.57142857142856" y="610.0952380952381"/>
      <point x="166.76190476190476" y="662.7142857142858"/>
      <point x="214.64285714285714" y="662.7142857142858" type="curve" smooth="yes"/>
      <point x="246.6190476190476" y="662.7142857142858"/>
      <point x="271.0714285714286" y="629.6428571428572"/>
      <point x="271.0714285714286" y="548.0952380952382" type="curve" smooth="yes"/>
      <point x="271.0714285714286" y="449.3571428571429"/>
      <point x="240.9761904761905" y="370.2619047619047"/>
      <point x="138.5952380952381" y="241.52380952380952" type="curve" smooth="yes"/>
      <point x="24.714285714285715" y="96.21428571428572" type="line"/>
    </contour>
  </outline>
</glyph>
<glyph name="three" format="2">
  <advance width="461.4761904761905"/>
  <unicode hex="0033"/>
  <outline>
    <contour>
      <point x="202.9047619047619" y="-10.0" type="curve" smooth="yes"/>
      <point x="326.11904761904765" y="-10.0"/>
      <point x="434.8571428571429" y="43.0"/>
      <point x="434.8571428571429" y="202.64285714285714" type="curve" smooth="yes"/>
      <point x="434.8571428571429" y="314.8095238095238"/>
      <point x="361.85714285714283" y="363.9047619047619"/>
      <point x="291.7619047619048" y="379.54761904761904" type="curve"/>
      <point x="360.76190476190476" y="408.7380952380952"/>
      <point x="414.30952380952385" y="468.0"/>
      <point x="414.30952380952385" y="558.0" type="curve" smooth="yes"/>
      <point x="414.30952380952385" y="664.0"/>
      <point x="339.1190476190476" y="724.0"/>
      <point x="215.99999999999997" y="724.0" type="curve" smooth="yes"/>
      <point x="89.52380952380952" y="724.0"/>
      <point x="29.428571428571423" y="658.3571428571428"/>
      <point x="29.428571428571423" y="589.452380952381" type="curve" smooth="yes"/>
      <point x="29.428571428571423" y="530.6190476190476"/>
      <point x="73.71428571428572" y="509.42857142857156"/>
      <point x="139.3809523809524" y="509.42857142857156" type="curve"/>
      <point x="139.3809523809524" y="588.4285714285714"/>
      <point x="158.2857142857143" y="662.7142857142858"/>
      <point x="209.00000000000003" y="662.7142857142858" type="curve" smooth="yes"/>
      <point x="245.52380952380952" y="662.7142857142858"/>
      <point x="268.9761904761905" y="618.2619047619047"/>
      <point x="268.9761904761905" y="546.9047619047619" type="curve" smooth="yes"/>
      <point x="268.9761904761905" y="458.64285714285717"/>
      <point x="247.9047619047619" y="400.6428571428571"/>
      <point x="177.35714285714286" y="400.6428571428571" type="curve"/>
      <point x="115.33333333333333" y="400.6428571428571" type="line"/>
      <point x="115.33333333333333" y="339.80952380952385" type="line"/>
      <point x="172.80952380952382" y="339.80952380952385" type="line" smooth="yes"/>
      <point x="250.52380952380952" y="339.80952380952385"/>
      <point x="288.9761904761905" y="283.8095238095238"/>
      <point x="288.9761904761905" y="203.64285714285714" type="curve" smooth="yes"/>
      <point x="288.9761904761905" y="92.19047619047619"/>
      <point x="246.61904761904762" y="59.92857142857143"/>
      <point x="198.35714285714286" y="59.92857142857143" type="curve" smooth="yes"/>
      <point x="141.54761904761904" y="59.92857142857143"/>
      <point x="98.9047619047619" y="109.83333333333333"/>
      <point x="98.9047619047619" y="194.76190476190476" type="curve"/>
      <point x="56.261904761904766" y="194.76190476190476"/>
      <point x="17.523809523809526" y="168.66666666666666"/>
      <point x="17.523809523809526" y="117.38095238095238" type="curve" smooth="yes"/>
      <point x="17.523809523809526" y="45.095238095238095"/>
      <point x="68.07142857142857" y="-10.0"/>
    </contour>
  </outline>
</glyph>
<glyph name="four" format="2">
  <advance width="461.4761904761905"/>
  <unicode hex="0034"/>
  <outline>
    <contour>
      <point x="135.2380952380952" y="0.0" type="line"/>
      <point x="444.30952380952374" y="0.0" type="line"/>
      <point x="444.30952380952374" y="53.285714285714285" type="line"/>
      <point x="433.7619047619047" y="53.285714285714285" type="line" smooth="yes"/>
      <point x="396.76190476190476" y="53.285714285714285"/>
      <point x="365.76190476190476" y="62.285714285714285"/>
      <point x="365.76190476190476" y="125.28571428571429" type="curve" smooth="yes"/>
      <point x="365.76190476190476" y="186.26190476190476" type="line"/>
      <point x="443.38095238095235" y="186.26190476190476" type="line"/>
      <point x="443.38095238095235" y="252.0" type="line"/>
      <point x="365.76190476190476" y="252.0" type="line"/>
      <point x="365.76190476190476" y="714.0" type="line"/>
      <point x="228.97619047619042" y="714.0" type="line"/>
      <point x="9.904761904761903" y="246.73809523809524" type="line"/>
      <point x="9.904761904761903" y="186.26190476190476" type="line"/>
      <point x="225.88095238095238" y="186.26190476190476" type="line"/>
      <point x="225.88095238095238" y="125.28571428571429" type="line" smooth="yes"/>
      <point x="225.88095238095238" y="62.285714285714285"/>
      <point x="195.78571428571428" y="53.285714285714285"/>
      <point x="158.33333333333331" y="53.285714285714285" type="curve" smooth="yes"/>
      <point x="135.2380952380952" y="53.285714285714285" type="line"/>
    </contour>
    <contour>
      <point x="76.64285714285714" y="252.0" type="line"/>
      <point x="170.6190476190476" y="456.7857142857143" type="line" smooth="yes"/>
      <point x="191.61904761904765" y="503.88095238095235"/>
      <point x="215.78571428571428" y="564.7619047619048"/>
      <point x="231.88095238095238" y="611.1428571428571" type="curve"/>
      <point x="226.88095238095238" y="549.1428571428571"/>
      <point x="225.88095238095238" y="494.35714285714283"/>
      <point x="225.88095238095238" y="436.35714285714283" type="curve" smooth="yes"/>
      <point x="225.88095238095238" y="252.0" type="line"/>
    </contour>
  </outline>
</glyph>
<glyph name="five" format="2">
  <advance width="461.4761904761905"/>
  <unicode hex="0035"/>
  <outline>
    <contour>
      <point x="202.73809523809524" y="-10.0" type="curve" smooth="yes"/>
      <point x="290.07142857142856" y="-10.0"/>
      <point x="425.4047619047619" y="46.04761904761905"/>
      <point x="425.4047619047619" y="219.54761904761907" type="curve" smooth="yes"/>
      <point x="425.4047619047619" y="362.64285714285717"/>
      <point x="340.76190476190476" y="434.6428571428571"/>
      <point x="202.0952380952381" y="434.6428571428571" type="curve" smooth="yes"/>
      <point x="177.2857142857143" y="434.6428571428571"/>
      <point x="133.0952380952381" y="427.19047619047615"/>
      <point x="114.64285714285714" y="418.1904761904762" type="curve"/>
      <point x="130.0952380952381" y="604.6904761904763" type="line"/>
      <point x="303.57142857142856" y="604.6904761904763" type="line" smooth="yes"/>
      <point x="326.8333333333333" y="604.6904761904763"/>
      <point x="331.4761904761904" y="591.1428571428572"/>
      <point x="338.38095238095235" y="562.8809523809524" type="curve" smooth="yes"/>
      <point x="347.4761904761905" y="532.1428571428572" type="line"/>
      <point x="400.85714285714283" y="532.1428571428572" type="line"/>
      <point x="396.8571428571429" y="714.0" type="line"/>
      <point x="81.26190476190476" y="714.0" type="line"/>
      <point x="51.166666666666664" y="369.1904761904762" type="line"/>
      <point x="86.0952380952381" y="350.0" type="line"/>
      <point x="113.73809523809524" y="358.90476190476187"/>
      <point x="140.54761904761904" y="369.80952380952385"/>
      <point x="174.26190476190476" y="369.80952380952385" type="curve" smooth="yes"/>
      <point x="242.26190476190473" y="369.80952380952385"/>
      <point x="280.07142857142856" y="319.90476190476187"/>
      <point x="280.07142857142856" y="219.54761904761907" type="curve" smooth="yes"/>
      <point x="280.07142857142856" y="94.73809523809526"/>
      <point x="234.61904761904762" y="57.38095238095239"/>
      <point x="186.0" y="57.38095238095239" type="curve" smooth="yes"/>
      <point x="118.9047619047619" y="57.38095238095239"/>
      <point x="99.64285714285715" y="124.76190476190476"/>
      <point x="99.64285714285715" y="183.21428571428572" type="curve"/>
      <point x="58.45238095238096" y="183.21428571428572"/>
      <point x="27.166666666666668" y="159.2142857142857"/>
      <point x="27.166666666666668" y="113.47619047619047" type="curve" smooth="yes"/>
      <point x="27.166666666666668" y="51.0"/>
      <point x="77.54761904761905" y="-10.0"/>
    </contour>
  </outline>
</glyph>
<glyph name="six" format="2">
  <advance width="461.4761904761905"/>
  <unicode hex="0036"/>
  <outline>
    <contour>
      <point x="241.73809523809524" y="-10.0" type="curve" smooth="yes"/>
      <point x="373.7619047619047" y="-10.0"/>
      <point x="438.8571428571429" y="88.0"/>
      <point x="438.8571428571429" y="230.54761904761907" type="curve" smooth="yes"/>
      <point x="438.8571428571429" y="360.64285714285717"/>
      <point x="373.7619047619047" y="437.64285714285717"/>
      <point x="274.1190476190476" y="437.64285714285717" type="curve" smooth="yes"/>
      <point x="216.57142857142856" y="437.64285714285717"/>
      <point x="187.76190476190476" y="417.2857142857143"/>
      <point x="166.30952380952382" y="399.4761904761905" type="curve"/>
      <point x="173.40476190476193" y="568.3571428571429"/>
      <point x="201.66666666666666" y="664.7142857142858"/>
      <point x="257.73809523809524" y="664.7142857142858" type="curve" smooth="yes"/>
      <point x="297.45238095238096" y="664.7142857142858"/>
      <point x="317.9047619047619" y="607.4285714285714"/>
      <point x="317.9047619047619" y="535.8809523809524" type="curve"/>
      <point x="394.2142857142857" y="535.8809523809524"/>
      <point x="421.8571428571429" y="568.7142857142856"/>
      <point x="421.8571428571429" y="613.3571428571429" type="curve" smooth="yes"/>
      <point x="421.8571428571429" y="671.452380952381"/>
      <point x="375.85714285714283" y="724.0"/>
      <point x="262.2857142857143" y="724.0" type="curve" smooth="yes"/>
      <point x="107.45238095238096" y="724.0"/>
      <point x="30.619047619047617" y="583.547619047619"/>
      <point x="30.619047619047617" y="333.35714285714283" type="curve" smooth="yes"/>
      <point x="30.619047619047617" y="97.0"/>
      <point x="114.26190476190473" y="-10.0"/>
    </contour>
    <contour>
      <point x="241.19047619047618" y="54.38095238095239" type="curve" smooth="yes"/>
      <point x="187.38095238095238" y="54.38095238095239"/>
      <point x="168.30952380952382" y="146.83333333333334"/>
      <point x="166.85714285714286" y="337.7380952380953" type="curve"/>
      <point x="181.76190476190476" y="353.0"/>
      <point x="204.02380952380955" y="374.2619047619048"/>
      <point x="237.64285714285714" y="374.2619047619048" type="curve" smooth="yes"/>
      <point x="276.71428571428567" y="374.2619047619048"/>
      <point x="302.61904761904765" y="329.35714285714283"/>
      <point x="302.61904761904765" y="220.54761904761907" type="curve" smooth="yes"/>
      <point x="302.61904761904765" y="105.73809523809524"/>
      <point x="279.26190476190476" y="54.38095238095239"/>
    </contour>
  </outline>
</glyph>
<glyph name="seven" format="2">
  <advance width="461.4761904761905"/>
  <unicode hex="0037"/>
  <outline>
    <contour>
      <point x="121.16666666666664" y="0.0" type="line"/>
      <point x="208.28571428571428" y="0.0" type="line"/>
      <point x="429.11904761904754" y="664.9761904761904" type="line"/>
      <point x="429.11904761904754" y="714.0" type="line"/>
      <point x="40.357142857142854" y="714.0" type="line"/>
      <point x="35.357142857142854" y="503.6904761904762" type="line"/>
      <point x="92.73809523809523" y="503.6904761904762" type="line"/>
      <point x="99.28571428571429" y="552.2380952380952" type="line" smooth="yes"/>
      <point x="102.83333333333334" y="587.6904761904763"/>
      <point x="116.3809523809524" y="604.6904761904763"/>
      <point x="146.38095238095238" y="604.6904761904763" type="curve" smooth="yes"/>
      <point x="347.1904761904762" y="604.6904761904763" type="line"/>
    </contour>
  </outline>
</glyph>
<glyph name="eight" format="2">
  <advance width="461.4761904761905"/>
  <unicode hex="0038"/>
  <outline>
    <contour>
      <point x="226.1904761904762" y="-10.0" type="curve" smooth="yes"/>
      <point x="364.2142857142857" y="-10.0"/>
      <point x="442.8571428571429" y="67.19047619047619"/>
      <point x="442.8571428571429" y="183.6428571428571" type="curve" smooth="yes"/>
      <point x="442.8571428571429" y="284.0"/>
      <point x="405.1428571428571" y="335.0"/>
      <point x="312.7619047619047" y="387.73809523809524" type="curve"/>
      <point x="380.85714285714283" y="423.73809523809524"/>
      <point x="421.85714285714283" y="470.6428571428571"/>
      <point x="421.85714285714283" y="559.547619047619" type="curve" smooth="yes"/>
      <point x="421.85714285714283" y="651.9047619047619"/>
      <point x="359.7619047619047" y="724.0"/>
      <point x="236.2857142857143" y="724.0" type="curve" smooth="yes"/>
      <point x="93.71428571428571" y="724.0"/>
      <point x="37.61904761904762" y="642.9047619047619"/>
      <point x="37.61904761904762" y="543.3571428571429" type="curve" smooth="yes"/>
      <point x="37.61904761904762" y="453.3571428571429"/>
      <point x="79.61904761904763" y="403.9047619047619"/>
      <point x="144.26190476190476" y="362.35714285714283" type="curve"/>
      <point x="73.6190476190476" y="329.99999999999994"/>
      <point x="18.619047619047617" y="277.5476190476191"/>
      <point x="18.619047619047617" y="173.99999999999997" type="curve" smooth="yes"/>
      <point x="18.619047619047617" y="74.09523809523809"/>
      <point x="80.61904761904762" y="-10.0"/>
    </contour>
    <contour>
      <point x="229.73809523809524" y="49.73809523809524" type="curve" smooth="yes"/>
      <point x="181.66666666666666" y="49.73809523809524"/>
      <point x="144.66666666666669" y="93.0952380952381"/>
      <point x="144.66666666666669" y="181.64285714285714" type="curve" smooth="yes"/>
      <point x="144.66666666666669" y="248.45238095238093"/>
      <point x="163.47619047619048" y="295.7142857142857"/>
      <point x="195.09523809523807" y="327.61904761904765" type="curve"/>
      <point x="264.9761904761905" y="280.9047619047619"/>
      <point x="303.9761904761905" y="232.35714285714286"/>
      <point x="303.9761904761905" y="165.99999999999997" type="curve" smooth="yes"/>
      <point x="303.9761904761905" y="91.64285714285714"/>
      <point x="273.8095238095238" y="49.73809523809524"/>
    </contour>
    <contour>
      <point x="254.83333333333337" y="418.9285714285714" type="curve"/>
      <point x="204.76190476190476" y="450.19047619047615"/>
      <point x="172.4047619047619" y="489.1904761904762"/>
      <point x="172.4047619047619" y="561.0" type="curve" smooth="yes"/>
      <point x="172.4047619047619" y="624.9047619047618"/>
      <point x="193.66666666666666" y="664.2619047619048"/>
      <point x="233.28571428571428" y="664.2619047619048" type="curve" smooth="yes"/>
      <point x="275.80952380952385" y="664.2619047619048"/>
      <point x="299.26190476190476" y="616.4523809523808"/>
      <point x="299.26190476190476" y="556.0" type="curve" smooth="yes"/>
      <point x="299.26190476190476" y="486.0"/>
      <point x="281.2619047619048" y="445.1904761904762"/>
    </contour>
  </outline>
</glyph>
<glyph name="nine" format="2">
  <advance width="461.4761904761905"/>
  <unicode hex="0039"/>
  <outline>
    <contour>
      <point x="187.19047619047618" y="-10.0" type="curve"/>
      <point x="361.1190476190476" y="-10.0"/>
      <point x="431.3095238095238" y="157.64285714285714"/>
      <point x="431.3095238095238" y="388.0" type="curve" smooth="yes"/>
      <point x="431.3095238095238" y="631.6428571428572"/>
      <point x="340.1190476190476" y="724.0"/>
      <point x="216.73809523809524" y="724.0" type="curve" smooth="yes"/>
      <point x="94.9047619047619" y="724.0"/>
      <point x="22.619047619047617" y="627.0952380952381"/>
      <point x="22.619047619047617" y="485.0" type="curve" smooth="yes"/>
      <point x="22.619047619047617" y="351.00000000000006"/>
      <point x="89.71428571428572" y="277.90476190476187"/>
      <point x="183.26190476190476" y="277.90476190476187" type="curve" smooth="yes"/>
      <point x="239.26190476190473" y="277.90476190476187"/>
      <point x="270.97619047619054" y="302.6190476190476"/>
      <point x="296.1666666666667" y="337.26190476190476" type="curve"/>
      <point x="290.61904761904765" y="150.7380952380952"/>
      <point x="257.26190476190476" y="53.738095238095234"/>
      <point x="194.1904761904762" y="53.738095238095234" type="curve" smooth="yes"/>
      <point x="135.64285714285714" y="53.738095238095234"/>
      <point x="114.73809523809524" y="104.11904761904762"/>
      <point x="98.19047619047619" y="164.5952380952381" type="curve"/>
      <point x="58.7142857142857" y="157.04761904761907"/>
      <point x="44.619047619047606" y="126.76190476190476"/>
      <point x="44.619047619047606" y="97.66666666666669" type="curve" smooth="yes"/>
      <point x="44.619047619047606" y="40.73809523809524"/>
      <point x="84.80952380952381" y="-10.0"/>
    </contour>
    <contour>
      <point x="224.73809523809527" y="346.38095238095235" type="curve" smooth="yes"/>
      <point x="180.66666666666669" y="347.3809523809524"/>
      <point x="158.30952380952382" y="399.38095238095235"/>
      <point x="158.30952380952382" y="488.0" type="curve" smooth="yes"/>
      <point x="158.30952380952382" y="600.3571428571429"/>
      <point x="182.21428571428572" y="658.6190476190476"/>
      <point x="224.83333333333331" y="658.6190476190476" type="curve" smooth="yes"/>
      <point x="269.90476190476187" y="658.6190476190476"/>
      <point x="295.1666666666667" y="590.452380952381"/>
      <point x="296.6190476190477" y="400.0" type="curve"/>
      <point x="278.07142857142856" y="369.45238095238096"/>
      <point x="256.1666666666667" y="347.3809523809524"/>
    </contour>
  </outline>
</glyph>
<glyph name="colon" format="2">
  <advance width="259.33333333333337"/>
  <unicode hex="003A"/>
  <outline>
    <contour>
      <point x="129.66666666666666" y="385.42857142857144" type="curve" smooth="yes"/>
      <point x="168.95238095238093" y="385.42857142857144"/>
      <point x="204.23809523809524" y="404.52380952380946"/>
      <point x="204.23809523809524" y="463.35714285714283" type="curve" smooth="yes"/>
      <point x="204.23809523809524" y="522.6428571428571"/>
      <point x="168.95238095238093" y="541.7380952380954"/>
      <point x="129.66666666666666" y="541.7380952380954" type="curve" smooth="yes"/>
      <point x="87.83333333333333" y="541.7380952380954"/>
      <point x="55.095238095238095" y="522.6428571428571"/>
      <point x="55.095238095238095" y="463.35714285714283" type="curve" smooth="yes"/>
      <point x="55.095238095238095" y="404.52380952380946"/>
      <point x="87.83333333333333" y="385.42857142857144"/>
    </contour>
    <contour>
      <point x="129.66666666666666" y="-8.0" type="curve" smooth="yes"/>
      <point x="168.95238095238093" y="-8.0"/>
      <point x="204.23809523809524" y="11.095238095238095"/>
      <point x="204.23809523809524" y="70.3809523809524" type="curve" smooth="yes"/>
      <point x="204.23809523809524" y="129.66666666666666"/>
      <point x="168.95238095238093" y="148.76190476190476"/>
      <point x="129.66666666666666" y="148.76190476190476" type="curve" smooth="yes"/>
      <point x="87.83333333333333" y="148.76190476190476"/>
      <point x="55.095238095238095" y="129.66666666666666"/>
      <point x="55.095238095238095" y="70.3809523809524" type="curve" smooth="yes"/>
      <point x="55.095238095238095" y="11.095238095238095"/>
      <point x="87.83333333333333" y="-8.0"/>
    </contour>
  </outline>
</glyph>
<glyph name="semicolon" format="2">
  <advance width="254.49999999999997"/>
  <unicode hex="003B"/>
  <outline>
    <contour>
      <point x="44.2857142857143" y="-154.0" type="line"/>
      <point x="155.3095238095238" y="-120.45238095238095"/>
      <point x="196.50000000000003" y="-46.35714285714286"/>
      <point x="196.50000000000003" y="35.738095238095234" type="curve" smooth="yes"/>
      <point x="196.50000000000003" y="105.02380952380952"/>
      <point x="171.95238095238093" y="148.76190476190476"/>
      <point x="119.57142857142856" y="148.76190476190476" type="curve" smooth="yes"/>
      <point x="84.38095238095238" y="148.76190476190476"/>
      <point x="54.642857142857146" y="124.66666666666666"/>
      <point x="54.642857142857146" y="81.92857142857143" type="curve" smooth="yes"/>
      <point x="54.642857142857146" y="3.3571428571428577"/>
      <point x="113.83333333333333" y="11.0"/>
      <point x="113.83333333333333" y="-25.0" type="curve"/>
      <point x="113.83333333333333" y="-63.0"/>
      <point x="89.73809523809524" y="-83.16666666666666"/>
      <point x="44.2857142857143" y="-103.16666666666667" type="curve"/>
    </contour>
    <contour>
      <point x="125.57142857142857" y="385.42857142857144" type="curve" smooth="yes"/>
      <point x="165.85714285714283" y="385.42857142857144"/>
      <point x="200.14285714285714" y="404.52380952380946"/>
      <point x="200.14285714285714" y="463.35714285714283" type="curve" smooth="yes"/>
      <point x="200.14285714285714" y="522.6428571428571"/>
      <point x="165.85714285714283" y="541.7380952380954"/>
      <point x="125.57142857142857" y="541.7380952380954" type="curve" smooth="yes"/>
      <point x="83.73809523809524" y="541.7380952380954"/>
      <point x="51.0" y="522.6428571428571"/>
      <point x="51.0" y="463.35714285714283" type="curve" smooth="yes"/>
      <point x="51.0" y="404.52380952380946"/>
      <point x="83.73809523809524" y="385.42857142857144"/>
    </contour>
  </outline>
</glyph>
<glyph name="less" format="2">
  <advance width="425.0"/>
  <unicode hex="003C"/>
  <outline>
    <contour>
      <point x="389.1904761904762" y="104.35714285714286" type="line"/>
      <point x="389.1904761904762" y="184.19047619047618" type="line"/>
      <point x="128.73809523809524" y="357.0" type="line"/>
      <point x="389.1904761904762" y="531.8095238095237" type="line"/>
      <point x="389.1904761904762" y="611.6428571428572" type="line"/>
      <point x="35.80952380952381" y="378.09523809523813" type="line"/>
      <point x="35.80952380952381" y="336.90476190476187" type="line"/>
    </contour>
  </outline>
</glyph>
<glyph name="equal" format="2">
  <advance width="425.0"/>
  <unicode hex="003D"/>
  <outline>
    <contour>
      <point x="33.26190476190476" y="410.7142857142857" type="line"/>
      <point x="391.7380952380953" y="410.7142857142857" type="line"/>
      <point x="391.7380952380953" y="481.0" type="line"/>
      <point x="33.26190476190476" y="481.0" type="line"/>
    </contour>
    <contour>
      <point x="33.26190476190476" y="233.0" type="line"/>
      <point x="391.7380952380953" y="233.0" type="line"/>
      <point x="391.7380952380953" y="303.2857142857143" type="line"/>
      <point x="33.26190476190476" y="303.2857142857143" type="line"/>
    </contour>
  </outline>
</glyph>
<glyph name="question" format="2">
  <advance width="466.88095238095235"/>
  <unicode hex="003F"/>
  <outline>
    <contour>
      <point x="182.47619047619048" y="226.92857142857142" type="line"/>
      <point x="241.8571428571429" y="226.92857142857142" type="line"/>
      <point x="262.14285714285717" y="323.0" type="line"/>
      <point x="375.42857142857144" y="377.6428571428571"/>
      <point x="427.5238095238096" y="434.45238095238096"/>
      <point x="427.5238095238096" y="541.3571428571429" type="curve" smooth="yes"/>
      <point x="427.5238095238096" y="656.9047619047619"/>
      <point x="345.14285714285717" y="724.0"/>
      <point x="215.57142857142858" y="724.0" type="curve" smooth="yes"/>
      <point x="87.45238095238095" y="724.0"/>
      <point x="29.357142857142858" y="665.8095238095239"/>
      <point x="29.357142857142858" y="604.8095238095237" type="curve" smooth="yes"/>
      <point x="29.357142857142858" y="547.9761904761906"/>
      <point x="75.28571428571429" y="530.4285714285713"/>
      <point x="156.14285714285714" y="530.4285714285713" type="curve"/>
      <point x="156.14285714285714" y="614.7142857142858"/>
      <point x="176.14285714285714" y="663.7142857142857"/>
      <point x="216.11904761904762" y="663.7142857142857" type="curve" smooth="yes"/>
      <point x="252.6428571428571" y="663.7142857142857"/>
      <point x="273.45238095238096" y="615.9047619047619"/>
      <point x="273.45238095238096" y="551.095238095238" type="curve" smooth="yes"/>
      <point x="273.45238095238096" y="469.19047619047615"/>
      <point x="255.73809523809527" y="395.0"/>
      <point x="162.19047619047618" y="348.547619047619" type="curve"/>
    </contour>
    <contour>
      <point x="210.11904761904762" y="-8.0" type="curve" smooth="yes"/>
      <point x="250.4047619047619" y="-8.0"/>
      <point x="285.14285714285717" y="11.095238095238097"/>
      <point x="285.14285714285717" y="70.3809523809524" type="curve" smooth="yes"/>
      <point x="285.14285714285717" y="129.66666666666666"/>
      <point x="250.4047619047619" y="148.7619047619048"/>
      <point x="210.11904761904762" y="148.7619047619048" type="curve" smooth="yes"/>
      <point x="168.2857142857143" y="148.7619047619048"/>
      <point x="136.0" y="129.66666666666666"/>
      <point x="136.0" y="70.3809523809524" type="curve" smooth="yes"/>
      <point x="136.0" y="11.095238095238097"/>
      <point x="168.2857142857143" y="-8.0"/>
    </contour>
  </outline>
</glyph>
<glyph name="bracketleft" format="2">
  <advance width="363.1666666666667"/>
  <unicode hex="005B"/>
  <outline>
    <contour>
      <point x="82.09523809523809" y="-128.0" type="line"/>
      <point x="332.61904761904765" y="-128.0" type="line"/>
      <point x="332.61904761904765" y="-74.71428571428571" type="line"/>
      <point x="297.61904761904765" y="-74.71428571428571" type="line" smooth="yes"/>
      <point x="260.5238095238095" y="-74.71428571428571"/>
      <point x="229.52380952380952" y="-65.71428571428571"/>
      <point x="229.52380952380952" y="-2.7142857142857135" type="curve" smooth="yes"/>
      <point x="229.52380952380952" y="634.7142857142858" type="line" smooth="yes"/>
      <point x="229.52380952380952" y="697.7142857142858"/>
      <point x="260.5238095238095" y="706.7142857142858"/>
      <point x="297.61904761904765" y="706.7142857142858" type="curve" smooth="yes"/>
      <point x="332.61904761904765" y="706.7142857142858" type="line"/>
      <point x="332.61904761904765" y="760.0" type="line"/>
      <point x="82.09523809523809" y="760.0" type="line"/>
    </contour>
  </outline>
</glyph>
<glyph name="bracketright" format="2">
  <advance width="363.16666666666663"/>
  <unicode hex="005D"/>
  <outline>
    <contour>
      <point x="31.000000000000004" y="-128.0" type="line"/>
      <point x="281.07142857142856" y="-128.0" type="line"/>
      <point x="281.07142857142856" y="760.0" type="line"/>
      <point x="31.000000000000004" y="760.0" type="line"/>
      <point x="31.000000000000004" y="706.7142857142858" type="line"/>
      <point x="66.0952380952381" y="706.7142857142858" type="line" smooth="yes"/>
      <point x="103.64285714285714" y="706.7142857142858"/>
      <point x="133.64285714285717" y="697.7142857142858"/>
      <point x="133.64285714285717" y="634.7142857142858" type="curve" smooth="yes"/>
      <point x="133.64285714285717" y="-2.7142857142857135" type="line" smooth="yes"/>
      <point x="133.64285714285717" y="-65.71428571428571"/>
      <point x="103.64285714285714" y="-74.71428571428571"/>
      <point x="66.0952380952381" y="-74.71428571428571" type="curve" smooth="yes"/>
      <point x="31.000000000000004" y="-74.71428571428571" type="line"/>
    </contour>
  </outline>
</glyph>
<glyph name="asciicircum" format="2">
  <advance width="424.0"/>
  <unicode hex="005E"/>
  <outline>
    <contour>
      <point x="17.714285714285715" y="262.3571428571429" type="line"/>
      <point x="86.0" y="262.3571428571429" type="line"/>
      <point x="211.0" y="604.5238095238095" type="line"/>
      <point x="337.0" y="262.3571428571429" type="line"/>
      <point x="406.2857142857143" y="262.3571428571429" type="line"/>
      <point x="230.6428571428571" y="714.0" type="line"/>
      <point x="192.3571428571429" y="714.0" type="line"/>
    </contour>
  </outline>
</glyph>
<glyph name="underscore" format="2">
  <advance width="378.3809523809524"/>
  <unicode hex="005F"/>
  <outline>
    <contour>
      <point x="-5.0" y="-142.0" type="line"/>
      <point x="382.3809523809524" y="-142.0" type="line"/>
      <point x="382.3809523809524" y="-83.0" type="line"/>
      <point x="-5.0" y="-83.0" type="line"/>
    </contour>
  </outline>
</glyph>
<glyph name="braceleft" format="2">
  <advance width="369.2142857142857"/>
  <unicode hex="007B"/>
  <outline>
    <contour>
      <point x="263.38095238095235" y="-124.90476190476191" type="curve" smooth="yes"/>
      <point x="353.1428571428571" y="-124.90476190476191" type="line"/>
      <point x="353.1428571428571" y="-71.61904761904762" type="line"/>
      <point x="317.4047619047619" y="-71.61904761904762" type="line" smooth="yes"/>
      <point x="271.4047619047619" y="-71.61904761904762"/>
      <point x="262.5952380952381" y="-36.714285714285715"/>
      <point x="262.5952380952381" y="25.642857142857146" type="curve" smooth="yes"/>
      <point x="262.5952380952381" y="196.64285714285714" type="line" smooth="yes"/>
      <point x="262.5952380952381" y="257.45238095238096"/>
      <point x="235.14285714285717" y="296.26190476190476"/>
      <point x="173.04761904761904" y="315.45238095238096" type="curve"/>
      <point x="173.04761904761904" y="323.6428571428571" type="line"/>
      <point x="237.6904761904762" y="341.2857142857143"/>
      <point x="262.5952380952381" y="379.6428571428571"/>
      <point x="262.5952380952381" y="440.0" type="curve" smooth="yes"/>
      <point x="262.5952380952381" y="610.452380952381" type="line" smooth="yes"/>
      <point x="262.5952380952381" y="673.2619047619048"/>
      <point x="271.4047619047619" y="707.2619047619048"/>
      <point x="317.4047619047619" y="707.2619047619048" type="curve" smooth="yes"/>
      <point x="353.1428571428571" y="707.2619047619048" type="line"/>
      <point x="353.1428571428571" y="760.0" type="line"/>
      <point x="263.38095238095235" y="760.0" type="line" smooth="yes"/>
      <point x="163.35714285714286" y="760.0"/>
      <point x="111.6190476190476" y="707.0"/>
      <point x="111.6190476190476" y="613.9047619047619" type="curve" smooth="yes"/>
      <point x="111.6190476190476" y="442.0" type="line" smooth="yes"/>
      <point x="111.6190476190476" y="367.6428571428571"/>
      <point x="70.07142857142857" y="351.2857142857143"/>
      <point x="16.523809523809526" y="349.2857142857143" type="curve"/>
      <point x="16.523809523809526" y="288.26190476190476" type="line"/>
      <point x="70.07142857142857" y="285.26190476190476"/>
      <point x="111.6190476190476" y="270.45238095238096"/>
      <point x="111.6190476190476" y="193.64285714285714" type="curve" smooth="yes"/>
      <point x="111.6190476190476" y="23.19047619047619" type="line" smooth="yes"/>
      <point x="111.6190476190476" y="-68.35714285714286"/>
      <point x="163.35714285714286" y="-124.90476190476191"/>
    </contour>
  </outline>
</glyph>
<glyph name="bar" format="2">
  <advance width="461.4761904761904"/>
  <unicode hex="007C"/>
  <outline>
    <contour>
      <point x="198.0952380952381" y="-240.0" type="line"/>
      <point x="262.9285714285714" y="-240.0" type="line"/>
      <point x="262.9285714285714" y="760.0" type="line"/>
      <point x="198.0952380952381" y="760.0" type="line"/>
    </contour>
  </outline>
</glyph>
<glyph name="braceright" format="2">
  <advance width="369.2142857142858"/>
  <unicode hex="007D"/>
  <outline>
    <contour>
      <point x="16.523809523809526" y="-124.90476190476191" type="line"/>
      <point x="106.2857142857143" y="-124.90476190476191" type="line" smooth="yes"/>
      <point x="206.85714285714283" y="-124.90476190476191"/>
      <point x="257.5952380952381" y="-68.35714285714286"/>
      <point x="257.5952380952381" y="23.19047619047619" type="curve" smooth="yes"/>
      <point x="257.5952380952381" y="193.64285714285714" type="line" smooth="yes"/>
      <point x="257.5952380952381" y="270.45238095238096"/>
      <point x="300.14285714285717" y="285.26190476190476"/>
      <point x="353.1428571428571" y="288.26190476190476" type="curve"/>
      <point x="353.1428571428571" y="349.2857142857143" type="line"/>
      <point x="300.14285714285717" y="351.2857142857143"/>
      <point x="257.5952380952381" y="367.6428571428571"/>
      <point x="257.5952380952381" y="442.0" type="curve" smooth="yes"/>
      <point x="257.5952380952381" y="613.9047619047619" type="line" smooth="yes"/>
      <point x="257.5952380952381" y="707.0"/>
      <point x="206.85714285714283" y="760.0"/>
      <point x="106.2857142857143" y="760.0" type="curve" smooth="yes"/>
      <point x="16.523809523809526" y="760.0" type="line"/>
      <point x="16.523809523809526" y="707.2619047619048" type="line"/>
      <point x="52.80952380952381" y="707.2619047619048" type="line" smooth="yes"/>
      <point x="98.26190476190479" y="707.2619047619048"/>
      <point x="106.61904761904762" y="673.2619047619048"/>
      <point x="106.61904761904762" y="610.452380952381" type="curve" smooth="yes"/>
      <point x="106.61904761904762" y="440.0" type="line" smooth="yes"/>
      <point x="106.61904761904762" y="379.6428571428571"/>
      <point x="132.52380952380955" y="341.2857142857143"/>
      <point x="197.61904761904762" y="323.6428571428571" type="curve"/>
      <point x="197.61904761904762" y="315.45238095238096" type="line"/>
      <point x="133.61904761904762" y="296.26190476190476"/>
      <point x="106.61904761904762" y="257.45238095238096"/>
      <point x="106.61904761904762" y="196.64285714285714" type="curve" smooth="yes"/>
      <point x="106.61904761904762" y="25.642857142857146" type="line" smooth="yes"/>
      <point x="106.61904761904762" y="-36.714285714285715"/>
      <point x="98.26190476190479" y="-71.61904761904762"/>
      <point x="52.809523809523824" y="-71.61904761904762" type="curve" smooth="yes"/>
      <point x="16.523809523809526" y="-71.61904761904762" type="line"/>
    </contour>
  </outline>
</glyph>
<glyph name="asciitilde" format="2">
  <advance width="425.0"/>
  <unicode hex="007E"/>
  <outline>
    <contour>
      <point x="13.61904761904762" y="261.8095238095238" type="curve"/>
      <point x="83.0" y="261.8095238095238" type="line"/>
      <point x="84.35714285714285" y="345.3571428571428"/>
      <point x="99.90476190476191" y="378.26190476190476"/>
      <point x="129.90476190476193" y="378.26190476190476" type="curve" smooth="yes"/>
      <point x="148.35714285714283" y="378.26190476190476"/>
      <point x="160.26190476190476" y="365.90476190476187"/>
      <point x="194.35714285714283" y="326.80952380952385" type="curve" smooth="yes"/>
      <point x="242.9047619047619" y="271.35714285714283"/>
      <point x="267.99999999999994" y="261.8095238095238"/>
      <point x="299.0" y="261.8095238095238" type="curve" smooth="yes"/>
      <point x="385.3809523809524" y="261.8095238095238"/>
      <point x="411.4761904761905" y="349.71428571428567"/>
      <point x="412.3809523809524" y="451.1904761904762" type="curve"/>
      <point x="342.99999999999994" y="451.1904761904762" type="line"/>
      <point x="342.0952380952381" y="366.09523809523813"/>
      <point x="326.99999999999994" y="334.7380952380953"/>
      <point x="297.54761904761904" y="334.7380952380953" type="curve" smooth="yes"/>
      <point x="277.0952380952381" y="334.7380952380953"/>
      <point x="267.1904761904762" y="350.6428571428572"/>
      <point x="236.6428571428571" y="383.6428571428571" type="curve" smooth="yes"/>
      <point x="189.9047619047619" y="433.3809523809524"/>
      <point x="163.35714285714286" y="451.1904761904762"/>
      <point x="126.35714285714285" y="451.1904761904762" type="curve" smooth="yes"/>
      <point x="41.61904761904763" y="451.1904761904762"/>
      <point x="14.976190476190474" y="363.73809523809524"/>
    </contour>
  </outline>
</glyph>
<glyph name="multiply" format="2">
  <advance width="425.0"/>
  <unicode hex="00D7"/>
  <outline>
    <contour>
      <point x="90.09523809523809" y="160.73809523809524" type="line"/>
      <point x="211.9047619047619" y="305.8095238095238" type="line"/>
      <point x="331.7142857142858" y="163.2857142857143" type="line"/>
      <point x="383.45238095238096" y="208.0238095238095" type="line"/>
      <point x="256.6428571428571" y="359.54761904761904" type="line"/>
      <point x="383.45238095238096" y="510.5238095238095" type="line"/>
      <point x="330.7142857142858" y="554.2619047619048" type="line"/>
      <point x="211.9047619047619" y="412.73809523809524" type="line"/>
      <point x="91.09523809523809" y="556.8095238095239" type="line"/>
      <point x="38.35714285714286" y="513.0714285714286" type="line"/>
      <point x="167.16666666666666" y="359.54761904761904" type="line"/>
      <point x="38.35714285714286" y="205.47619047619048" type="line"/>
    </contour>
  </outline>
</glyph>
<glyph name="divide" format="2">
  <advance width="425.0"/>
  <unicode hex="00F7"/>
  <outline>
    <contour>
      <point x="35.80952380952381" y="322.35714285714283" type="line"/>
      <point x="389.1904761904762" y="322.35714285714283" type="line"/>
      <point x="389.1904761904762" y="392.6428571428571" type="line"/>
      <point x="35.80952380952381" y="392.6428571428571" type="line"/>
    </contour>
    <contour>
      <point x="213.0" y="107.35714285714286" type="curve" smooth="yes"/>
      <point x="240.09523809523813" y="107.35714285714286"/>
      <point x="262.6428571428571" y="123.35714285714288"/>
      <point x="262.6428571428571" y="168.0" type="curve" smooth="yes"/>
      <point x="262.6428571428571" y="213.64285714285714"/>
      <point x="240.09523809523813" y="228.64285714285714"/>
      <point x="213.0" y="228.64285714285714" type="curve" smooth="yes"/>
      <point x="183.35714285714286" y="228.64285714285714"/>
      <point x="162.35714285714286" y="213.64285714285714"/>
      <point x="162.35714285714286" y="168.0" type="curve" smooth="yes"/>
      <point x="162.35714285714286" y="123.35714285714288"/>
      <point x="183.35714285714286" y="107.35714285714286"/>
    </contour>
    <contour>
      <point x="213.0" y="486.3571428571429" type="curve" smooth="yes"/>
      <point x="240.09523809523813" y="486.3571428571429"/>
      <point x="262.6428571428571" y="502.3571428571428"/>
      <point x="262.6428571428571" y="547.0" type="curve" smooth="yes"/>
      <point x="262.6428571428571" y="592.6428571428572"/>
      <point x="240.09523809523813" y="607.6428571428572"/>
      <point x="213.0" y="607.6428571428572" type="curve" smooth="yes"/>
      <point x="183.35714285714286" y="607.6428571428572"/>
      <point x="162.35714285714286" y="592.6428571428572"/>
      <point x="162.35714285714286" y="547.0" type="curve" smooth="yes"/>
      <point x="162.35714285714286" y="502.3571428571428"/>
      <point x="183.35714285714286" y="486.3571428571429"/>
    </contour>
  </outline>
</glyph>
<glyph name="udatta-deva" format="2">
  <unicode hex="0951"/>
  <anchor x="-299.0" y="-277.73809523809524" name="_vedic"/>
  <outline>
    <contour>
      <point x="-348.5714285714286" y="706.0" type="line"/>
      <point x="-249.42857142857142" y="706.0" type="line"/>
      <point x="-249.42857142857142" y="919.2857142857143" type="line"/>
      <point x="-348.5714285714286" y="919.2857142857143" type="line"/>
    </contour>
  </outline>
</glyph>
<glyph name="anudatta-deva" format="2">
  <unicode hex="0952"/>
  <anchor x="-299.0" y="436.42857142857144" name="_vedic"/>
  <outline>
    <contour>
      <point x="-493.5714285714286" y="-160.02380952380952" type="line"/>
      <point x="-103.42857142857142" y="-160.02380952380952" type="line"/>
      <point x="-103.42857142857142" y="-80.35714285714286" type="line"/>
      <point x="-493.5714285714286" y="-80.35714285714286" type="line"/>
    </contour>
  </outline>
</glyph>
<glyph name="danda-deva" format="2">
  <advance width="355.0238095238095"/>
  <unicode hex="0964"/>
  <outline>
    <contour>
      <point x="301.7619047619047" y="-39.38095238095238" type="line"/>
      <point x="311.40476190476187" y="-36.38095238095238" type="line"/>
      <point x="311.40476190476187" y="589.6428571428572" type="line"/>
      <point x="210.7142857142857" y="626.6428571428572" type="line"/>
      <point x="207.7142857142857" y="626.6428571428572" type="line"/>
      <point x="207.7142857142857" y="0.35714285714285676" type="line"/>
    </contour>
  </outline>
</glyph>
<glyph name="dbldanda-deva" format="2">
  <advance width="516.3333333333333"/>
  <unicode hex="0965"/>
  <outline>
    <contour>
      <point x="463.5238095238095" y="-39.38095238095238" type="line"/>
      <point x="472.71428571428567" y="-36.38095238095238" type="line"/>
      <point x="472.71428571428567" y="589.6428571428572" type="line"/>
      <point x="372.4761904761905" y="626.6428571428572" type="line"/>
      <point x="369.4761904761905" y="626.6428571428572" type="line"/>
      <point x="369.4761904761905" y="0.35714285714285676" type="line"/>
    </contour>
    <contour>
      <point x="301.7619047619047" y="-39.38095238095238" type="line"/>
      <point x="311.40476190476187" y="-36.38095238095238" type="line"/>
      <point x="311.40476190476187" y="589.6428571428572" type="line"/>
      <point x="210.7142857142857" y="626.6428571428572" type="line"/>
      <point x="207.7142857142857" y="626.6428571428572" type="line"/>
      <point x="207.7142857142857" y="0.35714285714285676" type="line"/>
    </contour>
  </outline>
</glyph>
<glyph name="anji-beng" format="2">
  <advance width="511.57142857142856"/>
  <unicode hex="0980"/>
  <anchor x="268.69047619047615" y="587.9285714285714" name="top"/>
  <outline>
    <contour>
      <point x="423.64285714285717" y="-46.142857142857146" type="curve" smooth="yes"/>
      <point x="477.5714285714286" y="-46.142857142857146"/>
      <point x="509.85714285714283" y="-11.952380952380958"/>
      <point x="509.85714285714283" y="40.42857142857142" type="curve" smooth="yes"/>
      <point x="509.85714285714283" y="91.35714285714286"/>
      <point x="476.11904761904754" y="124.0"/>
      <point x="435.38095238095235" y="124.0" type="curve" smooth="yes"/>
      <point x="389.45238095238096" y="124.0"/>
      <point x="373.3571428571429" y="85.52380952380952"/>
      <point x="372.90476190476187" y="55.97619047619047" type="curve"/>
      <point x="417.0238095238095" y="49.33333333333333" type="line"/>
      <point x="417.0238095238095" y="466.5238095238095" type="line" smooth="yes"/>
      <point x="417.0238095238095" y="564.6428571428571"/>
      <point x="345.7142857142857" y="634.2857142857143"/>
      <point x="242.04761904761904" y="634.2857142857143" type="curve" smooth="yes"/>
      <point x="131.47619047619045" y="634.2857142857143"/>
      <point x="33.8095238095238" y="541.0952380952381"/>
      <point x="33.8095238095238" y="401.4285714285715" type="curve" smooth="yes"/>
      <point x="33.8095238095238" y="267.5"/>
      <point x="108.64285714285712" y="191.92857142857144"/>
      <point x="198.76190476190476" y="191.92857142857144" type="curve" smooth="yes"/>
      <point x="258.14285714285717" y="191.92857142857144"/>
      <point x="294.88095238095246" y="233.21428571428572"/>
      <point x="294.88095238095246" y="293.5952380952381" type="curve" smooth="yes"/>
      <point x="294.88095238095246" y="349.3333333333333"/>
      <point x="265.3333333333333" y="385.6190476190476"/>
      <point x="219.95238095238096" y="385.6190476190476" type="curve" smooth="yes"/>
      <point x="176.21428571428572" y="385.6190476190476"/>
      <point x="147.57142857142858" y="352.8809523809524"/>
      <point x="147.57142857142858" y="304.6904761904762" type="curve" smooth="yes"/>
      <point x="147.57142857142858" y="283.95238095238096"/>
      <point x="150.57142857142856" y="265.8571428571429"/>
      <point x="154.57142857142858" y="255.76190476190473" type="curve"/>
      <point x="200.95238095238093" y="279.4047619047619" type="line"/>
      <point x="189.85714285714286" y="276.40476190476187"/>
      <point x="177.76190476190476" y="275.40476190476187"/>
      <point x="167.2142857142857" y="275.40476190476187" type="curve" smooth="yes"/>
      <point x="141.76190476190476" y="275.40476190476187"/>
      <point x="126.76190476190477" y="304.3095238095238"/>
      <point x="126.76190476190477" y="361.04761904761904" type="curve" smooth="yes"/>
      <point x="126.76190476190477" y="459.5238095238095"/>
      <point x="218.33333333333334" y="529.2380952380952"/>
      <point x="271.33333333333337" y="529.2380952380952" type="curve" smooth="yes"/>
      <point x="304.3333333333333" y="529.2380952380952"/>
      <point x="317.33333333333337" y="510.33333333333337"/>
      <point x="317.33333333333337" y="472.8809523809524" type="curve" smooth="yes"/>
      <point x="317.33333333333337" y="86.26190476190476" type="line" smooth="yes"/>
      <point x="317.33333333333337" y="10.238095238095234"/>
      <point x="356.6190476190476" y="-46.142857142857146"/>
    </contour>
  </outline>
</glyph>
<glyph name="candrabindu-beng" format="2">
  <unicode hex="0981"/>
  <anchor x="0.0" y="622.0" name="_top"/>
  <outline>
    <contour>
      <point x="-12.45238095238095" y="702.4285714285714" type="curve" smooth="yes"/>
      <point x="73.38095238095238" y="702.4285714285714"/>
      <point x="123.85714285714286" y="762.8809523809524"/>
      <point x="136.40476190476193" y="892.7380952380953" type="curve"/>
      <point x="95.11904761904762" y="907.3809523809524" type="line"/>
      <point x="80.02380952380953" y="837.3571428571429"/>
      <point x="40.45238095238095" y="799.0952380952381"/>
      <point x="-13.452380952380949" y="799.0952380952381" type="curve" smooth="yes"/>
      <point x="-66.0" y="799.0952380952381"/>
      <point x="-109.4761904761905" y="836.8095238095239"/>
      <point x="-123.47619047619048" y="907.3809523809524" type="curve"/>
      <point x="-164.76190476190476" y="892.7380952380953" type="line"/>
      <point x="-155.30952380952382" y="766.9761904761906"/>
      <point x="-99.38095238095238" y="702.4285714285714"/>
    </contour>
    <contour>
      <point x="-15.0" y="835.3571428571428" type="curve" smooth="yes"/>
      <point x="20.28571428571429" y="835.3571428571428"/>
      <point x="43.476190476190474" y="859.0"/>
      <point x="43.476190476190474" y="897.1904761904761" type="curve" smooth="yes"/>
      <point x="43.476190476190474" y="934.3809523809524"/>
      <point x="20.28571428571429" y="958.4761904761906"/>
      <point x="-15.0" y="958.4761904761906" type="curve" smooth="yes"/>
      <point x="-51.73809523809524" y="958.4761904761906"/>
      <point x="-74.92857142857143" y="934.3809523809524"/>
      <point x="-74.92857142857143" y="897.1904761904761" type="curve" smooth="yes"/>
      <point x="-74.92857142857143" y="859.0"/>
      <point x="-51.738095238095234" y="835.3571428571428"/>
    </contour>
  </outline>
</glyph>
<glyph name="anusvara-beng" format="2">
  <advance width="333.4285714285714"/>
  <unicode hex="0982"/>
  <anchor x="-213.42857142857142" y="0.0" name="vedic"/>
  <outline>
    <contour>
      <point x="166.85714285714286" y="323.5" type="curve" smooth="yes"/>
      <point x="243.23809523809527" y="323.5"/>
      <point x="299.07142857142856" y="386.14285714285717"/>
      <point x="299.07142857142856" y="474.9761904761905" type="curve" smooth="yes"/>
      <point x="299.07142857142856" y="556.2619047619048"/>
      <point x="248.14285714285708" y="621.452380952381"/>
      <point x="173.30952380952382" y="621.452380952381" type="curve" smooth="yes"/>
      <point x="96.38095238095238" y="621.452380952381"/>
      <point x="40.0" y="556.7142857142858"/>
      <point x="40.0" y="469.42857142857144" type="curve" smooth="yes"/>
      <point x="40.0" y="390.2380952380952"/>
      <point x="92.38095238095238" y="323.5"/>
    </contour>
    <contour>
      <point x="141.47619047619045" y="404.26190476190476" type="curve" smooth="yes"/>
      <point x="129.11904761904762" y="404.26190476190476"/>
      <point x="119.21428571428571" y="414.6190476190476"/>
      <point x="119.21428571428571" y="435.8809523809524" type="curve" smooth="yes"/>
      <point x="119.21428571428571" y="480.7857142857143"/>
      <point x="171.6904761904762" y="539.7857142857143"/>
      <point x="200.50000000000003" y="539.7857142857143" type="curve" smooth="yes"/>
      <point x="214.95238095238096" y="539.7857142857143"/>
      <point x="221.85714285714283" y="527.9761904761905"/>
      <point x="221.85714285714283" y="511.52380952380946" type="curve" smooth="yes"/>
      <point x="221.85714285714283" y="470.26190476190476"/>
      <point x="173.47619047619045" y="404.26190476190476"/>
    </contour>
    <contour>
      <point x="275.5" y="-78.5" type="curve"/>
      <point x="331.1666666666667" y="-58.85714285714286" type="line"/>
      <point x="270.23809523809524" y="97.80952380952381"/>
      <point x="193.4047619047619" y="228.26190476190476"/>
      <point x="104.47619047619048" y="290.8809523809524" type="curve"/>
      <point x="40.0" y="159.19047619047618" type="line"/>
      <point x="123.28571428571426" y="114.66666666666666"/>
      <point x="180.92857142857144" y="73.78571428571429"/>
    </contour>
  </outline>
</glyph>
<glyph name="visarga-beng" format="2">
  <advance width="339.0714285714286"/>
  <unicode hex="0983"/>
  <anchor x="-213.42857142857142" y="0.0" name="vedic"/>
  <outline>
    <contour>
      <point x="166.85714285714286" y="323.5" type="curve" smooth="yes"/>
      <point x="243.2380952380952" y="323.5"/>
      <point x="299.07142857142856" y="386.14285714285717"/>
      <point x="299.07142857142856" y="474.9761904761905" type="curve" smooth="yes"/>
      <point x="299.07142857142856" y="556.2619047619048"/>
      <point x="248.14285714285717" y="621.452380952381"/>
      <point x="173.3095238095238" y="621.452380952381" type="curve" smooth="yes"/>
      <point x="96.3809523809524" y="621.452380952381"/>
      <point x="40.0" y="556.7142857142858"/>
      <point x="40.0" y="469.42857142857144" type="curve" smooth="yes"/>
      <point x="40.0" y="390.2380952380953"/>
      <point x="92.38095238095238" y="323.5"/>
    </contour>
    <contour>
      <point x="141.47619047619048" y="404.2619047619048" type="curve" smooth="yes"/>
      <point x="129.11904761904762" y="404.2619047619048"/>
      <point x="119.21428571428572" y="414.6190476190477"/>
      <point x="119.21428571428572" y="435.8809523809524" type="curve" smooth="yes"/>
      <point x="119.21428571428572" y="480.7857142857143"/>
      <point x="171.69047619047618" y="539.7857142857143"/>
      <point x="200.5" y="539.7857142857143" type="curve" smooth="yes"/>
      <point x="214.95238095238096" y="539.7857142857143"/>
      <point x="221.85714285714286" y="527.9761904761905"/>
      <point x="221.85714285714286" y="511.52380952380946" type="curve" smooth="yes"/>
      <point x="221.85714285714286" y="470.2619047619047"/>
      <point x="173.47619047619048" y="404.2619047619048"/>
    </contour>
    <contour>
      <point x="166.85714285714286" y="-27.404761904761905" type="curve" smooth="yes"/>
      <point x="243.2380952380953" y="-27.404761904761905"/>
      <point x="299.07142857142856" y="34.785714285714285"/>
      <point x="299.07142857142856" y="124.07142857142858" type="curve" smooth="yes"/>
      <point x="299.07142857142856" y="205.35714285714283"/>
      <point x="248.14285714285714" y="270.0952380952381"/>
      <point x="173.3095238095238" y="270.0952380952381" type="curve" smooth="yes"/>
      <point x="96.38095238095238" y="270.0952380952381"/>
      <point x="40.0" y="205.35714285714286"/>
      <point x="40.0" y="118.07142857142857" type="curve" smooth="yes"/>
      <point x="40.0" y="38.88095238095238"/>
      <point x="92.38095238095238" y="-27.404761904761905"/>
    </contour>
    <contour>
      <point x="141.47619047619048" y="53.35714285714285" type="curve" smooth="yes"/>
      <point x="129.11904761904762" y="53.35714285714285"/>
      <point x="119.21428571428571" y="63.26190476190476"/>
      <point x="119.21428571428571" y="84.97619047619048" type="curve" smooth="yes"/>
      <point x="119.21428571428571" y="129.88095238095238"/>
      <point x="171.69047619047618" y="188.88095238095238"/>
      <point x="200.5" y="188.88095238095238" type="curve" smooth="yes"/>
      <point x="214.95238095238096" y="188.88095238095238"/>
      <point x="221.8571428571429" y="177.07142857142856"/>
      <point x="221.8571428571429" y="160.61904761904762" type="curve" smooth="yes"/>
      <point x="221.8571428571429" y="119.35714285714285"/>
      <point x="173.47619047619048" y="53.35714285714285"/>
    </contour>
  </outline>
</glyph>
<glyph name="aa-beng" format="2">
  <advance width="919.5714285714286"/>
  <unicode hex="0986"/>
  <anchor x="648.9761904761905" y="0.0" name="bottom"/>
  <anchor x="647.9761904761905" y="94.11904761904762" name="bottom.rakaar"/>
  <anchor x="647.9761904761905" y="11.0" name="bottom.rvocalic"/>
  <anchor x="630.8809523809524" y="17.285714285714285" name="bottom.virama"/>
  <anchor x="872.5" y="542.3333333333334" name="top"/>
  <anchor x="872.5" y="526.6190476190476" name="topright"/>
  <anchor x="459.2857142857143" y="0.0" name="vedic"/>
  <outline>
    <contour>
      <point x="639.4285714285714" y="-28.380952380952383" type="line"/>
      <point x="649.5238095238095" y="-25.833333333333336" type="line"/>
      <point x="649.5238095238095" y="542.3333333333334" type="line"/>
      <point x="726.9047619047619" y="542.3333333333334" type="line"/>
      <point x="684.0714285714286" y="622.0" type="line"/>
      <point x="-33.19047619047619" y="622.0" type="line"/>
      <point x="8.642857142857142" y="542.3333333333334" type="line"/>
      <point x="549.8333333333333" y="542.3333333333334" type="line"/>
      <point x="549.8333333333333" y="102.11904761904762" type="line"/>
      <point x="569.4761904761905" y="101.66666666666666" type="line"/>
      <point x="547.4761904761905" y="163.83333333333331"/>
      <point x="511.5714285714286" y="210.54761904761904"/>
      <point x="470.21428571428567" y="242.35714285714286" type="curve"/>
      <point x="430.83333333333337" y="147.4047619047619" type="line"/>
      <point x="485.83333333333326" y="117.14285714285715"/>
      <point x="534.0238095238095" y="73.97619047619048"/>
      <point x="571.6666666666666" y="12.904761904761903" type="curve"/>
    </contour>
    <contour>
      <point x="314.26190476190476" y="34.92857142857142" type="curve" smooth="yes"/>
      <point x="407.6190476190476" y="34.92857142857142"/>
      <point x="504.7619047619049" y="101.71428571428572"/>
      <point x="504.7619047619049" y="266.5952380952381" type="curve" smooth="yes"/>
      <point x="504.7619047619049" y="395.52380952380946"/>
      <point x="434.8333333333333" y="496.1666666666667"/>
      <point x="302.5238095238095" y="496.1666666666667" type="curve" smooth="yes"/>
      <point x="219.40476190476193" y="496.1666666666667"/>
      <point x="171.30952380952382" y="445.23809523809524"/>
      <point x="171.30952380952382" y="369.04761904761904" type="curve" smooth="yes"/>
      <point x="171.30952380952382" y="302.40476190476187"/>
      <point x="213.5" y="251.47619047619045"/>
      <point x="280.5238095238095" y="251.47619047619045" type="curve" smooth="yes"/>
      <point x="344.904761904762" y="251.47619047619045"/>
      <point x="378.64285714285717" y="300.11904761904765"/>
      <point x="378.64285714285717" y="365.30952380952385" type="curve" smooth="yes"/>
      <point x="378.64285714285717" y="456.88095238095235"/>
      <point x="313.9761904761904" y="525.5238095238095"/>
      <point x="274.23809523809524" y="557.5238095238095" type="curve"/>
      <point x="95.8809523809524" y="556.5238095238095" type="line"/>
      <point x="240.7619047619048" y="525.5238095238095"/>
      <point x="293.3333333333333" y="445.76190476190476"/>
      <point x="303.42857142857144" y="357.57142857142856" type="curve"/>
      <point x="312.3333333333333" y="365.0238095238095"/>
      <point x="333.6190476190477" y="375.76190476190476"/>
      <point x="356.80952380952385" y="375.76190476190476" type="curve" smooth="yes"/>
      <point x="393.0" y="375.76190476190476"/>
      <point x="431.09523809523813" y="350.8571428571429"/>
      <point x="431.09523809523813" y="285.23809523809524" type="curve" smooth="yes"/>
      <point x="431.09523809523813" y="209.97619047619045"/>
      <point x="377.26190476190476" y="177.16666666666669"/>
      <point x="311.1666666666667" y="177.16666666666669" type="curve" smooth="yes"/>
      <point x="209.61904761904765" y="177.16666666666669"/>
      <point x="123.14285714285715" y="248.52380952380952"/>
      <point x="68.02380952380953" y="475.8809523809524" type="curve"/>
      <point x="6.452380952380953" y="462.2380952380952" type="line"/>
      <point x="65.11904761904762" y="172.5"/>
      <point x="154.76190476190476" y="34.92857142857142"/>
    </contour>
    <contour>
      <point x="859.8571428571429" y="-39.38095238095238" type="line"/>
      <point x="869.5" y="-36.833333333333336" type="line"/>
      <point x="869.5" y="542.3333333333334" type="line"/>
      <point x="952.7619047619047" y="542.3333333333334" type="line"/>
      <point x="909.9285714285713" y="622.0" type="line"/>
      <point x="858.3095238095239" y="622.0" type="line"/>
      <point x="849.2142857142858" y="681.9285714285714" type="line"/>
      <point x="781.0" y="719.0238095238096" type="line"/>
      <point x="773.3571428571428" y="715.4761904761905" type="line"/>
      <point x="773.3571428571428" y="646.1904761904761" type="line" smooth="yes"/>
      <point x="773.3571428571428" y="606.2619047619047"/>
      <point x="776.9047619047619" y="566.3571428571428"/>
      <point x="780.3571428571429" y="538.6428571428572" type="curve"/>
      <point x="787.452380952381" y="539.6428571428572" type="line"/>
      <point x="773.3571428571429" y="601.642857142857"/>
      <point x="754.2857142857143" y="622.0"/>
      <point x="714.9999999999999" y="622.0" type="curve" smooth="yes"/>
      <point x="664.9761904761905" y="622.0" type="line"/>
      <point x="708.3571428571429" y="542.3333333333334" type="line"/>
      <point x="738.4761904761905" y="542.3333333333334" type="line" smooth="yes"/>
      <point x="753.7380952380953" y="542.3333333333334"/>
      <point x="764.8095238095239" y="521.3571428571429"/>
      <point x="769.8095238095239" y="492.4761904761905" type="curve"/>
      <point x="769.8095238095239" y="-0.09523809523809534" type="line"/>
    </contour>
  </outline>
</glyph>
<glyph name="i-beng" format="2">
  <advance width="446.3809523809524"/>
  <unicode hex="0987"/>
  <anchor x="306.4761904761905" y="37.214285714285715" name="bottom"/>
  <anchor x="430.8809523809524" y="-92.76190476190477" name="bottom.rakaar"/>
  <anchor x="390.8809523809524" y="31.571428571428562" name="bottom.rvocalic"/>
  <anchor x="298.57142857142856" y="41.3095238095238" name="bottom.virama"/>
  <anchor x="338.952380952381" y="607.2619047619048" name="top"/>
  <anchor x="288.76190476190476" y="607.6190476190476" name="topright"/>
  <anchor x="222.6904761904762" y="0.0" name="vedic"/>
  <outline>
    <contour>
      <point x="343.99999999999994" y="592.5238095238095" type="curve"/>
      <point x="404.0238095238095" y="592.5238095238095" type="line"/>
      <point x="398.4761904761905" y="751.8333333333334"/>
      <point x="345.5476190476191" y="818.4761904761906"/>
      <point x="254.07142857142856" y="818.4761904761906" type="curve" smooth="yes"/>
      <point x="204.78571428571428" y="818.4761904761906"/>
      <point x="171.5" y="807.9285714285713"/>
      <point x="123.21428571428572" y="807.9285714285713" type="curve" smooth="yes"/>
      <point x="60.28571428571428" y="807.9285714285713"/>
      <point x="34.73809523809524" y="834.2142857142858"/>
      <point x="34.73809523809524" y="890.4761904761904" type="curve" smooth="yes"/>
      <point x="34.73809523809524" y="902.9285714285714"/>
      <point x="35.73809523809524" y="917.9285714285714"/>
      <point x="37.73809523809524" y="931.4761904761905" type="curve"/>
      <point x="-13.095238095238095" y="938.0238095238095" type="line"/>
      <point x="-18.642857142857146" y="912.9285714285714"/>
      <point x="-21.19047619047619" y="883.7380952380953"/>
      <point x="-21.19047619047619" y="858.0000000000001" type="curve" smooth="yes"/>
      <point x="-21.19047619047619" y="756.9047619047619"/>
      <point x="28.642857142857146" y="689.4285714285713"/>
      <point x="131.85714285714283" y="689.4285714285713" type="curve" smooth="yes"/>
      <point x="189.1428571428571" y="689.4285714285713"/>
      <point x="224.52380952380952" y="699.9761904761904"/>
      <point x="262.07142857142856" y="699.9761904761904" type="curve" smooth="yes"/>
      <point x="307.7142857142857" y="699.9761904761904"/>
      <point x="338.90476190476187" y="679.2619047619048"/>
    </contour>
    <component base="ha-beng"/>
  </outline>
</glyph>
<glyph name="ii-beng" format="2">
  <advance width="614.4999999999999"/>
  <unicode hex="0988"/>
  <anchor x="545.5000000000001" y="-26.38095238095238" name="bottom"/>
  <anchor x="549.0476190476192" y="37.69047619047619" name="bottom.rakaar"/>
  <anchor x="541.6904761904761" y="-42.97619047619048" name="bottom.rvocalic"/>
  <anchor x="536.047619047619" y="-52.78571428571429" name="bottom.virama"/>
  <anchor x="380.09523809523813" y="607.2619047619048" name="top"/>
  <anchor x="336.90476190476187" y="607.6190476190476" name="topright"/>
  <anchor x="306.9761904761904" y="0.0" name="vedic"/>
  <outline>
    <contour>
      <point x="505.76190476190465" y="-87.45238095238095" type="curve"/>
      <point x="559.1428571428571" y="-66.26190476190477" type="line"/>
      <point x="537.5" y="10.66666666666666"/>
      <point x="531.5952380952381" y="56.83333333333333"/>
      <point x="531.5952380952381" y="119.9285714285714" type="curve" smooth="yes"/>
      <point x="531.5952380952381" y="213.7619047619048"/>
      <point x="556.7857142857143" y="306.04761904761904"/>
      <point x="594.8809523809525" y="380.5952380952381" type="curve"/>
      <point x="467.73809523809524" y="485.0952380952381" type="line"/>
      <point x="395.26190476190476" y="431.6428571428571"/>
      <point x="358.07142857142856" y="355.07142857142856"/>
      <point x="321.33333333333337" y="279.88095238095235" type="curve"/>
      <point x="347.26190476190476" y="228.0" type="line"/>
      <point x="353.35714285714283" y="250.73809523809527"/>
      <point x="355.3571428571429" y="274.9285714285714"/>
      <point x="355.3571428571429" y="299.76190476190476" type="curve" smooth="yes"/>
      <point x="355.3571428571429" y="403.2380952380952"/>
      <point x="312.71428571428567" y="493.61904761904765"/>
      <point x="171.76190476190476" y="493.61904761904765" type="curve" smooth="yes"/>
      <point x="90.83333333333336" y="493.61904761904765"/>
      <point x="42.45238095238095" y="450.88095238095235"/>
      <point x="42.45238095238095" y="381.5" type="curve" smooth="yes"/>
      <point x="42.45238095238095" y="311.4761904761905"/>
      <point x="90.4761904761905" y="274.8333333333333"/>
      <point x="145.3095238095238" y="274.8333333333333" type="curve" smooth="yes"/>
      <point x="202.14285714285717" y="274.8333333333333"/>
      <point x="244.52380952380952" y="315.4761904761905"/>
      <point x="242.97619047619048" y="391.5" type="curve" smooth="yes"/>
      <point x="240.97619047619048" y="465.2619047619048"/>
      <point x="195.04761904761907" y="531.7142857142858"/>
      <point x="170.04761904761904" y="549.3333333333334" type="curve"/>
      <point x="37.00000000000001" y="549.3333333333334" type="line"/>
      <point x="76.54761904761905" y="534.8809523809524"/>
      <point x="123.73809523809523" y="504.6190476190476"/>
      <point x="167.85714285714286" y="457.26190476190476" type="curve"/>
      <point x="153.69047619047618" y="366.95238095238096" type="line"/>
      <point x="164.95238095238096" y="385.95238095238096"/>
      <point x="198.23809523809524" y="396.5"/>
      <point x="219.14285714285714" y="396.5" type="curve" smooth="yes"/>
      <point x="264.14285714285717" y="396.5"/>
      <point x="290.23809523809524" y="367.2380952380953"/>
      <point x="290.23809523809524" y="313.23809523809524" type="curve" smooth="yes"/>
      <point x="290.23809523809524" y="275.14285714285717"/>
      <point x="280.1428571428572" y="233.6904761904762"/>
      <point x="262.59523809523813" y="201.14285714285714" type="curve" smooth="yes"/>
      <point x="245.04761904761904" y="167.1428571428571"/>
      <point x="218.95238095238096" y="144.49999999999997"/>
      <point x="189.85714285714286" y="144.49999999999997" type="curve" smooth="yes"/>
      <point x="150.11904761904765" y="144.49999999999997"/>
      <point x="124.1190476190476" y="176.69047619047618"/>
      <point x="99.47619047619047" y="226.6904761904762" type="curve"/>
      <point x="44.904761904761905" y="199.85714285714283" type="line"/>
      <point x="83.54761904761905" y="93.85714285714283"/>
      <point x="140.38095238095235" y="12.16666666666666"/>
      <point x="228.42857142857144" y="12.16666666666666" type="curve" smooth="yes"/>
      <point x="304.5476190476191" y="12.16666666666666"/>
      <point x="354.4761904761905" y="109.14285714285714"/>
      <point x="404.76190476190476" y="202.07142857142856" type="curve" smooth="yes"/>
      <point x="441.85714285714283" y="267.6190476190476"/>
      <point x="474.2380952380952" y="328.6428571428571"/>
      <point x="519.1428571428571" y="366.2380952380952" type="curve"/>
      <point x="484.38095238095246" y="383.14285714285717" type="line"/>
      <point x="455.73809523809535" y="312.95238095238096"/>
      <point x="443.73809523809524" y="249.49999999999997"/>
      <point x="443.73809523809524" y="167.2142857142857" type="curve" smooth="yes"/>
      <point x="443.73809523809524" y="63.09523809523809"/>
      <point x="473.5714285714286" y="-19.095238095238102"/>
    </contour>
    <contour>
      <point x="8.642857142857142" y="542.3333333333334" type="line"/>
      <point x="647.6904761904761" y="542.3333333333334" type="line"/>
      <point x="606.8571428571429" y="622.0" type="line"/>
      <point x="-33.19047619047619" y="622.0" type="line"/>
    </contour>
    <contour>
      <point x="466.7380952380952" y="592.5238095238095" type="curve"/>
      <point x="529.8571428571429" y="592.5238095238095" type="line"/>
      <point x="519.3095238095237" y="737.452380952381"/>
      <point x="475.5714285714286" y="824.4761904761904"/>
      <point x="352.16666666666663" y="824.4761904761904" type="curve" smooth="yes"/>
      <point x="280.9523809523809" y="824.4761904761904"/>
      <point x="266.88095238095235" y="808.8333333333335"/>
      <point x="176.2857142857143" y="808.8333333333335" type="curve" smooth="yes"/>
      <point x="110.64285714285712" y="808.8333333333335"/>
      <point x="85.73809523809524" y="835.1190476190476"/>
      <point x="85.73809523809524" y="893.6428571428572" type="curve" smooth="yes"/>
      <point x="85.73809523809524" y="904.2857142857142"/>
      <point x="86.73809523809524" y="918.3809523809524"/>
      <point x="88.73809523809523" y="931.4761904761905" type="curve"/>
      <point x="37.80952380952381" y="938.0238095238095" type="line"/>
      <point x="32.26190476190476" y="913.3809523809524"/>
      <point x="28.714285714285708" y="885.547619047619"/>
      <point x="28.714285714285708" y="859.8095238095237" type="curve" smooth="yes"/>
      <point x="28.714285714285708" y="757.8095238095237"/>
      <point x="80.45238095238095" y="688.9761904761905"/>
      <point x="198.76190476190476" y="688.9761904761905" type="curve" smooth="yes"/>
      <point x="276.3333333333333" y="688.9761904761905"/>
      <point x="310.59523809523813" y="707.1666666666666"/>
      <point x="371.16666666666674" y="707.1666666666666" type="curve" smooth="yes"/>
      <point x="435.0952380952381" y="707.1666666666666"/>
      <point x="459.1904761904762" y="678.2619047619048"/>
    </contour>
  </outline>
</glyph>
<glyph name="u-beng" format="2">
  <advance width="532.2857142857142"/>
  <unicode hex="0989"/>
  <anchor x="422.64285714285717" y="-12.14285714285715" name="bottom"/>
  <anchor x="479.0238095238095" y="-10.095238095238095" name="bottom.rakaar"/>
  <anchor x="414.73809523809524" y="15.404761904761905" name="bottom.rvocalic"/>
  <anchor x="358.9047619047619" y="-5.0238095238095255" name="bottom.virama"/>
  <anchor x="353.64285714285717" y="601.6190476190476" name="top"/>
  <anchor x="292.26190476190476" y="608.6190476190476" name="topright"/>
  <anchor x="266.1428571428571" y="0.0" name="vedic"/>
  <anchor x="288.88095238095235" y="-126.61904761904762" name="nukta"/>
  <outline>
    <contour>
      <point x="415.61904761904765" y="592.5238095238095" type="curve"/>
      <point x="477.1904761904762" y="592.5238095238095" type="line"/>
      <point x="470.1904761904762" y="751.3809523809524"/>
      <point x="416.35714285714283" y="819.4761904761905"/>
      <point x="318.88095238095246" y="819.4761904761905" type="curve" smooth="yes"/>
      <point x="265.5952380952381" y="819.4761904761905"/>
      <point x="231.9523809523809" y="808.3809523809524"/>
      <point x="180.21428571428572" y="808.3809523809524" type="curve" smooth="yes"/>
      <point x="115.02380952380953" y="808.3809523809524"/>
      <point x="91.02380952380953" y="836.0238095238095"/>
      <point x="91.02380952380953" y="890.0238095238096" type="curve" smooth="yes"/>
      <point x="91.02380952380953" y="902.0238095238094"/>
      <point x="92.02380952380952" y="917.0238095238095"/>
      <point x="94.02380952380952" y="931.4761904761905" type="curve"/>
      <point x="42.19047619047619" y="938.0238095238095" type="line"/>
      <point x="36.64285714285714" y="912.9285714285714"/>
      <point x="33.54761904761905" y="884.6428571428571"/>
      <point x="33.54761904761905" y="857.9999999999999" type="curve" smooth="yes"/>
      <point x="33.54761904761905" y="757.8095238095239"/>
      <point x="85.28571428571429" y="689.4285714285714"/>
      <point x="195.40476190476193" y="689.4285714285714" type="curve" smooth="yes"/>
      <point x="255.69047619047615" y="689.4285714285714"/>
      <point x="294.88095238095235" y="700.9761904761905"/>
      <point x="328.88095238095235" y="700.9761904761905" type="curve" smooth="yes"/>
      <point x="378.42857142857144" y="700.9761904761905"/>
      <point x="409.1666666666667" y="680.3571428571429"/>
    </contour>
    <component base="dda-beng"/>
  </outline>
</glyph>
<glyph name="uu-beng" format="2">
  <advance width="632.7857142857143"/>
  <unicode hex="098A"/>
  <anchor x="509.85714285714283" y="-22.880952380952383" name="bottom"/>
  <anchor x="567.3333333333333" y="-18.285714285714285" name="bottom.rakaar"/>
  <anchor x="501.5" y="4.666666666666664" name="bottom.rvocalic"/>
  <anchor x="445.21428571428567" y="-14.214285714285715" name="bottom.virama"/>
  <anchor x="415.21428571428567" y="604.7142857142858" name="top"/>
  <anchor x="395.2142857142857" y="607.6190476190476" name="topright"/>
  <anchor x="316.1666666666667" y="0.0" name="vedic"/>
  <outline>
    <contour>
      <point x="392.45238095238096" y="-12.523809523809522" type="curve" smooth="yes"/>
      <point x="550.047619047619" y="-12.523809523809522"/>
      <point x="620.9761904761905" y="87.66666666666666"/>
      <point x="620.9761904761905" y="234.33333333333334" type="curve" smooth="yes"/>
      <point x="620.9761904761905" y="345.16666666666663"/>
      <point x="579.7857142857143" y="422.4523809523809"/>
      <point x="528.1428571428572" y="473.6428571428571" type="curve"/>
      <point x="482.1190476190476" y="388.61904761904765"/>
      <point x="440.66666666666663" y="348.90476190476187"/>
      <point x="409.76190476190476" y="348.90476190476187" type="curve" smooth="yes"/>
      <point x="397.7619047619048" y="348.90476190476187"/>
      <point x="382.11904761904765" y="355.8095238095238"/>
      <point x="382.11904761904765" y="380.0" type="curve" smooth="yes"/>
      <point x="382.11904761904765" y="542.3333333333334" type="line"/>
      <point x="665.9761904761905" y="542.3333333333334" type="line"/>
      <point x="622.1428571428571" y="622.0" type="line"/>
      <point x="-33.19047619047619" y="622.0" type="line"/>
      <point x="10.19047619047619" y="542.3333333333334" type="line"/>
      <point x="282.42857142857144" y="542.3333333333334" type="line"/>
      <point x="282.42857142857144" y="374.9047619047619" type="line" smooth="yes"/>
      <point x="282.42857142857144" y="324.42857142857144"/>
      <point x="294.5238095238095" y="289.1428571428571"/>
      <point x="320.7142857142857" y="261.4047619047619" type="curve" smooth="yes"/>
      <point x="347.45238095238096" y="233.11904761904756"/>
      <point x="376.1904761904762" y="219.47619047619048"/>
      <point x="418.6666666666667" y="219.47619047619048" type="curve" smooth="yes"/>
      <point x="477.404761904762" y="219.47619047619048"/>
      <point x="539.6904761904761" y="267.02380952380946"/>
      <point x="573.2380952380953" y="342.76190476190476" type="curve"/>
      <point x="520.4047619047619" y="330.5952380952381" type="line"/>
      <point x="537.8571428571429" y="310.5"/>
      <point x="548.8571428571429" y="281.5"/>
      <point x="548.8571428571429" y="250.23809523809527" type="curve" smooth="yes"/>
      <point x="548.8571428571429" y="172.97619047619048"/>
      <point x="495.11904761904765" y="126.26190476190476"/>
      <point x="411.2857142857143" y="126.26190476190476" type="curve" smooth="yes"/>
      <point x="260.33333333333326" y="126.26190476190476"/>
      <point x="220.23809523809527" y="272.5238095238096"/>
      <point x="169.5" y="489.1666666666667" type="curve"/>
      <point x="113.47619047619048" y="473.61904761904765" type="line"/>
      <point x="135.38095238095235" y="307.0"/>
      <point x="169.47619047619048" y="195.0"/>
      <point x="209.73809523809524" y="111.07142857142857" type="curve"/>
      <point x="252.11904761904762" y="119.80952380952381" type="line"/>
      <point x="165.38095238095238" y="153.35714285714283"/>
      <point x="111.38095238095237" y="272.35714285714283"/>
      <point x="54.19047619047619" y="480.9761904761905" type="curve"/>
      <point x="-1.2857142857142865" y="465.8809523809524" type="line"/>
      <point x="52.26190476190476" y="149.59523809523807"/>
      <point x="175.3809523809524" y="-12.523809523809522"/>
    </contour>
    <contour>
      <point x="519.7619047619048" y="592.5238095238095" type="curve"/>
      <point x="582.8809523809523" y="592.5238095238095" type="line"/>
      <point x="572.3333333333333" y="737.452380952381"/>
      <point x="510.857142857143" y="825.3809523809524"/>
      <point x="387.0" y="825.3809523809524" type="curve" smooth="yes"/>
      <point x="313.9761904761905" y="825.3809523809524"/>
      <point x="274.88095238095235" y="808.3809523809523"/>
      <point x="180.21428571428572" y="808.3809523809523" type="curve" smooth="yes"/>
      <point x="115.47619047619048" y="808.3809523809523"/>
      <point x="91.47619047619047" y="836.0238095238096"/>
      <point x="91.47619047619047" y="890.0238095238096" type="curve" smooth="yes"/>
      <point x="91.47619047619047" y="902.0238095238094"/>
      <point x="92.47619047619048" y="917.0238095238095"/>
      <point x="94.4761904761905" y="931.4761904761905" type="curve"/>
      <point x="42.642857142857146" y="938.0238095238095" type="line"/>
      <point x="37.09523809523809" y="912.9285714285714"/>
      <point x="33.54761904761905" y="884.6428571428571"/>
      <point x="33.54761904761905" y="857.9999999999999" type="curve" smooth="yes"/>
      <point x="33.54761904761905" y="757.8095238095237"/>
      <point x="85.28571428571429" y="689.4285714285714"/>
      <point x="203.59523809523807" y="689.4285714285714" type="curve" smooth="yes"/>
      <point x="283.8809523809524" y="689.4285714285714"/>
      <point x="341.3571428571429" y="708.9761904761905"/>
      <point x="405.09523809523813" y="708.9761904761905" type="curve" smooth="yes"/>
      <point x="470.38095238095235" y="708.9761904761905"/>
      <point x="511.76190476190476" y="678.2619047619048"/>
    </contour>
  </outline>
</glyph>
<glyph name="rVocalic-beng" format="2">
  <advance width="674.0476190476192"/>
  <unicode hex="098B"/>
  <anchor x="474.02380952380946" y="0.0" name="bottom"/>
  <anchor x="474.02380952380946" y="94.11904761904762" name="bottom.rakaar"/>
  <anchor x="415.66666666666663" y="114.52380952380953" name="bottom.rvocalic"/>
  <anchor x="456.4761904761905" y="17.285714285714285" name="bottom.virama"/>
  <anchor x="474.02380952380946" y="542.3333333333334" name="top"/>
  <anchor x="476.5714285714285" y="542.3333333333334" name="topright"/>
  <anchor x="336.5238095238096" y="0.0" name="vedic"/>
  <outline>
    <contour>
      <point x="463.92857142857144" y="-28.38095238095238" type="line"/>
      <point x="474.02380952380946" y="-25.833333333333336" type="line"/>
      <point x="474.02380952380946" y="637.3571428571428" type="line"/>
      <point x="381.42857142857144" y="690.8333333333334" type="line"/>
      <point x="374.33333333333337" y="687.7380952380952" type="line"/>
      <point x="374.33333333333337" y="440.14285714285717" type="line"/>
      <point x="383.42857142857144" y="494.35714285714283" type="line"/>
      <point x="271.5" y="452.452380952381"/>
      <point x="141.54761904761904" y="386.1666666666667"/>
      <point x="61.0952380952381" y="332.2619047619047" type="curve"/>
      <point x="134.57142857142858" y="188.85714285714286" type="line"/>
      <point x="237.1190476190476" y="168.14285714285714"/>
      <point x="333.23809523809524" y="115.5238095238095"/>
      <point x="396.16666666666663" y="12.904761904761903" type="curve"/>
    </contour>
    <contour>
      <point x="374.33333333333337" y="102.11904761904762" type="line"/>
      <point x="393.9761904761905" y="101.66666666666669" type="line"/>
      <point x="359.9761904761905" y="201.0"/>
      <point x="279.7142857142857" y="260.0714285714286"/>
      <point x="211.09523809523807" y="286.9761904761905" type="curve"/>
      <point x="220.1904761904762" y="255.5952380952381" type="line"/>
      <point x="267.54761904761904" y="293.5"/>
      <point x="340.80952380952385" y="327.6666666666667"/>
      <point x="392.07142857142856" y="346.92857142857133" type="curve"/>
      <point x="374.33333333333337" y="394.59523809523813" type="line"/>
    </contour>
    <contour>
      <point x="121.38095238095238" y="414.61904761904765" type="curve" smooth="yes"/>
      <point x="181.38095238095238" y="414.61904761904765"/>
      <point x="259.5952380952381" y="444.9761904761905"/>
      <point x="305.88095238095235" y="533.1666666666666" type="curve"/>
      <point x="269.0476190476191" y="530.6190476190476" type="line"/>
      <point x="285.4047619047619" y="510.26190476190476"/>
      <point x="309.04761904761904" y="481.2619047619048"/>
      <point x="324.49999999999994" y="441.4523809523809" type="curve"/>
      <point x="375.9761904761905" y="454.54761904761904" type="line"/>
      <point x="355.6190476190476" y="525.2619047619048"/>
      <point x="315.33333333333337" y="599.3809523809524"/>
      <point x="261.04761904761904" y="635.8333333333333" type="curve"/>
      <point x="227.047619047619" y="568.2142857142857"/>
      <point x="171.57142857142856" y="513.3809523809524"/>
      <point x="110.45238095238093" y="513.3809523809524" type="curve" smooth="yes"/>
      <point x="101.45238095238096" y="513.3809523809524"/>
      <point x="87.99999999999999" y="514.8333333333333"/>
      <point x="80.90476190476191" y="517.8333333333334" type="curve"/>
      <point x="129.83333333333334" y="481.6428571428571" type="line"/>
      <point x="147.92857142857144" y="499.1904761904762"/>
      <point x="154.47619047619048" y="515.7380952380952"/>
      <point x="154.47619047619048" y="544.8333333333333" type="curve" smooth="yes"/>
      <point x="154.47619047619048" y="581.3809523809524"/>
      <point x="132.92857142857142" y="616.1190476190476"/>
      <point x="83.64285714285714" y="616.1190476190476" type="curve" smooth="yes"/>
      <point x="34.35714285714286" y="616.1190476190476"/>
      <point x="3.166666666666664" y="582.3809523809523"/>
      <point x="3.166666666666664" y="530.7380952380953" type="curve" smooth="yes"/>
      <point x="3.166666666666664" y="454.3571428571428"/>
      <point x="54.80952380952381" y="414.61904761904765"/>
    </contour>
    <contour>
      <point x="614.3333333333333" y="48.04761904761905" type="line"/>
      <point x="624.4285714285714" y="50.595238095238095" type="line"/>
      <point x="624.4285714285714" y="542.3333333333334" type="line"/>
      <point x="707.2380952380953" y="542.3333333333334" type="line"/>
      <point x="664.8571428571428" y="622.0" type="line"/>
      <point x="613.2380952380953" y="622.0" type="line"/>
      <point x="604.1428571428571" y="681.9285714285714" type="line"/>
      <point x="535.9285714285713" y="719.0238095238096" type="line"/>
      <point x="527.8333333333333" y="715.4761904761905" type="line"/>
      <point x="527.8333333333333" y="179.0" type="line"/>
      <point x="547.4761904761906" y="178.0952380952381" type="line"/>
      <point x="524.3809523809524" y="244.9047619047619"/>
      <point x="483.28571428571416" y="292.71428571428567"/>
      <point x="437.2857142857143" y="325.5238095238095" type="curve"/>
      <point x="424.54761904761904" y="213.11904761904762" type="line"/>
      <point x="473.19047619047615" y="184.3095238095238"/>
      <point x="516.4761904761905" y="144.04761904761904"/>
      <point x="549.6666666666665" y="89.33333333333333" type="curve"/>
    </contour>
  </outline>
</glyph>
<glyph name="lVocalic-beng" format="2">
  <advance width="476.73809523809524"/>
  <unicode hex="098C"/>
  <anchor x="383.9285714285714" y="542.3333333333334" name="top"/>
  <anchor x="238.14285714285708" y="0.0" name="vedic"/>
  <outline>
    <contour>
      <point x="268.6904761904762" y="-19.952380952380956" type="line"/>
      <point x="355.07142857142856" y="-7.142857142857146"/>
      <point x="466.9285714285714" y="68.09523809523809"/>
      <point x="466.9285714285714" y="263.97619047619054" type="curve" smooth="yes"/>
      <point x="466.9285714285714" y="399.9761904761905"/>
      <point x="402.64285714285717" y="467.3571428571428"/>
      <point x="269.61904761904765" y="503.90476190476187" type="curve" smooth="yes"/>
      <point x="182.50000000000003" y="528.0"/>
      <point x="131.85714285714283" y="539.9047619047618"/>
      <point x="131.85714285714283" y="616.0" type="curve" smooth="yes"/>
      <point x="131.85714285714283" y="647.547619047619"/>
      <point x="137.3095238095238" y="670.452380952381"/>
      <point x="148.85714285714286" y="699.0" type="curve"/>
      <point x="93.38095238095238" y="716.6428571428572" type="line"/>
      <point x="73.83333333333333" y="679.0952380952381"/>
      <point x="53.095238095238095" y="630.452380952381"/>
      <point x="53.095238095238095" y="562.8809523809524" type="curve" smooth="yes"/>
      <point x="53.095238095238095" y="448.14285714285717"/>
      <point x="120.38095238095238" y="407.04761904761904"/>
      <point x="229.3095238095238" y="376.95238095238096" type="curve" smooth="yes"/>
      <point x="332.3333333333333" y="348.3095238095238"/>
      <point x="392.7142857142857" y="336.1428571428571"/>
      <point x="392.7142857142857" y="232.6904761904762" type="curve" smooth="yes"/>
      <point x="392.7142857142857" y="156.04761904761904"/>
      <point x="360.61904761904765" y="108.71428571428572"/>
      <point x="309.8809523809524" y="104.0" type="curve"/>
      <point x="365.5476190476191" y="72.16666666666667" type="line"/>
      <point x="365.5476190476191" y="214.38095238095238"/>
      <point x="297.88095238095235" y="329.38095238095235"/>
      <point x="178.7619047619048" y="329.38095238095235" type="curve" smooth="yes"/>
      <point x="71.35714285714286" y="329.38095238095235"/>
      <point x="24.261904761904763" y="243.8095238095238"/>
      <point x="24.261904761904763" y="154.07142857142858" type="curve" smooth="yes"/>
      <point x="24.261904761904763" y="48.14285714285714"/>
      <point x="74.0" y="-5.5000000000000036"/>
      <point x="138.38095238095238" y="-5.5000000000000036" type="curve" smooth="yes"/>
      <point x="193.76190476190476" y="-5.5000000000000036"/>
      <point x="217.952380952381" y="31.047619047619044"/>
      <point x="217.952380952381" y="82.97619047619047" type="curve" smooth="yes"/>
      <point x="217.952380952381" y="133.26190476190476"/>
      <point x="189.3095238095238" y="164.9047619047619"/>
      <point x="146.02380952380952" y="164.9047619047619" type="curve" smooth="yes"/>
      <point x="107.73809523809524" y="164.9047619047619"/>
      <point x="79.64285714285715" y="136.26190476190476"/>
      <point x="80.64285714285714" y="98.52380952380952" type="curve"/>
      <point x="136.66666666666666" y="91.8809523809524" type="line"/>
      <point x="119.11904761904762" y="98.78571428571429"/>
      <point x="107.11904761904762" y="117.23809523809521"/>
      <point x="107.11904761904762" y="148.69047619047618" type="curve" smooth="yes"/>
      <point x="107.11904761904762" y="185.14285714285714"/>
      <point x="129.11904761904762" y="213.04761904761904"/>
      <point x="166.21428571428572" y="213.04761904761904" type="curve" smooth="yes"/>
      <point x="240.5952380952381" y="213.04761904761904"/>
      <point x="265.6904761904762" y="110.76190476190477"/>
      <point x="265.6904761904762" y="29.4047619047619" type="curve" smooth="yes"/>
      <point x="265.6904761904762" y="15.499999999999996"/>
      <point x="264.6904761904762" y="1.595238095238095"/>
      <point x="262.14285714285717" y="-13.85714285714286" type="curve"/>
    </contour>
  </outline>
</glyph>
<glyph name="e-beng" format="2">
  <advance width="575.9999999999999"/>
  <unicode hex="098F"/>
  <anchor x="526.8333333333334" y="0.0" name="bottom"/>
  <anchor x="526.8333333333334" y="-7.738095238095239" name="bottom.rvocalic"/>
  <anchor x="509.7380952380953" y="9.095238095238095" name="bottom.virama"/>
  <anchor x="449.2857142857142" y="542.3333333333334" name="top"/>
  <anchor x="452.2857142857142" y="542.3333333333334" name="topright"/>
  <anchor x="287.49999999999994" y="0.0" name="vedic"/>
  <outline>
    <contour>
      <point x="516.8333333333333" y="-35.57142857142857" type="line"/>
      <point x="526.9285714285714" y="-33.023809523809526" type="line"/>
      <point x="526.9285714285714" y="482.23809523809524" type="line" smooth="yes"/>
      <point x="526.9285714285714" y="571.6190476190476"/>
      <point x="471.90476190476187" y="633.0"/>
      <point x="381.5" y="633.0" type="curve" smooth="yes"/>
      <point x="268.11904761904765" y="633.0"/>
      <point x="159.0952380952381" y="519.5714285714286"/>
      <point x="159.0952380952381" y="385.4523809523809" type="curve" smooth="yes"/>
      <point x="159.0952380952381" y="300.7142857142857"/>
      <point x="217.02380952380952" y="253.52380952380955"/>
      <point x="281.50000000000006" y="253.07142857142856" type="curve" smooth="yes"/>
      <point x="344.69047619047615" y="252.61904761904762"/>
      <point x="381.5238095238095" y="299.35714285714283"/>
      <point x="381.5238095238095" y="355.6428571428571" type="curve" smooth="yes"/>
      <point x="381.5238095238095" y="407.3809523809524"/>
      <point x="350.7857142857143" y="442.38095238095235"/>
      <point x="310.23809523809524" y="442.38095238095235" type="curve" smooth="yes"/>
      <point x="289.14285714285717" y="442.38095238095235"/>
      <point x="270.59523809523813" y="431.2857142857143"/>
      <point x="259.04761904761904" y="411.8333333333333" type="curve"/>
      <point x="312.8095238095238" y="405.1904761904762" type="line"/>
      <point x="315.3571428571429" y="487.38095238095235"/>
      <point x="361.61904761904765" y="544.2380952380952"/>
      <point x="399.42857142857133" y="544.2380952380952" type="curve" smooth="yes"/>
      <point x="417.14285714285717" y="544.2380952380952"/>
      <point x="427.23809523809524" y="526.6190476190476"/>
      <point x="427.23809523809524" y="501.3571428571429" type="curve" smooth="yes"/>
      <point x="427.23809523809524" y="254.71428571428572" type="line" smooth="yes"/>
      <point x="427.23809523809524" y="204.6904761904762"/>
      <point x="432.7857142857143" y="132.83333333333331"/>
      <point x="440.88095238095235" y="95.73809523809524" type="curve"/>
      <point x="402.5" y="177.85714285714286"/>
      <point x="354.8571428571429" y="194.40476190476193"/>
      <point x="305.11904761904765" y="194.40476190476193" type="curve" smooth="yes"/>
      <point x="268.21428571428567" y="194.40476190476193"/>
      <point x="234.9285714285714" y="186.30952380952382"/>
      <point x="188.47619047619045" y="186.30952380952382" type="curve" smooth="yes"/>
      <point x="126.1904761904762" y="186.30952380952382"/>
      <point x="89.73809523809524" y="220.49999999999997"/>
      <point x="89.73809523809524" y="303.5" type="curve" smooth="yes"/>
      <point x="89.73809523809524" y="334.6666666666667"/>
      <point x="93.73809523809523" y="365.6666666666667"/>
      <point x="101.83333333333334" y="397.4047619047619" type="curve"/>
      <point x="43.357142857142854" y="406.5" type="line"/>
      <point x="30.261904761904766" y="360.66666666666663"/>
      <point x="22.714285714285708" y="308.3809523809523"/>
      <point x="22.714285714285708" y="256.64285714285717" type="curve" smooth="yes"/>
      <point x="22.714285714285708" y="97.80952380952381"/>
      <point x="106.45238095238095" y="41.785714285714285"/>
      <point x="199.47619047619048" y="41.785714285714285" type="curve" smooth="yes"/>
      <point x="264.30952380952385" y="41.785714285714285"/>
      <point x="310.88095238095235" y="61.07142857142858"/>
      <point x="358.42857142857144" y="61.07142857142858" type="curve" smooth="yes"/>
      <point x="393.1428571428571" y="61.07142857142858"/>
      <point x="425.9761904761905" y="46.07142857142857"/>
      <point x="455.6190476190476" y="-0.3809523809523796" type="curve"/>
    </contour>
  </outline>
</glyph>
<glyph name="ai-beng" format="2">
  <advance width="658.7380952380953"/>
  <unicode hex="0990"/>
  <anchor x="477.4761904761904" y="604.6428571428572" name="top"/>
  <anchor x="432.6428571428572" y="597.3571428571428" name="topright"/>
  <anchor x="329.14285714285717" y="0.0" name="vedic"/>
  <anchor x="526.8333333333334" y="0.0" name="bottom"/>
  <anchor x="526.8333333333334" y="-7.738095238095239" name="bottom.rvocalic"/>
  <anchor x="509.7380952380953" y="9.095238095238095" name="bottom.virama"/>
  <outline>
    <contour>
      <point x="499.90476190476187" y="298.14285714285717" type="line"/>
      <point x="565.3809523809525" y="365.5238095238095"/>
      <point x="616.0238095238095" y="444.7142857142858"/>
      <point x="616.0238095238095" y="565.3571428571429" type="curve" smooth="yes"/>
      <point x="616.0238095238095" y="733.6428571428572"/>
      <point x="490.26190476190476" y="769.3809523809523"/>
      <point x="378.5238095238095" y="793.0238095238095" type="curve" smooth="yes"/>
      <point x="288.8809523809524" y="812.1190476190476"/>
      <point x="205.30952380952382" y="830.3095238095239"/>
      <point x="205.30952380952382" y="917.3095238095237" type="curve" smooth="yes"/>
      <point x="205.30952380952382" y="947.3095238095237"/>
      <point x="212.30952380952382" y="979.8571428571428"/>
      <point x="223.85714285714283" y="1005.952380952381" type="curve"/>
      <point x="168.38095238095238" y="1024.0476190476188" type="line"/>
      <point x="149.28571428571428" y="977.7619047619047"/>
      <point x="136.73809523809527" y="934.6666666666666"/>
      <point x="136.73809523809527" y="882.9285714285714" type="curve" smooth="yes"/>
      <point x="136.73809523809527" y="745.0952380952381"/>
      <point x="235.21428571428572" y="704.7142857142856"/>
      <point x="359.8809523809524" y="679.9761904761904" type="curve" smooth="yes"/>
      <point x="467.2619047619049" y="658.7857142857143"/>
      <point x="552.0000000000001" y="649.8809523809523"/>
      <point x="552.0000000000001" y="552.3571428571428" type="curve" smooth="yes"/>
      <point x="552.0000000000001" y="488.64285714285717"/>
      <point x="531.6428571428572" y="443.1904761904762"/>
      <point x="477.8095238095238" y="396.54761904761904" type="curve"/>
    </contour>
    <component base="e-beng"/>
  </outline>
</glyph>
<glyph name="o-beng" format="2">
  <advance width="614.5476190476189"/>
  <unicode hex="0993"/>
  <anchor x="484.19047619047626" y="-6.142857142857148" name="bottom"/>
  <anchor x="538.0238095238095" y="0.0" name="bottom.rakaar"/>
  <anchor x="477.83333333333326" y="18.404761904761898" name="bottom.rvocalic"/>
  <anchor x="425.0952380952381" y="1.0714285714285698" name="bottom.virama"/>
  <anchor x="417.3571428571429" y="511.5714285714285" name="top"/>
  <anchor x="419.9047619047619" y="511.5714285714285" name="topright"/>
  <anchor x="307.0476190476191" y="0.0" name="vedic"/>
  <outline>
    <contour>
      <point x="380.3333333333333" y="21.14285714285714" type="curve" smooth="yes"/>
      <point x="500.16666666666663" y="21.14285714285714"/>
      <point x="585.4761904761904" y="101.23809523809523"/>
      <point x="585.4761904761904" y="218.71428571428572" type="curve" smooth="yes"/>
      <point x="585.4761904761904" y="347.1904761904762"/>
      <point x="466.33333333333326" y="423.1904761904762"/>
      <point x="413.88095238095235" y="423.1904761904762" type="curve" smooth="yes"/>
      <point x="376.7857142857143" y="423.1904761904762"/>
      <point x="336.85714285714283" y="402.8333333333333"/>
      <point x="336.85714285714283" y="342.35714285714283" type="curve" smooth="yes"/>
      <point x="336.85714285714283" y="288.0714285714286"/>
      <point x="370.14285714285717" y="252.8809523809524"/>
      <point x="419.42857142857144" y="252.8809523809524" type="curve" smooth="yes"/>
      <point x="496.3571428571429" y="252.8809523809524"/>
      <point x="559.7380952380952" y="355.04761904761904"/>
      <point x="559.7380952380952" y="462.4285714285714" type="curve" smooth="yes"/>
      <point x="559.7380952380952" y="558.6190476190476"/>
      <point x="496.3571428571429" y="629.452380952381"/>
      <point x="384.59523809523813" y="629.452380952381" type="curve" smooth="yes"/>
      <point x="251.19047619047615" y="629.452380952381"/>
      <point x="147.00000000000003" y="528.0000000000001"/>
      <point x="147.00000000000003" y="420.0" type="curve" smooth="yes"/>
      <point x="147.00000000000003" y="345.26190476190476"/>
      <point x="188.1904761904762" y="305.0714285714286"/>
      <point x="241.0238095238095" y="305.0714285714286" type="curve" smooth="yes"/>
      <point x="295.50000000000006" y="305.0714285714286"/>
      <point x="325.59523809523813" y="343.35714285714283"/>
      <point x="325.59523809523813" y="396.452380952381" type="curve" smooth="yes"/>
      <point x="325.59523809523813" y="434.54761904761904"/>
      <point x="299.952380952381" y="469.73809523809524"/>
      <point x="268.8571428571429" y="469.73809523809524" type="curve" smooth="yes"/>
      <point x="240.02380952380955" y="469.73809523809524"/>
      <point x="224.0238095238095" y="453.4523809523809"/>
      <point x="220.66666666666669" y="438.9047619047619" type="curve"/>
      <point x="276.1428571428571" y="407.9761904761904" type="line"/>
      <point x="288.33333333333337" y="498.1666666666667"/>
      <point x="360.26190476190476" y="547.6904761904761"/>
      <point x="416.4285714285715" y="547.6904761904761" type="curve" smooth="yes"/>
      <point x="448.78571428571433" y="547.6904761904761"/>
      <point x="465.7857142857143" y="530.5238095238095"/>
      <point x="465.7857142857143" y="498.9047619047619" type="curve" smooth="yes"/>
      <point x="465.7857142857143" y="461.6428571428571"/>
      <point x="442.69047619047626" y="414.3571428571429"/>
      <point x="401.04761904761904" y="398.1904761904762" type="curve"/>
      <point x="419.14285714285717" y="335.4523809523809" type="line"/>
      <point x="457.8809523809524" y="337.0"/>
      <point x="507.1666666666667" y="311.09523809523813"/>
      <point x="507.1666666666667" y="256.73809523809524" type="curve" smooth="yes"/>
      <point x="507.1666666666667" y="190.19047619047618"/>
      <point x="452.2380952380952" y="157.92857142857142"/>
      <point x="376.1428571428571" y="157.92857142857142" type="curve" smooth="yes"/>
      <point x="250.047619047619" y="157.92857142857142"/>
      <point x="137.28571428571428" y="234.35714285714286"/>
      <point x="73.73809523809524" y="551.0952380952381" type="curve"/>
      <point x="12.714285714285715" y="536.452380952381" type="line"/>
      <point x="70.71428571428572" y="178.26190476190476"/>
      <point x="195.0952380952381" y="21.14285714285714"/>
    </contour>
  </outline>
</glyph>
<glyph name="au-beng" format="2">
  <advance width="686.4761904761906"/>
  <unicode hex="0994"/>
  <anchor x="592.547619047619" y="-5.5952380952380985" name="bottom"/>
  <anchor x="655.9285714285714" y="-1.0" name="bottom.rakaar"/>
  <anchor x="577.7380952380953" y="21.499999999999993" name="bottom.rvocalic"/>
  <anchor x="513.6428571428571" y="2.619047619047617" name="bottom.virama"/>
  <anchor x="621.7380952380953" y="604.6428571428572" name="top"/>
  <anchor x="559.6428571428571" y="597.3571428571428" name="topright"/>
  <anchor x="343.2380952380953" y="0.0" name="vedic"/>
  <outline>
    <contour>
      <point x="527.6428571428572" y="298.1428571428571" type="line"/>
      <point x="593.5714285714284" y="365.5238095238095"/>
      <point x="643.7619047619049" y="444.7142857142858"/>
      <point x="643.7619047619049" y="565.3571428571428" type="curve" smooth="yes"/>
      <point x="643.7619047619049" y="733.1904761904761"/>
      <point x="518.4523809523811" y="769.3809523809524"/>
      <point x="406.71428571428567" y="793.0238095238095" type="curve" smooth="yes"/>
      <point x="317.07142857142856" y="812.1190476190476"/>
      <point x="233.50000000000003" y="830.3095238095239"/>
      <point x="233.50000000000003" y="917.3095238095237" type="curve" smooth="yes"/>
      <point x="233.50000000000003" y="947.3095238095237"/>
      <point x="240.5" y="979.8571428571428"/>
      <point x="251.59523809523813" y="1005.952380952381" type="curve"/>
      <point x="196.11904761904762" y="1024.0476190476188" type="line"/>
      <point x="177.47619047619048" y="977.7619047619047"/>
      <point x="164.92857142857144" y="934.6666666666666"/>
      <point x="164.92857142857144" y="882.9285714285714" type="curve" smooth="yes"/>
      <point x="164.92857142857144" y="745.0952380952381"/>
      <point x="263.40476190476187" y="704.7142857142856"/>
      <point x="388.0714285714286" y="679.9761904761904" type="curve" smooth="yes"/>
      <point x="495.452380952381" y="658.7857142857141"/>
      <point x="580.190476190476" y="649.8809523809524"/>
      <point x="580.190476190476" y="552.357142857143" type="curve" smooth="yes"/>
      <point x="580.190476190476" y="488.6428571428571"/>
      <point x="559.8333333333333" y="443.1904761904762"/>
      <point x="506.0" y="396.547619047619" type="curve"/>
    </contour>
    <component base="o-beng"/>
  </outline>
</glyph>
<glyph name="ka-beng" format="2">
  <advance width="638.0238095238096"/>
  <unicode hex="0995"/>
  <anchor x="407.00000000000006" y="35.642857142857146" name="bottom"/>
  <anchor x="409.64285714285717" y="94.11904761904762" name="bottom.rakaar"/>
  <anchor x="411.0" y="10.54761904761905" name="bottom.rvocalic"/>
  <anchor x="392.26190476190476" y="1.357142857142854" name="bottom.virama"/>
  <anchor x="181.4047619047619" y="33.4047619047619" name="nukta"/>
  <anchor x="375.8809523809524" y="587.9285714285714" name="top"/>
  <anchor x="376.88095238095235" y="571.547619047619" name="topright"/>
  <anchor x="318.78571428571433" y="0.0" name="vedic"/>
  <outline>
    <contour>
      <point x="400.90476190476187" y="-28.380952380952383" type="line"/>
      <point x="411.0" y="-25.833333333333336" type="line"/>
      <point x="411.0" y="393.92857142857144" type="line"/>
      <point x="394.452380952381" y="367.92857142857144" type="line"/>
      <point x="400.0" y="369.92857142857144"/>
      <point x="406.547619047619" y="370.92857142857144"/>
      <point x="412.0952380952381" y="370.92857142857144" type="curve" smooth="yes"/>
      <point x="495.5476190476191" y="370.92857142857144"/>
      <point x="564.4761904761904" y="327.14285714285717"/>
      <point x="564.4761904761904" y="262.7857142857143" type="curve" smooth="yes"/>
      <point x="564.4761904761904" y="247.33333333333334"/>
      <point x="562.4761904761906" y="236.23809523809524"/>
      <point x="554.4761904761905" y="223.2380952380952" type="curve"/>
      <point x="576.0238095238095" y="219.23809523809524" type="line"/>
      <point x="574.1190476190475" y="265.88095238095235"/>
      <point x="547.9285714285713" y="290.0714285714286"/>
      <point x="504.09523809523813" y="290.0714285714286" type="curve" smooth="yes"/>
      <point x="462.99999999999994" y="290.0714285714286"/>
      <point x="430.16666666666663" y="258.5238095238095"/>
      <point x="430.16666666666663" y="207.23809523809524" type="curve" smooth="yes"/>
      <point x="430.16666666666663" y="153.76190476190476"/>
      <point x="459.90476190476187" y="113.21428571428572"/>
      <point x="512.6428571428572" y="113.21428571428572" type="curve" smooth="yes"/>
      <point x="580.0238095238095" y="113.21428571428572"/>
      <point x="623.952380952381" y="169.76190476190476"/>
      <point x="623.952380952381" y="267.9761904761905" type="curve" smooth="yes"/>
      <point x="623.952380952381" y="403.0"/>
      <point x="535.5714285714286" y="498.2619047619047"/>
      <point x="397.45238095238096" y="512.3571428571429" type="curve"/>
      <point x="411.0" y="487.7142857142857" type="line"/>
      <point x="411.0" y="542.3333333333334" type="line"/>
      <point x="670.7619047619048" y="542.3333333333334" type="line"/>
      <point x="628.3809523809523" y="622.0" type="line"/>
      <point x="-33.19047619047619" y="622.0" type="line"/>
      <point x="8.642857142857142" y="542.3333333333334" type="line"/>
      <point x="311.3095238095238" y="542.3333333333334" type="line"/>
      <point x="311.3095238095238" y="456.95238095238096" type="line"/>
      <point x="322.9523809523809" y="515.3571428571429" type="line"/>
      <point x="210.57142857142858" y="477.6428571428571"/>
      <point x="82.97619047619047" y="412.9047619047619"/>
      <point x="0.6190476190476173" y="349.1904761904762" type="curve"/>
      <point x="71.54761904761905" y="188.85714285714286" type="line"/>
      <point x="174.0952380952381" y="168.14285714285714"/>
      <point x="269.76190476190476" y="115.52380952380952"/>
      <point x="333.1428571428571" y="12.904761904761907" type="curve"/>
    </contour>
    <contour>
      <point x="311.3095238095238" y="102.11904761904762" type="line"/>
      <point x="330.5" y="101.66666666666666" type="line"/>
      <point x="296.9523809523809" y="201.0"/>
      <point x="223.8809523809524" y="260.07142857142856"/>
      <point x="155.2619047619048" y="286.9761904761905" type="curve"/>
      <point x="158.16666666666666" y="266.33333333333337" type="line"/>
      <point x="206.42857142857142" y="307.85714285714283"/>
      <point x="278.33333333333337" y="340.6666666666667"/>
      <point x="329.5952380952381" y="360.8333333333333" type="curve"/>
      <point x="311.3095238095238" y="410.5" type="line"/>
    </contour>
  </outline>
</glyph>
<glyph name="kha-beng" format="2">
  <advance width="549.1904761904761"/>
  <unicode hex="0996"/>
  <anchor x="495.1190476190477" y="35.642857142857146" name="bottom"/>
  <anchor x="499.11904761904754" y="94.11904761904762" name="bottom.rakaar"/>
  <anchor x="499.11904761904754" y="7.904761904761903" name="bottom.rvocalic"/>
  <anchor x="479.4761904761904" y="1.357142857142854" name="bottom.virama"/>
  <anchor x="453.26190476190476" y="577.9285714285714" name="top"/>
  <anchor x="443.3571428571429" y="568.3809523809524" name="topright"/>
  <anchor x="260.59523809523813" y="0.0" name="vedic"/>
  <outline>
    <contour>
      <point x="489.47619047619054" y="-28.380952380952383" type="line"/>
      <point x="499.11904761904754" y="-25.833333333333336" type="line"/>
      <point x="499.11904761904754" y="542.3333333333334" type="line"/>
      <point x="582.3809523809524" y="542.3333333333334" type="line"/>
      <point x="540.0" y="622.0" type="line"/>
      <point x="488.3809523809524" y="622.0" type="line"/>
      <point x="479.2857142857143" y="681.9285714285714" type="line"/>
      <point x="407.9761904761905" y="719.0238095238096" type="line"/>
      <point x="399.88095238095235" y="715.4761904761905" type="line"/>
      <point x="399.88095238095235" y="103.02380952380952" type="line"/>
      <point x="418.6190476190476" y="103.92857142857142" type="line"/>
      <point x="384.61904761904765" y="198.0952380952381"/>
      <point x="310.9761904761904" y="254.26190476190482"/>
      <point x="244.61904761904762" y="281.16666666666663" type="curve"/>
      <point x="255.3571428571429" y="253.88095238095235" type="line"/>
      <point x="335.45238095238096" y="277.9761904761905"/>
      <point x="371.80952380952385" y="336.1666666666667"/>
      <point x="371.80952380952385" y="421.9761904761905" type="curve" smooth="yes"/>
      <point x="371.80952380952385" y="532.547619047619"/>
      <point x="302.6904761904762" y="598.2857142857142"/>
      <point x="246.8571428571429" y="634.2857142857142" type="curve"/>
      <point x="214.21428571428572" y="566.6666666666666"/>
      <point x="171.57142857142858" y="504.6428571428571"/>
      <point x="110.45238095238095" y="504.6428571428571" type="curve" smooth="yes"/>
      <point x="101.45238095238096" y="504.6428571428571"/>
      <point x="87.99999999999999" y="505.64285714285705"/>
      <point x="80.9047619047619" y="509.09523809523796" type="curve"/>
      <point x="129.83333333333334" y="472.90476190476187" type="line"/>
      <point x="147.92857142857144" y="490.45238095238096"/>
      <point x="154.47619047619048" y="507.0"/>
      <point x="154.47619047619048" y="536.0952380952381" type="curve" smooth="yes"/>
      <point x="154.47619047619048" y="572.6428571428572"/>
      <point x="132.92857142857142" y="607.3809523809524"/>
      <point x="83.64285714285714" y="607.3809523809524" type="curve" smooth="yes"/>
      <point x="34.35714285714286" y="607.3809523809524"/>
      <point x="3.166666666666664" y="573.1904761904761"/>
      <point x="3.166666666666664" y="522.0" type="curve" smooth="yes"/>
      <point x="3.166666666666664" y="445.1666666666667"/>
      <point x="54.26190476190475" y="403.4285714285715"/>
      <point x="119.83333333333331" y="403.4285714285715" type="curve" smooth="yes"/>
      <point x="176.28571428571428" y="403.4285714285715"/>
      <point x="243.7619047619048" y="433.69047619047615"/>
      <point x="287.95238095238096" y="524.9761904761906" type="curve"/>
      <point x="246.1190476190476" y="525.6190476190477" type="line"/>
      <point x="263.6666666666667" y="510.26190476190476"/>
      <point x="279.76190476190476" y="486.71428571428567"/>
      <point x="279.76190476190476" y="452.26190476190476" type="curve" smooth="yes"/>
      <point x="279.76190476190476" y="381.19047619047615"/>
      <point x="211.95238095238096" y="350.6428571428571"/>
      <point x="91.54761904761905" y="349.7380952380952" type="curve"/>
      <point x="143.02380952380955" y="196.04761904761904" type="line"/>
      <point x="260.95238095238096" y="178.047619047619"/>
      <point x="357.42857142857144" y="116.88095238095238"/>
      <point x="421.2619047619047" y="14.26190476190476" type="curve"/>
    </contour>
  </outline>
</glyph>
<glyph name="ga-beng" format="2">
  <advance width="554.0238095238096"/>
  <unicode hex="0997"/>
  <anchor x="491.85714285714283" y="75.92857142857143" name="bottom"/>
  <anchor x="504.4047619047619" y="-19.92857142857143" name="bottom.rakaar"/>
  <anchor x="504.4047619047619" y="-3.0" name="bottom.rvocalic"/>
  <anchor x="458.7380952380953" y="9.095238095238095" name="bottom.virama"/>
  <anchor x="461.6428571428571" y="577.9285714285714" name="top"/>
  <anchor x="451.7380952380953" y="568.3809523809524" name="topright"/>
  <anchor x="276.78571428571433" y="0.0" name="vedic"/>
  <outline>
    <contour>
      <point x="494.7619047619048" y="-39.38095238095238" type="line"/>
      <point x="504.4047619047619" y="-36.833333333333336" type="line"/>
      <point x="504.4047619047619" y="542.3333333333334" type="line"/>
      <point x="587.2142857142858" y="542.3333333333334" type="line"/>
      <point x="544.8333333333333" y="622.0" type="line"/>
      <point x="493.2142857142857" y="622.0" type="line"/>
      <point x="484.11904761904765" y="681.9285714285714" type="line"/>
      <point x="415.90476190476187" y="719.0238095238096" type="line"/>
      <point x="407.8095238095238" y="715.4761904761905" type="line"/>
      <point x="407.8095238095238" y="589.0952380952381" type="line" smooth="yes"/>
      <point x="407.8095238095238" y="526.452380952381"/>
      <point x="412.35714285714283" y="462.88095238095235"/>
      <point x="415.80952380952385" y="428.35714285714283" type="curve"/>
      <point x="428.45238095238096" y="420.61904761904765" type="line"/>
      <point x="384.54761904761904" y="568.9047619047619"/>
      <point x="304.07142857142856" y="635.6428571428572"/>
      <point x="211.04761904761907" y="635.6428571428572" type="curve" smooth="yes"/>
      <point x="121.92857142857143" y="635.6428571428572"/>
      <point x="38.54761904761905" y="565.2619047619048"/>
      <point x="-7.73809523809524" y="425.26190476190476" type="curve"/>
      <point x="107.02380952380952" y="336.30952380952385" type="line"/>
      <point x="127.11904761904762" y="366.8571428571429"/>
      <point x="164.95238095238093" y="392.04761904761904"/>
      <point x="197.04761904761904" y="392.04761904761904" type="curve" smooth="yes"/>
      <point x="227.5952380952381" y="392.04761904761904"/>
      <point x="242.04761904761904" y="377.23809523809524"/>
      <point x="242.04761904761904" y="350.2380952380952" type="curve" smooth="yes"/>
      <point x="242.04761904761904" y="306.88095238095235"/>
      <point x="196.5" y="273.4285714285715"/>
      <point x="110.02380952380953" y="242.97619047619048" type="curve"/>
      <point x="185.14285714285714" y="114.9285714285714" type="line"/>
      <point x="313.7380952380952" y="171.3809523809524"/>
      <point x="348.19047619047615" y="250.95238095238093"/>
      <point x="348.19047619047615" y="333.7857142857143" type="curve" smooth="yes"/>
      <point x="348.19047619047615" y="410.52380952380946"/>
      <point x="303.0" y="469.7142857142858"/>
      <point x="227.61904761904765" y="469.7142857142858" type="curve" smooth="yes"/>
      <point x="185.8809523809524" y="469.7142857142858"/>
      <point x="154.88095238095238" y="455.1666666666667"/>
      <point x="130.14285714285717" y="432.07142857142856" type="curve"/>
      <point x="145.6904761904762" y="414.23809523809524" type="line"/>
      <point x="155.14285714285714" y="468.0238095238095"/>
      <point x="195.5952380952381" y="524.6904761904763"/>
      <point x="250.9761904761905" y="524.6904761904763" type="curve" smooth="yes"/>
      <point x="306.61904761904765" y="524.6904761904763"/>
      <point x="366.3571428571429" y="466.95238095238096"/>
      <point x="415.3571428571429" y="308.76190476190476" type="curve"/>
      <point x="404.71428571428567" y="397.4285714285714" type="line"/>
      <point x="404.71428571428567" y="-0.09523809523809534" type="line"/>
    </contour>
  </outline>
</glyph>
<glyph name="gha-beng" format="2">
  <advance width="478.0"/>
  <unicode hex="0998"/>
  <anchor x="423.92857142857144" y="35.642857142857146" name="bottom"/>
  <anchor x="426.57142857142856" y="94.11904761904762" name="bottom.rakaar"/>
  <anchor x="427.92857142857144" y="7.0" name="bottom.rvocalic"/>
  <anchor x="409.19047619047615" y="1.357142857142854" name="bottom.virama"/>
  <anchor x="392.80952380952374" y="587.9285714285714" name="top"/>
  <anchor x="393.80952380952385" y="571.547619047619" name="topright"/>
  <anchor x="238.5" y="0.0" name="vedic"/>
  <outline>
    <contour>
      <point x="417.83333333333337" y="-28.380952380952383" type="line"/>
      <point x="427.92857142857144" y="-25.833333333333336" type="line"/>
      <point x="427.92857142857144" y="542.3333333333334" type="line"/>
      <point x="510.7380952380952" y="542.3333333333334" type="line"/>
      <point x="468.3571428571429" y="622.0" type="line"/>
      <point x="-33.19047619047619" y="622.0" type="line"/>
      <point x="8.642857142857142" y="542.3333333333334" type="line"/>
      <point x="328.23809523809524" y="542.3333333333334" type="line"/>
      <point x="328.23809523809524" y="102.11904761904762" type="line"/>
      <point x="347.88095238095235" y="101.66666666666666" type="line"/>
      <point x="313.88095238095235" y="201.0"/>
      <point x="241.26190476190476" y="263.61904761904765"/>
      <point x="172.1904761904762" y="290.0714285714285" type="curve"/>
      <point x="168.54761904761904" y="269.26190476190476" type="line"/>
      <point x="207.16666666666669" y="298.33333333333337"/>
      <point x="261.07142857142856" y="328.1428571428571"/>
      <point x="314.07142857142856" y="354.5" type="curve"/>
      <point x="258.5952380952381" y="465.3571428571429" type="line"/>
      <point x="242.23809523809524" y="452.64285714285717"/>
      <point x="228.8809523809524" y="444.6428571428571"/>
      <point x="206.33333333333334" y="444.6428571428571" type="curve" smooth="yes"/>
      <point x="178.42857142857144" y="444.6428571428571"/>
      <point x="157.9761904761905" y="462.54761904761904"/>
      <point x="157.9761904761905" y="491.3571428571429" type="curve" smooth="yes"/>
      <point x="157.9761904761905" y="521.9761904761906"/>
      <point x="177.23809523809524" y="542.3333333333334"/>
      <point x="213.7619047619048" y="553.3333333333334" type="curve"/>
      <point x="82.59523809523809" y="591.8809523809524" type="line"/>
      <point x="40.6904761904762" y="576.1428571428572"/>
      <point x="12.80952380952381" y="544.1428571428572"/>
      <point x="12.80952380952381" y="496.71428571428567" type="curve" smooth="yes"/>
      <point x="12.80952380952381" y="419.4285714285714"/>
      <point x="81.28571428571428" y="393.16666666666663"/>
      <point x="134.73809523809524" y="390.26190476190476" type="curve"/>
      <point x="141.47619047619048" y="409.0" type="line"/>
      <point x="99.83333333333333" y="389.54761904761904"/>
      <point x="59.64285714285714" y="368.64285714285717"/>
      <point x="19.904761904761905" y="340.54761904761904" type="curve"/>
      <point x="88.47619047619047" y="191.95238095238096" type="line"/>
      <point x="191.47619047619048" y="171.2380952380952"/>
      <point x="287.1428571428572" y="115.5238095238095"/>
      <point x="350.07142857142856" y="12.904761904761903" type="curve"/>
    </contour>
  </outline>
</glyph>
<glyph name="nga-beng" format="2">
  <advance width="524.0"/>
  <unicode hex="0999"/>
  <anchor x="370.6190476190477" y="-4.214285714285714" name="bottom"/>
  <anchor x="483.3809523809524" y="-4.619047619047617" name="bottom.rakaar"/>
  <anchor x="390.71428571428567" y="-29.238095238095244" name="bottom.rvocalic"/>
  <anchor x="362.8095238095238" y="0.0" name="bottom.virama"/>
  <anchor x="325.9761904761905" y="586.9285714285714" name="top"/>
  <anchor x="326.2619047619048" y="571.547619047619" name="topright"/>
  <anchor x="261.5" y="0.0" name="vedic"/>
  <outline>
    <contour>
      <point x="316.1428571428571" y="-7.04761904761905" type="curve" smooth="yes"/>
      <point x="459.7380952380953" y="-7.04761904761905"/>
      <point x="517.1904761904761" y="104.9047619047619"/>
      <point x="517.1904761904761" y="249.7380952380952" type="curve" smooth="yes"/>
      <point x="517.1904761904761" y="340.4761904761905"/>
      <point x="473.26190476190476" y="414.76190476190476"/>
      <point x="442.00000000000006" y="454.4761904761905" type="curve"/>
      <point x="394.88095238095235" y="369.73809523809524"/>
      <point x="333.14285714285717" y="324.4761904761905"/>
      <point x="297.8809523809524" y="324.4761904761905" type="curve" smooth="yes"/>
      <point x="281.8809523809524" y="324.4761904761905"/>
      <point x="269.78571428571433" y="334.4761904761905"/>
      <point x="269.78571428571433" y="356.57142857142856" type="curve" smooth="yes"/>
      <point x="269.78571428571433" y="466.09523809523813" type="line" smooth="yes"/>
      <point x="269.78571428571433" y="520.6190476190476"/>
      <point x="283.7857142857143" y="557.4285714285714"/>
      <point x="314.23809523809524" y="557.4285714285714" type="curve" smooth="yes"/>
      <point x="331.5952380952381" y="557.4285714285714"/>
      <point x="342.50000000000006" y="545.0714285714287"/>
      <point x="342.50000000000006" y="520.7142857142857" type="curve" smooth="yes"/>
      <point x="342.50000000000006" y="493.7142857142858"/>
      <point x="323.8571428571429" y="468.8095238095238"/>
      <point x="288.5" y="468.8095238095238" type="curve" smooth="yes"/>
      <point x="212.40476190476193" y="468.8095238095238"/>
      <point x="179.21428571428572" y="517.3571428571429"/>
      <point x="135.47619047619048" y="626.1904761904763" type="curve"/>
      <point x="83.54761904761907" y="604.547619047619" type="line"/>
      <point x="130.83333333333334" y="481.1666666666667"/>
      <point x="182.66666666666669" y="390.88095238095235"/>
      <point x="294.1428571428571" y="390.88095238095235" type="curve" smooth="yes"/>
      <point x="374.23809523809524" y="390.88095238095235"/>
      <point x="421.2619047619048" y="446.7857142857143"/>
      <point x="421.26190476190476" y="514.8095238095237" type="curve" smooth="yes"/>
      <point x="421.26190476190476" y="582.452380952381"/>
      <point x="387.16666666666663" y="635.0952380952381"/>
      <point x="309.1428571428571" y="635.0952380952381" type="curve" smooth="yes"/>
      <point x="230.21428571428572" y="635.0952380952381"/>
      <point x="176.73809523809524" y="568.8095238095239"/>
      <point x="176.73809523809524" y="467.0714285714286" type="curve" smooth="yes"/>
      <point x="176.73809523809524" y="337.6428571428572" type="line" smooth="yes"/>
      <point x="176.73809523809524" y="288.26190476190476"/>
      <point x="197.3809523809524" y="255.07142857142856"/>
      <point x="217.57142857142856" y="234.88095238095235" type="curve" smooth="yes"/>
      <point x="242.76190476190476" y="209.2380952380952"/>
      <point x="273.95238095238096" y="199.69047619047618"/>
      <point x="308.23809523809524" y="199.69047619047618" type="curve" smooth="yes"/>
      <point x="371.0714285714286" y="199.69047619047618"/>
      <point x="448.09523809523813" y="253.88095238095238"/>
      <point x="471.547619047619" y="315.3333333333333" type="curve"/>
      <point x="421.9761904761905" y="334.45238095238096" type="line"/>
      <point x="436.5238095238095" y="308.3571428571429"/>
      <point x="448.6190476190476" y="276.80952380952385"/>
      <point x="448.6190476190476" y="246.45238095238093" type="curve" smooth="yes"/>
      <point x="448.6190476190476" y="174.2857142857143"/>
      <point x="396.9761904761905" y="128.19047619047618"/>
      <point x="310.14285714285717" y="128.19047619047618" type="curve" smooth="yes"/>
      <point x="178.2142857142857" y="128.19047619047618"/>
      <point x="122.76190476190476" y="229.0952380952381"/>
      <point x="71.57142857142857" y="494.5476190476191" type="curve"/>
      <point x="12.0" y="479.3571428571429" type="line"/>
      <point x="59.1904761904762" y="155.61904761904762"/>
      <point x="138.28571428571428" y="-7.04761904761905"/>
    </contour>
  </outline>
</glyph>
<glyph name="ca-beng" format="2">
  <advance width="443.2619047619048"/>
  <unicode hex="099A"/>
  <anchor x="312.42857142857144" y="-2.3095238095238138" name="bottom"/>
  <anchor x="389.1904761904762" y="0.0" name="bottom.rakaar"/>
  <anchor x="328.7142857142858" y="-5.761904761904763" name="bottom.rvocalic"/>
  <anchor x="246.50000000000006" y="23.166666666666664" name="bottom.virama"/>
  <anchor x="116.19047619047619" y="587.9285714285714" name="top"/>
  <anchor x="117.19047619047619" y="571.547619047619" name="topright"/>
  <anchor x="221.40476190476193" y="0.0" name="vedic"/>
  <outline>
    <contour>
      <point x="201.3095238095238" y="-3.8571428571428577" type="curve" smooth="yes"/>
      <point x="351.26190476190476" y="-3.8571428571428577"/>
      <point x="423.00000000000006" y="187.88095238095238"/>
      <point x="423.00000000000006" y="297.88095238095235" type="curve" smooth="yes"/>
      <point x="423.00000000000006" y="362.0"/>
      <point x="368.8809523809524" y="404.8333333333333"/>
      <point x="337.5952380952381" y="419.92857142857144" type="curve"/>
      <point x="265.85714285714283" y="422.73809523809524"/>
      <point x="192.95238095238096" y="455.547619047619"/>
      <point x="144.76190476190476" y="550.1666666666666" type="curve"/>
      <point x="142.76190476190476" y="464.33333333333326" type="line"/>
      <point x="171.30952380952382" y="370.69047619047626"/>
      <point x="237.85714285714286" y="299.40476190476187"/>
      <point x="340.2380952380952" y="293.04761904761904" type="curve"/>
      <point x="291.4761904761905" y="344.35714285714283" type="line"/>
      <point x="282.9285714285714" y="192.61904761904762"/>
      <point x="224.3809523809524" y="107.38095238095238"/>
      <point x="181.11904761904762" y="107.38095238095238" type="curve" smooth="yes"/>
      <point x="162.2142857142857" y="107.38095238095238"/>
      <point x="149.76190476190476" y="119.28571428571428"/>
      <point x="149.76190476190476" y="144.54761904761904" type="curve" smooth="yes"/>
      <point x="149.76190476190476" y="542.3333333333334" type="line"/>
      <point x="476.45238095238096" y="542.3333333333334" type="line"/>
      <point x="435.61904761904765" y="622.0" type="line"/>
      <point x="-33.19047619047619" y="622.0" type="line"/>
      <point x="10.642857142857142" y="542.3333333333334" type="line"/>
      <point x="50.07142857142857" y="542.3333333333334" type="line"/>
      <point x="50.07142857142857" y="136.35714285714286" type="line" smooth="yes"/>
      <point x="50.07142857142857" y="49.976190476190474"/>
      <point x="124.2857142857143" y="-3.8571428571428577"/>
    </contour>
  </outline>
</glyph>
<glyph name="cha-beng" format="2">
  <advance width="499.73809523809524"/>
  <unicode hex="099B"/>
  <anchor x="301.9761904761905" y="-1.7857142857142954" name="bottom"/>
  <anchor x="414.0" y="-140.04761904761907" name="bottom.rakaar"/>
  <anchor x="383.7380952380952" y="-16.166666666666675" name="bottom.rvocalic"/>
  <anchor x="298.6190476190476" y="-6.428571428571432" name="bottom.virama"/>
  <anchor x="104.02380952380952" y="587.9285714285714" name="top"/>
  <anchor x="105.02380952380952" y="571.547619047619" name="topright"/>
  <anchor x="249.5952380952381" y="0.0" name="vedic"/>
  <outline>
    <contour>
      <point x="471.64285714285717" y="-159.35714285714286" type="curve"/>
      <point x="510.4761904761904" y="-115.61904761904762" type="line"/>
      <point x="419.90476190476187" y="-12.04761904761905"/>
      <point x="308.23809523809524" y="82.5"/>
      <point x="201.66666666666666" y="109.49999999999999" type="curve"/>
      <point x="163.11904761904762" y="73.11904761904762" type="line"/>
      <point x="177.57142857142856" y="62.57142857142857"/>
      <point x="203.66666666666663" y="59.02380952380952"/>
      <point x="230.76190476190482" y="59.02380952380952" type="curve" smooth="yes"/>
      <point x="384.92857142857144" y="59.02380952380952"/>
      <point x="479.8571428571429" y="146.23809523809524"/>
      <point x="479.8571428571429" y="280.6904761904762" type="curve" smooth="yes"/>
      <point x="479.8571428571429" y="419.5476190476191"/>
      <point x="378.45238095238096" y="487.9047619047619"/>
      <point x="265.14285714285717" y="487.9047619047619" type="curve" smooth="yes"/>
      <point x="213.33333333333331" y="487.9047619047619"/>
      <point x="151.3095238095238" y="504.35714285714283"/>
      <point x="129.4047619047619" y="543.8809523809524" type="curve"/>
      <point x="125.4047619047619" y="493.69047619047615" type="line"/>
      <point x="151.5" y="433.14285714285717"/>
      <point x="203.14285714285714" y="407.9761904761905"/>
      <point x="237.8571428571429" y="399.7857142857143" type="curve"/>
      <point x="214.76190476190476" y="446.1666666666667" type="line"/>
      <point x="208.66666666666669" y="366.0"/>
      <point x="184.76190476190476" y="302.904761904762"/>
      <point x="155.76190476190476" y="302.904761904762" type="curve" smooth="yes"/>
      <point x="143.4047619047619" y="302.904761904762"/>
      <point x="134.95238095238096" y="311.80952380952385"/>
      <point x="134.95238095238096" y="327.61904761904765" type="curve" smooth="yes"/>
      <point x="134.95238095238096" y="542.3333333333334" type="line"/>
      <point x="532.9285714285714" y="542.3333333333334" type="line"/>
      <point x="488.54761904761904" y="622.0" type="line"/>
      <point x="-33.19047619047619" y="622.0" type="line"/>
      <point x="8.642857142857142" y="542.3333333333334" type="line"/>
      <point x="38.80952380952381" y="542.3333333333334" type="line"/>
      <point x="38.80952380952381" y="326.0714285714286" type="line" smooth="yes"/>
      <point x="38.80952380952381" y="262.7857142857143"/>
      <point x="102.47619047619048" y="208.14285714285714"/>
      <point x="179.5" y="208.14285714285714" type="curve" smooth="yes"/>
      <point x="269.35714285714283" y="208.14285714285714"/>
      <point x="324.4523809523809" y="277.97619047619054"/>
      <point x="336.90476190476187" y="435.2380952380952" type="curve"/>
      <point x="295.07142857142856" y="408.23809523809524" type="line"/>
      <point x="338.26190476190476" y="408.23809523809524"/>
      <point x="376.1666666666667" y="379.69047619047626"/>
      <point x="376.1666666666667" y="304.9761904761905" type="curve" smooth="yes"/>
      <point x="376.1666666666667" y="207.42857142857144"/>
      <point x="302.23809523809524" y="168.97619047619048"/>
      <point x="204.3095238095238" y="168.97619047619048" type="curve" smooth="yes"/>
      <point x="147.47619047619048" y="168.97619047619048"/>
      <point x="102.28571428571429" y="182.07142857142858"/>
      <point x="63.45238095238095" y="209.35714285714286" type="curve"/>
      <point x="96.73809523809524" y="44.64285714285714" type="line"/>
      <point x="203.73809523809524" y="17.095238095238088"/>
      <point x="322.69047619047626" y="-26.619047619047628"/>
    </contour>
  </outline>
</glyph>
<glyph name="ja-beng" format="2">
  <advance width="724.9761904761906"/>
  <unicode hex="099C"/>
  <anchor x="645.6904761904763" y="55.23809523809524" name="bottom"/>
  <anchor x="656.6904761904761" y="53.61904761904762" name="bottom.rakaar"/>
  <anchor x="658.2380952380952" y="-46.52380952380953" name="bottom.rvocalic"/>
  <anchor x="643.6904761904763" y="-36.40476190476191" name="bottom.virama"/>
  <anchor x="389.16666666666663" y="586.9285714285714" name="top"/>
  <anchor x="390.1666666666667" y="571.547619047619" name="topright"/>
  <anchor x="362.2619047619048" y="0.0" name="vedic"/>
  <outline>
    <contour>
      <point x="314.9761904761905" y="-32.73809523809524" type="curve" smooth="yes"/>
      <point x="447.19047619047615" y="-32.73809523809524"/>
      <point x="501.47619047619054" y="64.64285714285714"/>
      <point x="501.47619047619054" y="196.2142857142857" type="curve" smooth="yes"/>
      <point x="501.47619047619054" y="298.9761904761905"/>
      <point x="450.2619047619048" y="374.90476190476187"/>
      <point x="416.0" y="414.1666666666667" type="curve"/>
      <point x="368.78571428571433" y="352.6190476190476"/>
      <point x="331.7857142857142" y="320.26190476190476"/>
      <point x="304.07142857142856" y="320.26190476190476" type="curve" smooth="yes"/>
      <point x="282.26190476190476" y="320.26190476190476"/>
      <point x="265.3571428571429" y="336.6190476190476"/>
      <point x="265.3571428571429" y="366.88095238095235" type="curve" smooth="yes"/>
      <point x="265.3571428571429" y="423.5952380952381"/>
      <point x="354.2857142857143" y="498.8809523809524"/>
      <point x="445.47619047619054" y="542.3333333333334" type="curve"/>
      <point x="758.1666666666667" y="542.3333333333334" type="line"/>
      <point x="716.8809523809525" y="622.0" type="line"/>
      <point x="-33.19047619047619" y="622.0" type="line"/>
      <point x="8.642857142857142" y="542.3333333333334" type="line"/>
      <point x="312.07142857142856" y="542.3333333333334" type="line"/>
      <point x="279.95238095238096" y="580.452380952381" type="line"/>
      <point x="246.52380952380955" y="556.8333333333334"/>
      <point x="160.66666666666666" y="478.0952380952381"/>
      <point x="160.66666666666666" y="374.69047619047626" type="curve" smooth="yes"/>
      <point x="160.66666666666666" y="266.76190476190476"/>
      <point x="235.6904761904762" y="192.47619047619045"/>
      <point x="312.5238095238096" y="192.47619047619045" type="curve" smooth="yes"/>
      <point x="365.5238095238095" y="192.47619047619045"/>
      <point x="421.3571428571429" y="230.38095238095238"/>
      <point x="463.73809523809524" y="296.66666666666674" type="curve"/>
      <point x="408.26190476190476" y="300.49999999999994" type="line"/>
      <point x="424.35714285714283" y="275.85714285714283"/>
      <point x="436.45238095238096" y="246.30952380952382"/>
      <point x="436.45238095238096" y="213.4047619047619" type="curve" smooth="yes"/>
      <point x="436.45238095238096" y="148.5952380952381"/>
      <point x="388.61904761904765" y="105.59523809523807"/>
      <point x="312.9761904761904" y="105.59523809523807" type="curve" smooth="yes"/>
      <point x="187.40476190476193" y="105.59523809523807"/>
      <point x="111.21428571428571" y="215.78571428571428"/>
      <point x="76.02380952380953" y="477.80952380952385" type="curve"/>
      <point x="12.452380952380954" y="466.1666666666667" type="line"/>
      <point x="49.54761904761904" y="118.92857142857143"/>
      <point x="144.3809523809524" y="-32.73809523809524"/>
    </contour>
    <contour>
      <point x="604.8571428571429" y="-78.26190476190479" type="curve"/>
      <point x="658.2380952380952" y="-57.52380952380953" type="line"/>
      <point x="636.1428571428572" y="19.4047619047619"/>
      <point x="630.6904761904763" y="65.57142857142857"/>
      <point x="630.6904761904763" y="129.11904761904762" type="curve" smooth="yes"/>
      <point x="630.6904761904763" y="226.04761904761904"/>
      <point x="659.5238095238096" y="311.6904761904762"/>
      <point x="707.1666666666666" y="373.9761904761905" type="curve"/>
      <point x="636.4047619047619" y="470.64285714285717" type="line"/>
      <point x="529.4761904761906" y="456.7142857142857"/>
      <point x="465.73809523809524" y="499.547619047619"/>
      <point x="438.8333333333333" y="581.5238095238095" type="curve"/>
      <point x="387.3571428571429" y="544.0714285714286" type="line"/>
      <point x="417.7142857142858" y="408.50000000000006"/>
      <point x="520.3809523809524" y="352.7619047619048"/>
      <point x="604.7619047619048" y="340.30952380952385" type="curve"/>
      <point x="581.4761904761905" y="391.88095238095235" type="line"/>
      <point x="552.8333333333333" y="321.6904761904762"/>
      <point x="541.2857142857142" y="258.23809523809524"/>
      <point x="541.2857142857142" y="175.95238095238096" type="curve" smooth="yes"/>
      <point x="541.2857142857142" y="72.28571428571428"/>
      <point x="572.6666666666667" y="-10.357142857142858"/>
    </contour>
  </outline>
</glyph>
<glyph name="jha-beng" format="2">
  <advance width="606.9285714285716"/>
  <unicode hex="099D"/>
  <anchor x="402.9047619047619" y="35.642857142857146" name="bottom"/>
  <anchor x="405.54761904761904" y="94.11904761904763" name="bottom.rakaar"/>
  <anchor x="406.9047619047619" y="7.000000000000001" name="bottom.rvocalic"/>
  <anchor x="388.16666666666663" y="25.476190476190478" name="bottom.virama"/>
  <anchor x="371.78571428571433" y="587.9285714285714" name="top"/>
  <anchor x="419.8809523809524" y="587.9285714285714" name="topleft"/>
  <anchor x="372.7857142857142" y="571.547619047619" name="topright"/>
  <anchor x="303.2380952380953" y="0.0" name="vedic"/>
  <outline>
    <contour>
      <point x="396.8095238095238" y="-28.380952380952383" type="line"/>
      <point x="406.9047619047619" y="-25.833333333333336" type="line"/>
      <point x="406.9047619047619" y="622.0" type="line"/>
      <point x="-33.19047619047619" y="622.0" type="line"/>
      <point x="8.642857142857142" y="542.3333333333334" type="line"/>
      <point x="307.2142857142857" y="542.3333333333334" type="line"/>
      <point x="307.2142857142857" y="456.95238095238096" type="line"/>
      <point x="318.85714285714283" y="515.3571428571429" type="line"/>
      <point x="206.47619047619048" y="477.64285714285717"/>
      <point x="78.88095238095237" y="412.90476190476187"/>
      <point x="-3.4761904761904785" y="349.1904761904762" type="curve"/>
      <point x="67.45238095238096" y="188.85714285714286" type="line"/>
      <point x="170.0" y="168.14285714285714"/>
      <point x="266.11904761904765" y="115.52380952380952"/>
      <point x="329.04761904761904" y="12.904761904761907" type="curve"/>
    </contour>
    <contour>
      <point x="307.2142857142857" y="102.11904761904762" type="line"/>
      <point x="326.85714285714283" y="101.66666666666666" type="line"/>
      <point x="292.8571428571429" y="201.0"/>
      <point x="220.23809523809524" y="260.07142857142856"/>
      <point x="151.16666666666669" y="286.9761904761905" type="curve"/>
      <point x="154.07142857142858" y="266.33333333333337" type="line"/>
      <point x="202.33333333333331" y="307.8571428571429"/>
      <point x="274.23809523809524" y="340.6666666666667"/>
      <point x="325.49999999999994" y="360.8333333333333" type="curve"/>
      <point x="307.2142857142857" y="410.49999999999994" type="line"/>
    </contour>
    <contour>
      <point x="547.2142857142857" y="48.04761904761905" type="line"/>
      <point x="557.3095238095239" y="50.595238095238095" type="line"/>
      <point x="557.3095238095239" y="542.3333333333334" type="line"/>
      <point x="640.1190476190477" y="542.3333333333334" type="line"/>
      <point x="597.7380952380953" y="622.0" type="line"/>
      <point x="546.1190476190476" y="622.0" type="line"/>
      <point x="537.0238095238095" y="681.9285714285714" type="line"/>
      <point x="468.80952380952385" y="719.0238095238096" type="line"/>
      <point x="460.71428571428567" y="715.4761904761905" type="line"/>
      <point x="460.71428571428567" y="179.0" type="line"/>
      <point x="480.3571428571428" y="178.0952380952381" type="line"/>
      <point x="457.26190476190465" y="244.90476190476195"/>
      <point x="416.1666666666667" y="292.71428571428567"/>
      <point x="370.1666666666667" y="325.5238095238095" type="curve"/>
      <point x="357.42857142857144" y="213.11904761904762" type="line"/>
      <point x="406.0714285714286" y="184.3095238095238"/>
      <point x="449.3571428571429" y="144.04761904761904"/>
      <point x="482.54761904761904" y="89.33333333333333" type="curve"/>
    </contour>
  </outline>
</glyph>
<glyph name="nya-beng" format="2">
  <advance width="816.4999999999999"/>
  <unicode hex="099E"/>
  <anchor x="522.9285714285714" y="28.452380952380953" name="bottom"/>
  <anchor x="526.0238095238095" y="86.92857142857143" name="bottom.rakaar"/>
  <anchor x="526.9285714285714" y="-0.19047619047619113" name="bottom.rvocalic"/>
  <anchor x="508.19047619047626" y="10.095238095238095" name="bottom.virama"/>
  <anchor x="406.14285714285717" y="586.9285714285714" name="top"/>
  <anchor x="406.14285714285717" y="571.547619047619" name="topright"/>
  <anchor x="407.9761904761904" y="0.0" name="vedic"/>
  <outline>
    <contour>
      <point x="658.7619047619047" y="20.785714285714285" type="curve" smooth="yes"/>
      <point x="744.7857142857143" y="20.785714285714285"/>
      <point x="785.4285714285716" y="91.88095238095238"/>
      <point x="785.4285714285716" y="174.7857142857143" type="curve" smooth="yes"/>
      <point x="785.4285714285716" y="230.42857142857142"/>
      <point x="766.3333333333333" y="291.16666666666663"/>
      <point x="717.952380952381" y="332.26190476190476" type="curve"/>
      <point x="738.2380952380952" y="282.5238095238095" type="line"/>
      <point x="762.2380952380952" y="310.97619047619054"/>
      <point x="784.9761904761905" y="362.8809523809524"/>
      <point x="784.9761904761905" y="432.8095238095238" type="curve" smooth="yes"/>
      <point x="784.9761904761905" y="526.0952380952381"/>
      <point x="739.6904761904763" y="599.7380952380952"/>
      <point x="665.7619047619047" y="599.7380952380952" type="curve" smooth="yes"/>
      <point x="558.0952380952381" y="599.7380952380952"/>
      <point x="502.6428571428572" y="453.0952380952381"/>
      <point x="495.0952380952382" y="365.26190476190476" type="curve"/>
      <point x="495.0952380952382" y="258.1666666666667" type="line"/>
      <point x="511.1904761904762" y="130.33333333333331"/>
      <point x="565.6428571428571" y="20.785714285714285"/>
    </contour>
    <contour>
      <point x="648.5714285714284" y="142.28571428571428" type="curve" smooth="yes"/>
      <point x="589.4761904761905" y="142.28571428571428"/>
      <point x="533.3809523809524" y="213.9047619047619"/>
      <point x="533.3809523809524" y="306.26190476190476" type="curve" smooth="yes"/>
      <point x="533.3809523809524" y="393.3571428571429"/>
      <point x="586.0238095238096" y="489.8809523809524"/>
      <point x="657.6666666666666" y="489.8809523809524" type="curve" smooth="yes"/>
      <point x="680.0238095238095" y="489.8809523809524"/>
      <point x="697.4761904761905" y="472.9761904761905"/>
      <point x="697.4761904761905" y="440.61904761904765" type="curve" smooth="yes"/>
      <point x="697.4761904761905" y="408.547619047619"/>
      <point x="668.2857142857143" y="374.54761904761904"/>
      <point x="638.7380952380953" y="359.0952380952381" type="curve"/>
      <point x="693.6666666666667" y="350.6428571428571" type="line"/>
      <point x="677.1190476190476" y="371.90476190476187"/>
      <point x="659.6666666666666" y="390.64285714285717"/>
      <point x="626.3809523809523" y="390.64285714285717" type="curve" smooth="yes"/>
      <point x="585.0952380952381" y="390.64285714285717"/>
      <point x="559.0000000000001" y="356.45238095238096"/>
      <point x="559.0000000000001" y="307.7142857142857" type="curve" smooth="yes"/>
      <point x="559.0000000000001" y="255.52380952380958"/>
      <point x="589.6428571428571" y="224.33333333333334"/>
      <point x="631.3809523809523" y="224.33333333333334" type="curve" smooth="yes"/>
      <point x="668.1190476190476" y="224.33333333333334"/>
      <point x="695.7619047619048" y="241.33333333333337"/>
      <point x="719.952380952381" y="270.88095238095235" type="curve"/>
      <point x="672.4761904761905" y="299.26190476190476" type="line"/>
      <point x="687.4761904761905" y="280.7142857142857"/>
      <point x="711.1190476190477" y="255.9047619047619"/>
      <point x="711.1190476190477" y="215.90476190476187" type="curve" smooth="yes"/>
      <point x="711.1190476190477" y="168.09523809523807"/>
      <point x="686.5714285714286" y="142.28571428571428"/>
    </contour>
    <component base="e-beng"/>
  </outline>
</glyph>
<glyph name="tta-beng" format="2">
  <advance width="467.547619047619"/>
  <unicode hex="099F"/>
  <anchor x="314.23809523809524" y="-2.3095238095238138" name="bottom"/>
  <anchor x="391.0" y="0.0" name="bottom.rakaar"/>
  <anchor x="330.5238095238095" y="-5.761904761904763" name="bottom.rvocalic"/>
  <anchor x="248.30952380952385" y="23.166666666666664" name="bottom.virama"/>
  <anchor x="228.21428571428572" y="658.3809523809524" name="top"/>
  <anchor x="171.38095238095238" y="634.7142857142857" name="topright"/>
  <anchor x="233.49999999999997" y="0.0" name="vedic"/>
  <anchor x="204.21428571428572" y="-111.5" name="nukta"/>
  <outline>
    <contour>
      <point x="347.61904761904765" y="592.5238095238095" type="curve"/>
      <point x="407.64285714285717" y="592.5238095238095" type="line"/>
      <point x="402.54761904761904" y="751.8333333333334"/>
      <point x="349.61904761904765" y="818.4761904761906"/>
      <point x="257.6904761904762" y="818.4761904761906" type="curve" smooth="yes"/>
      <point x="208.85714285714286" y="818.4761904761906"/>
      <point x="175.11904761904762" y="807.9285714285716"/>
      <point x="126.83333333333333" y="807.9285714285716" type="curve" smooth="yes"/>
      <point x="64.35714285714286" y="807.9285714285716"/>
      <point x="38.35714285714286" y="834.2142857142857"/>
      <point x="38.35714285714286" y="890.4761904761905" type="curve" smooth="yes"/>
      <point x="38.35714285714286" y="902.9285714285716"/>
      <point x="39.35714285714286" y="917.9285714285714"/>
      <point x="41.357142857142854" y="931.4761904761905" type="curve"/>
      <point x="-9.023809523809526" y="938.0238095238095" type="line"/>
      <point x="-14.571428571428573" y="912.9285714285714"/>
      <point x="-17.11904761904762" y="883.7380952380953"/>
      <point x="-17.11904761904762" y="858.0" type="curve" smooth="yes"/>
      <point x="-17.11904761904762" y="756.9047619047618"/>
      <point x="32.261904761904766" y="689.4285714285714"/>
      <point x="135.47619047619048" y="689.4285714285714" type="curve" smooth="yes"/>
      <point x="193.21428571428572" y="689.4285714285714"/>
      <point x="228.14285714285722" y="699.9761904761904"/>
      <point x="266.14285714285717" y="699.9761904761904" type="curve" smooth="yes"/>
      <point x="311.33333333333337" y="699.9761904761904"/>
      <point x="342.5238095238095" y="679.2619047619048"/>
    </contour>
    <component base="ddha-beng"/>
  </outline>
</glyph>
<glyph name="ttha-beng" format="2">
  <advance width="499.21428571428567"/>
  <unicode hex="09A0"/>
  <anchor x="304.7142857142858" y="-40.50000000000001" name="bottom"/>
  <anchor x="466.88095238095235" y="-26.26190476190476" name="bottom.rakaar"/>
  <anchor x="361.7380952380953" y="-46.142857142857146" name="bottom.rvocalic"/>
  <anchor x="290.2380952380952" y="-16.380952380952383" name="bottom.virama"/>
  <anchor x="408.2857142857143" y="566.9285714285714" name="top"/>
  <anchor x="408.2857142857143" y="579.1428571428571" name="topleft"/>
  <anchor x="311.45238095238096" y="571.547619047619" name="topright"/>
  <anchor x="249.33333333333334" y="0.0" name="vedic"/>
  <outline>
    <contour>
      <point x="263.7142857142857" y="-42.69047619047619" type="curve" smooth="yes"/>
      <point x="382.7380952380952" y="-42.69047619047619"/>
      <point x="459.6666666666667" y="35.95238095238095"/>
      <point x="459.6666666666667" y="175.23809523809524" type="curve" smooth="yes"/>
      <point x="459.6666666666667" y="318.4523809523809"/>
      <point x="371.90476190476187" y="437.71428571428567"/>
      <point x="287.1666666666667" y="542.3333333333334" type="curve"/>
      <point x="532.4047619047619" y="542.3333333333334" type="line"/>
      <point x="490.0238095238095" y="622.0" type="line"/>
      <point x="228.23809523809524" y="622.0" type="line"/>
      <point x="195.5952380952381" y="657.452380952381"/>
      <point x="183.33333333333331" y="689.7142857142857"/>
      <point x="183.33333333333331" y="720.9761904761905" type="curve" smooth="yes"/>
      <point x="183.33333333333331" y="757.9761904761905"/>
      <point x="210.97619047619048" y="795.7142857142858"/>
      <point x="249.07142857142853" y="818.5238095238095" type="curve"/>
      <point x="152.57142857142858" y="896.9047619047619" type="line"/>
      <point x="97.83333333333333" y="863.0952380952381"/>
      <point x="65.0" y="810.8095238095239"/>
      <point x="65.0" y="761.6190476190476" type="curve" smooth="yes"/>
      <point x="65.0" y="700.1666666666666"/>
      <point x="98.54761904761907" y="664.452380952381"/>
      <point x="142.38095238095238" y="622.0" type="curve"/>
      <point x="-33.19047619047619" y="622.0" type="line"/>
      <point x="8.642857142857142" y="542.3333333333334" type="line"/>
      <point x="191.04761904761904" y="542.3333333333334" type="line"/>
      <point x="197.5" y="518.0714285714286"/>
      <point x="201.40476190476187" y="494.9047619047619"/>
      <point x="201.40476190476187" y="457.54761904761904" type="curve" smooth="yes"/>
      <point x="201.40476190476187" y="345.54761904761904"/>
      <point x="124.64285714285715" y="264.9047619047619"/>
      <point x="19.54761904761905" y="239.54761904761904" type="curve"/>
      <point x="25.357142857142854" y="81.19047619047618"/>
      <point x="107.64285714285714" y="-42.69047619047619"/>
    </contour>
    <contour>
      <point x="235.6904761904762" y="57.8095238095238" type="curve" smooth="yes"/>
      <point x="183.14285714285714" y="57.8095238095238"/>
      <point x="153.8809523809524" y="106.26190476190477"/>
      <point x="152.42857142857144" y="161.14285714285714" type="curve"/>
      <point x="140.88095238095238" y="129.5952380952381" type="line"/>
      <point x="229.88095238095238" y="161.04761904761904"/>
      <point x="281.6190476190476" y="238.3095238095238"/>
      <point x="281.6190476190476" y="350.6904761904762" type="curve" smooth="yes"/>
      <point x="281.6190476190476" y="422.40476190476187"/>
      <point x="267.7142857142857" y="487.5"/>
      <point x="230.33333333333334" y="546.047619047619" type="curve"/>
      <point x="217.69047619047618" y="545.5" type="line"/>
      <point x="300.8809523809524" y="442.6190476190476"/>
      <point x="334.3333333333333" y="335.0"/>
      <point x="334.3333333333333" y="219.45238095238096" type="curve" smooth="yes"/>
      <point x="334.3333333333333" y="111.26190476190476"/>
      <point x="292.23809523809524" y="57.8095238095238"/>
    </contour>
  </outline>
</glyph>
<glyph name="dda-beng" format="2">
  <advance width="532.2857142857142"/>
  <unicode hex="09A1"/>
  <anchor x="395.09523809523813" y="-14.690476190476197" name="bottom"/>
  <anchor x="483.11904761904765" y="-10.095238095238095" name="bottom.rakaar"/>
  <anchor x="399.6428571428571" y="-14.523809523809533" name="bottom.rvocalic"/>
  <anchor x="362.00000000000006" y="-6.476190476190478" name="bottom.virama"/>
  <anchor x="288.88095238095235" y="-126.61904761904762" name="nukta"/>
  <anchor x="248.5952380952381" y="587.9285714285714" name="top"/>
  <anchor x="249.04761904761907" y="571.547619047619" name="topright"/>
  <anchor x="266.1428571428571" y="0.0" name="vedic"/>
  <outline>
    <contour>
      <point x="308.2380952380952" y="-12.523809523809529" type="curve" smooth="yes"/>
      <point x="449.54761904761904" y="-12.523809523809529"/>
      <point x="520.4761904761906" y="87.66666666666666"/>
      <point x="520.4761904761906" y="234.33333333333334" type="curve" smooth="yes"/>
      <point x="520.4761904761906" y="345.16666666666663"/>
      <point x="478.83333333333326" y="422.4523809523809"/>
      <point x="427.6428571428572" y="473.6428571428571" type="curve"/>
      <point x="381.61904761904765" y="388.61904761904765"/>
      <point x="339.71428571428567" y="348.90476190476187"/>
      <point x="309.26190476190476" y="348.90476190476187" type="curve" smooth="yes"/>
      <point x="296.80952380952385" y="348.90476190476187"/>
      <point x="281.61904761904765" y="355.8095238095238"/>
      <point x="281.61904761904765" y="380.0" type="curve" smooth="yes"/>
      <point x="281.61904761904765" y="542.3333333333334" type="line"/>
      <point x="565.4761904761904" y="542.3333333333334" type="line"/>
      <point x="521.6428571428571" y="622.0" type="line"/>
      <point x="-33.19047619047619" y="622.0" type="line"/>
      <point x="10.19047619047619" y="542.3333333333334" type="line"/>
      <point x="181.92857142857144" y="542.3333333333334" type="line"/>
      <point x="181.92857142857144" y="374.9047619047619" type="line" smooth="yes"/>
      <point x="181.92857142857144" y="324.42857142857144"/>
      <point x="193.57142857142858" y="289.14285714285717"/>
      <point x="219.76190476190482" y="261.40476190476187" type="curve" smooth="yes"/>
      <point x="246.5" y="233.11904761904762"/>
      <point x="275.6904761904762" y="219.4761904761905"/>
      <point x="318.16666666666663" y="219.4761904761905" type="curve" smooth="yes"/>
      <point x="376.9047619047619" y="219.4761904761905"/>
      <point x="439.19047619047615" y="267.0238095238095"/>
      <point x="472.7380952380952" y="342.76190476190476" type="curve"/>
      <point x="419.9047619047619" y="330.59523809523813" type="line"/>
      <point x="436.9047619047619" y="310.50000000000006"/>
      <point x="448.3571428571429" y="281.5"/>
      <point x="448.3571428571429" y="250.2380952380952" type="curve" smooth="yes"/>
      <point x="448.3571428571429" y="172.97619047619045"/>
      <point x="394.61904761904765" y="126.26190476190476"/>
      <point x="310.33333333333337" y="126.26190476190476" type="curve" smooth="yes"/>
      <point x="163.66666666666669" y="126.26190476190476"/>
      <point x="101.47619047619048" y="253.19047619047618"/>
      <point x="69.02380952380953" y="477.26190476190476" type="curve"/>
      <point x="6.452380952380954" y="465.61904761904765" type="line"/>
      <point x="39.904761904761905" y="149.33333333333334"/>
      <point x="121.45238095238096" y="-12.523809523809529"/>
    </contour>
  </outline>
</glyph>
<glyph name="ddha-beng" format="2">
  <advance width="467.547619047619"/>
  <unicode hex="09A2"/>
  <anchor x="314.23809523809524" y="-2.3095238095238138" name="bottom"/>
  <anchor x="391.0" y="0.0" name="bottom.rakaar"/>
  <anchor x="330.5238095238095" y="-5.761904761904765" name="bottom.rvocalic"/>
  <anchor x="248.30952380952385" y="23.166666666666664" name="bottom.virama"/>
  <anchor x="204.21428571428572" y="-111.5" name="nukta"/>
  <anchor x="118.0" y="587.9285714285714" name="top"/>
  <anchor x="119.0" y="571.547619047619" name="topright"/>
  <anchor x="233.49999999999997" y="0.0" name="vedic"/>
  <outline>
    <contour>
      <point x="201.76190476190473" y="-3.8571428571428603" type="curve" smooth="yes"/>
      <point x="341.6190476190476" y="-3.8571428571428603"/>
      <point x="439.64285714285717" y="163.85714285714283"/>
      <point x="439.64285714285717" y="312.5238095238095" type="curve" smooth="yes"/>
      <point x="439.64285714285717" y="415.35714285714283"/>
      <point x="382.7142857142857" y="461.6428571428571"/>
      <point x="321.7857142857143" y="461.6428571428571" type="curve" smooth="yes"/>
      <point x="257.40476190476187" y="461.6428571428571"/>
      <point x="215.02380952380955" y="417.0"/>
      <point x="215.02380952380955" y="354.5238095238095" type="curve" smooth="yes"/>
      <point x="215.02380952380955" y="295.14285714285717"/>
      <point x="247.66666666666674" y="253.5"/>
      <point x="305.49999999999994" y="253.5" type="curve" smooth="yes"/>
      <point x="322.9523809523809" y="253.5"/>
      <point x="346.14285714285717" y="266.49999999999994"/>
      <point x="364.33333333333337" y="289.6904761904762" type="curve"/>
      <point x="309.1190476190476" y="326.5238095238095" type="line"/>
      <point x="300.4761904761905" y="189.6904761904762"/>
      <point x="222.19047619047615" y="107.38095238095238"/>
      <point x="181.11904761904762" y="107.38095238095238" type="curve" smooth="yes"/>
      <point x="161.76190476190476" y="107.38095238095238"/>
      <point x="149.76190476190476" y="119.73809523809524"/>
      <point x="149.76190476190476" y="145.0" type="curve" smooth="yes"/>
      <point x="149.76190476190476" y="542.3333333333334" type="line"/>
      <point x="500.73809523809524" y="542.3333333333334" type="line"/>
      <point x="460.90476190476187" y="622.0" type="line"/>
      <point x="-33.19047619047619" y="622.0" type="line"/>
      <point x="10.642857142857142" y="542.3333333333334" type="line"/>
      <point x="50.07142857142857" y="542.3333333333334" type="line"/>
      <point x="50.07142857142857" y="136.80952380952382" type="line" smooth="yes"/>
      <point x="50.07142857142857" y="49.97619047619047"/>
      <point x="124.73809523809526" y="-3.8571428571428603"/>
    </contour>
  </outline>
</glyph>
<glyph name="nna-beng" format="2">
  <advance width="541.1190476190476"/>
  <unicode hex="09A3"/>
  <anchor x="478.50000000000006" y="75.92857142857143" name="bottom"/>
  <anchor x="491.04761904761904" y="-19.92857142857143" name="bottom.rakaar"/>
  <anchor x="491.04761904761904" y="-3.0" name="bottom.rvocalic"/>
  <anchor x="445.3809523809523" y="9.095238095238095" name="bottom.virama"/>
  <anchor x="448.7380952380952" y="577.9285714285714" name="top"/>
  <anchor x="438.3809523809523" y="568.3809523809524" name="topright"/>
  <anchor x="270.3333333333333" y="0.0" name="vedic"/>
  <outline>
    <contour>
      <point x="481.4047619047619" y="-39.38095238095238" type="line"/>
      <point x="491.04761904761904" y="-36.833333333333336" type="line"/>
      <point x="491.04761904761904" y="542.3333333333334" type="line"/>
      <point x="574.3095238095237" y="542.3333333333334" type="line"/>
      <point x="531.4761904761905" y="622.0" type="line"/>
      <point x="479.8571428571429" y="622.0" type="line"/>
      <point x="470.7619047619048" y="681.9285714285714" type="line"/>
      <point x="403.0" y="719.0238095238096" type="line"/>
      <point x="394.9047619047619" y="715.4761904761905" type="line"/>
      <point x="394.9047619047619" y="575.4761904761905" type="line" smooth="yes"/>
      <point x="394.9047619047619" y="512.8333333333334"/>
      <point x="399.0" y="425.14285714285717"/>
      <point x="402.45238095238096" y="390.61904761904765" type="curve"/>
      <point x="412.0" y="391.5238095238095" type="line"/>
      <point x="373.2857142857143" y="536.952380952381"/>
      <point x="299.54761904761904" y="630.0952380952381"/>
      <point x="195.04761904761904" y="630.0952380952381" type="curve" smooth="yes"/>
      <point x="106.76190476190476" y="630.0952380952381"/>
      <point x="29.09523809523809" y="560.0"/>
      <point x="29.09523809523809" y="428.23809523809524" type="curve" smooth="yes"/>
      <point x="29.09523809523809" y="278.47619047619054"/>
      <point x="131.30952380952382" y="208.83333333333331"/>
      <point x="214.7857142857143" y="208.83333333333331" type="curve" smooth="yes"/>
      <point x="286.26190476190476" y="208.83333333333331"/>
      <point x="325.547619047619" y="253.11904761904762"/>
      <point x="325.547619047619" y="319.5" type="curve" smooth="yes"/>
      <point x="325.547619047619" y="378.8809523809524"/>
      <point x="290.35714285714283" y="425.7142857142857"/>
      <point x="231.8809523809524" y="425.7142857142857" type="curve" smooth="yes"/>
      <point x="183.59523809523813" y="425.7142857142857"/>
      <point x="150.40476190476193" y="389.5238095238095"/>
      <point x="150.40476190476193" y="336.23809523809524" type="curve" smooth="yes"/>
      <point x="150.40476190476193" y="313.5"/>
      <point x="155.95238095238096" y="294.5"/>
      <point x="166.59523809523807" y="283.40476190476187" type="curve"/>
      <point x="205.69047619047618" y="323.23809523809524" type="line"/>
      <point x="195.14285714285717" y="318.69047619047615"/>
      <point x="181.5" y="315.1428571428571"/>
      <point x="169.95238095238096" y="315.1428571428571" type="curve" smooth="yes"/>
      <point x="143.5" y="315.1428571428571"/>
      <point x="120.04761904761905" y="342.95238095238096"/>
      <point x="120.04761904761905" y="396.95238095238096" type="curve" smooth="yes"/>
      <point x="120.04761904761905" y="457.40476190476187"/>
      <point x="154.5952380952381" y="501.5"/>
      <point x="222.97619047619048" y="501.5" type="curve" smooth="yes"/>
      <point x="303.45238095238096" y="501.5"/>
      <point x="353.9047619047619" y="442.66666666666663"/>
      <point x="402.45238095238096" y="278.6666666666667" type="curve"/>
      <point x="391.3571428571429" y="359.23809523809524" type="line"/>
      <point x="391.3571428571429" y="-0.09523809523809534" type="line"/>
    </contour>
  </outline>
</glyph>
<glyph name="ta-beng" format="2">
  <advance width="552.4761904761905"/>
  <unicode hex="09A4"/>
  <anchor x="428.0238095238096" y="-4.142857142857146" name="bottom"/>
  <anchor x="512.1428571428572" y="0.0" name="bottom.rakaar"/>
  <anchor x="436.57142857142856" y="-4.976190476190482" name="bottom.rvocalic"/>
  <anchor x="352.0714285714286" y="4.071428571428569" name="bottom.virama"/>
  <anchor x="335.80952380952385" y="587.9285714285714" name="top"/>
  <anchor x="336.2619047619047" y="571.547619047619" name="topright"/>
  <anchor x="276.23809523809524" y="0.0" name="vedic"/>
  <outline>
    <contour>
      <point x="330.9761904761905" y="-1.4285714285714306" type="curve" smooth="yes"/>
      <point x="439.90476190476187" y="-1.4285714285714306"/>
      <point x="540.6666666666667" y="67.47619047619047"/>
      <point x="540.6666666666667" y="241.23809523809527" type="curve" smooth="yes"/>
      <point x="540.6666666666667" y="393.9761904761905"/>
      <point x="455.64285714285717" y="503.3571428571429"/>
      <point x="315.7857142857143" y="503.3571428571429" type="curve" smooth="yes"/>
      <point x="223.66666666666663" y="503.3571428571429"/>
      <point x="172.92857142857142" y="445.52380952380946"/>
      <point x="172.92857142857142" y="364.7857142857143" type="curve" smooth="yes"/>
      <point x="172.92857142857142" y="292.30952380952385"/>
      <point x="216.76190476190473" y="235.47619047619042"/>
      <point x="293.7857142857143" y="235.47619047619042" type="curve" smooth="yes"/>
      <point x="364.3571428571429" y="235.47619047619042"/>
      <point x="399.0" y="285.76190476190476"/>
      <point x="399.0" y="345.5952380952381" type="curve" smooth="yes"/>
      <point x="399.0" y="388.7857142857143"/>
      <point x="374.2619047619048" y="423.88095238095235"/>
      <point x="359.1666666666667" y="440.42857142857144" type="curve"/>
      <point x="319.88095238095235" y="355.3809523809524" type="line"/>
      <point x="330.4285714285714" y="362.4761904761904"/>
      <point x="352.61904761904765" y="372.66666666666663"/>
      <point x="376.3571428571429" y="372.66666666666663" type="curve" smooth="yes"/>
      <point x="426.45238095238096" y="372.66666666666663"/>
      <point x="457.35714285714283" y="340.85714285714283"/>
      <point x="457.35714285714283" y="271.9761904761905" type="curve" smooth="yes"/>
      <point x="457.35714285714283" y="190.64285714285714"/>
      <point x="407.90476190476187" y="138.9047619047619"/>
      <point x="324.9761904761905" y="138.9047619047619" type="curve" smooth="yes"/>
      <point x="201.5" y="138.9047619047619"/>
      <point x="123.11904761904763" y="222.26190476190476"/>
      <point x="67.47619047619048" y="487.16666666666663" type="curve"/>
      <point x="6.452380952380952" y="472.5238095238095" type="line"/>
      <point x="62.095238095238095" y="135.5"/>
      <point x="152.28571428571428" y="-1.4285714285714306"/>
    </contour>
    <contour>
      <point x="8.642857142857142" y="542.3333333333334" type="line"/>
      <point x="585.6666666666667" y="542.3333333333334" type="line"/>
      <point x="542.2857142857144" y="622.0" type="line"/>
      <point x="-33.19047619047619" y="622.0" type="line"/>
    </contour>
  </outline>
</glyph>
<glyph name="tha-beng" format="2">
  <advance width="505.54761904761904"/>
  <unicode hex="09A5"/>
  <anchor x="451.4761904761905" y="35.642857142857146" name="bottom"/>
  <anchor x="455.4761904761905" y="94.11904761904762" name="bottom.rakaar"/>
  <anchor x="455.4761904761905" y="7.904761904761903" name="bottom.rvocalic"/>
  <anchor x="435.83333333333337" y="17.285714285714285" name="bottom.virama"/>
  <anchor x="409.6190476190476" y="577.9285714285714" name="top"/>
  <anchor x="399.7142857142858" y="568.3809523809524" name="topright"/>
  <anchor x="252.5" y="0.0" name="vedic"/>
  <outline>
    <contour>
      <point x="445.83333333333337" y="-28.380952380952383" type="line"/>
      <point x="455.4761904761905" y="-25.833333333333336" type="line"/>
      <point x="455.4761904761905" y="542.3333333333334" type="line"/>
      <point x="538.7380952380953" y="542.3333333333334" type="line"/>
      <point x="496.3571428571429" y="622.0" type="line"/>
      <point x="444.73809523809524" y="622.0" type="line"/>
      <point x="435.64285714285717" y="681.9285714285714" type="line"/>
      <point x="363.8809523809524" y="719.0238095238096" type="line"/>
      <point x="356.23809523809524" y="715.4761904761905" type="line"/>
      <point x="356.23809523809524" y="103.02380952380952" type="line"/>
      <point x="374.9761904761905" y="103.92857142857142" type="line"/>
      <point x="340.9761904761905" y="198.09523809523807"/>
      <point x="266.8809523809524" y="254.26190476190476"/>
      <point x="200.97619047619048" y="281.1666666666667" type="curve"/>
      <point x="207.07142857142856" y="253.88095238095238" type="line"/>
      <point x="289.26190476190476" y="277.9761904761905"/>
      <point x="328.16666666666663" y="341.8095238095238"/>
      <point x="328.16666666666663" y="434.6190476190476" type="curve" smooth="yes"/>
      <point x="328.16666666666663" y="558.2619047619048"/>
      <point x="250.14285714285714" y="628.0952380952381"/>
      <point x="150.1190476190476" y="628.0952380952381" type="curve" smooth="yes"/>
      <point x="67.45238095238096" y="628.0952380952381"/>
      <point x="3.619047619047617" y="567.3571428571429"/>
      <point x="3.619047619047617" y="492.61904761904765" type="curve" smooth="yes"/>
      <point x="3.619047619047617" y="426.2380952380953"/>
      <point x="46.452380952380956" y="394.1428571428571"/>
      <point x="90.64285714285714" y="394.1428571428571" type="curve" smooth="yes"/>
      <point x="140.47619047619048" y="394.1428571428571"/>
      <point x="171.2142857142857" y="424.7857142857143"/>
      <point x="171.2142857142857" y="470.52380952380946" type="curve" smooth="yes"/>
      <point x="171.2142857142857" y="506.7142857142858"/>
      <point x="159.21428571428572" y="525.1666666666667"/>
      <point x="136.66666666666669" y="534.2619047619048" type="curve"/>
      <point x="139.66666666666669" y="496.2380952380952" type="line"/>
      <point x="147.7619047619048" y="517.2380952380952"/>
      <point x="163.76190476190476" y="533.7857142857142"/>
      <point x="188.40476190476193" y="533.7857142857142" type="curve" smooth="yes"/>
      <point x="219.8571428571429" y="533.7857142857142"/>
      <point x="237.66666666666669" y="505.5238095238095"/>
      <point x="237.66666666666669" y="464.0" type="curve" smooth="yes"/>
      <point x="237.66666666666669" y="384.2857142857143"/>
      <point x="168.3095238095238" y="350.6428571428572"/>
      <point x="47.90476190476191" y="349.7380952380953" type="curve"/>
      <point x="99.38095238095237" y="196.04761904761907" type="line"/>
      <point x="217.3095238095238" y="178.04761904761907"/>
      <point x="313.7857142857142" y="116.88095238095241"/>
      <point x="377.61904761904765" y="14.26190476190476" type="curve"/>
    </contour>
  </outline>
</glyph>
<glyph name="da-beng" format="2">
  <advance width="476.45238095238096"/>
  <unicode hex="09A6"/>
  <anchor x="409.0" y="55.23809523809524" name="bottom"/>
  <anchor x="420.0" y="53.61904761904761" name="bottom.rakaar"/>
  <anchor x="421.0952380952381" y="-46.52380952380953" name="bottom.rvocalic"/>
  <anchor x="406.99999999999994" y="-36.404761904761905" name="bottom.virama"/>
  <anchor x="114.83333333333333" y="587.9285714285714" name="top"/>
  <anchor x="115.28571428571426" y="571.547619047619" name="topright"/>
  <anchor x="237.95238095238096" y="0.0" name="vedic"/>
  <outline>
    <contour>
      <point x="367.7142857142858" y="-78.26190476190477" type="curve"/>
      <point x="421.0952380952381" y="-57.52380952380953" type="line"/>
      <point x="399.4523809523809" y="19.404761904761898"/>
      <point x="393.5476190476191" y="65.57142857142856"/>
      <point x="393.5476190476191" y="129.11904761904762" type="curve" smooth="yes"/>
      <point x="393.5476190476191" y="222.95238095238096"/>
      <point x="418.7380952380952" y="314.7857142857143"/>
      <point x="456.8333333333333" y="389.7857142857143" type="curve"/>
      <point x="337.23809523809524" y="491.547619047619" type="line"/>
      <point x="260.14285714285717" y="439.2857142857143"/>
      <point x="177.4047619047619" y="362.3809523809524"/>
      <point x="125.30952380952382" y="292.92857142857144" type="curve"/>
      <point x="146.85714285714286" y="248.71428571428572" type="line"/>
      <point x="146.85714285714286" y="542.3333333333334" type="line"/>
      <point x="509.6428571428572" y="542.3333333333334" type="line"/>
      <point x="467.8095238095237" y="622.0" type="line"/>
      <point x="-33.19047619047619" y="622.0" type="line"/>
      <point x="9.642857142857142" y="542.3333333333334" type="line"/>
      <point x="47.16666666666668" y="542.3333333333334" type="line"/>
      <point x="47.16666666666668" y="196.16666666666669" type="line"/>
      <point x="146.40476190476193" y="119.47619047619047" type="line"/>
      <point x="220.14285714285714" y="213.02380952380952"/>
      <point x="297.9761904761904" y="297.76190476190476"/>
      <point x="379.3571428571429" y="361.8571428571429" type="curve"/>
      <point x="345.8809523809524" y="391.88095238095235" type="line"/>
      <point x="317.6904761904762" y="321.69047619047615"/>
      <point x="305.69047619047615" y="258.2380952380952"/>
      <point x="305.69047619047615" y="175.95238095238093" type="curve" smooth="yes"/>
      <point x="305.69047619047615" y="72.28571428571428"/>
      <point x="335.5238095238096" y="-10.35714285714287"/>
    </contour>
  </outline>
</glyph>
<glyph name="dha-beng" format="2">
  <advance width="475.904761904762"/>
  <unicode hex="09A7"/>
  <anchor x="421.3809523809524" y="35.642857142857146" name="bottom"/>
  <anchor x="424.47619047619054" y="94.11904761904762" name="bottom.rakaar"/>
  <anchor x="425.38095238095235" y="7.0" name="bottom.rvocalic"/>
  <anchor x="406.64285714285717" y="17.285714285714285" name="bottom.virama"/>
  <anchor x="390.26190476190476" y="587.9285714285714" name="top"/>
  <anchor x="391.2619047619047" y="571.547619047619" name="topright"/>
  <anchor x="237.95238095238096" y="0.0" name="vedic"/>
  <outline>
    <contour>
      <point x="415.2857142857143" y="-28.380952380952383" type="line"/>
      <point x="425.38095238095235" y="-25.833333333333336" type="line"/>
      <point x="425.38095238095235" y="542.3333333333334" type="line"/>
      <point x="508.64285714285717" y="542.3333333333334" type="line"/>
      <point x="465.8095238095238" y="622.0" type="line"/>
      <point x="325.6904761904762" y="622.0" type="line"/>
      <point x="325.6904761904762" y="436.92857142857144" type="line"/>
      <point x="336.7857142857142" y="491.7857142857143" type="line"/>
      <point x="225.4047619047619" y="450.97619047619054"/>
      <point x="97.35714285714286" y="394.42857142857144"/>
      <point x="13.999999999999998" y="336.3571428571429" type="curve"/>
      <point x="85.92857142857142" y="176.57142857142856" type="line"/>
      <point x="188.92857142857142" y="155.85714285714283"/>
      <point x="284.5952380952381" y="115.5238095238095"/>
      <point x="347.5238095238095" y="12.904761904761903" type="curve"/>
    </contour>
    <contour>
      <point x="325.6904761904762" y="102.11904761904762" type="line"/>
      <point x="345.33333333333337" y="101.66666666666667" type="line"/>
      <point x="311.3333333333333" y="201.0"/>
      <point x="238.7142857142857" y="248.23809523809524"/>
      <point x="169.64285714285714" y="274.6904761904762" type="curve"/>
      <point x="172.54761904761907" y="256.5952380952381" type="line"/>
      <point x="220.26190476190476" y="290.4761904761905"/>
      <point x="292.16666666666663" y="323.73809523809524"/>
      <point x="344.42857142857144" y="343.90476190476187" type="curve"/>
      <point x="325.6904761904762" y="390.4761904761904" type="line"/>
    </contour>
    <contour>
      <point x="191.95238095238096" y="394.1666666666667" type="curve"/>
      <point x="227.88095238095238" y="430.26190476190476" type="line"/>
      <point x="173.14285714285717" y="434.8095238095238"/>
      <point x="142.04761904761904" y="471.4523809523809"/>
      <point x="142.04761904761904" y="504.4523809523809" type="curve" smooth="yes"/>
      <point x="142.04761904761904" y="536.904761904762"/>
      <point x="156.95238095238096" y="553.3571428571428"/>
      <point x="184.5952380952381" y="553.3571428571428" type="curve" smooth="yes"/>
      <point x="190.5952380952381" y="553.3571428571428"/>
      <point x="198.14285714285717" y="552.3571428571428"/>
      <point x="206.6904761904762" y="549.3571428571428" type="curve"/>
      <point x="165.85714285714286" y="590.0" type="line"/>
      <point x="158.85714285714286" y="576.452380952381"/>
      <point x="156.85714285714286" y="561.452380952381"/>
      <point x="156.85714285714286" y="542.2619047619048" type="curve" smooth="yes"/>
      <point x="156.85714285714286" y="501.6190476190476"/>
      <point x="186.04761904761907" y="478.5238095238095"/>
      <point x="218.23809523809524" y="478.5238095238095" type="curve" smooth="yes"/>
      <point x="254.42857142857142" y="478.5238095238095"/>
      <point x="283.61904761904765" y="507.1666666666667"/>
      <point x="283.61904761904765" y="550.3571428571428" type="curve" smooth="yes"/>
      <point x="283.61904761904765" y="600.547619047619"/>
      <point x="249.88095238095238" y="643.8333333333334"/>
      <point x="179.4047619047619" y="643.8333333333334" type="curve" smooth="yes"/>
      <point x="102.38095238095238" y="643.8333333333334"/>
      <point x="54.738095238095234" y="594.1904761904763"/>
      <point x="54.738095238095234" y="521.452380952381" type="curve" smooth="yes"/>
      <point x="54.738095238095234" y="423.8809523809524"/>
      <point x="142.4047619047619" y="394.1666666666667"/>
    </contour>
  </outline>
</glyph>
<glyph name="na-beng" format="2">
  <advance width="502.57142857142856"/>
  <unicode hex="09A8"/>
  <anchor x="426.1190476190476" y="83.83333333333336" name="bottom"/>
  <anchor x="443.3095238095238" y="94.11904761904762" name="bottom.rakaar"/>
  <anchor x="438.2142857142857" y="2.8095238095238084" name="bottom.rvocalic"/>
  <anchor x="418.0238095238095" y="17.285714285714285" name="bottom.virama"/>
  <anchor x="404.6428571428571" y="587.9285714285714" name="top"/>
  <anchor x="406.6428571428571" y="571.547619047619" name="topright"/>
  <anchor x="250.78571428571428" y="0.0" name="vedic"/>
  <outline>
    <contour>
      <point x="428.57142857142856" y="-31.476190476190478" type="line"/>
      <point x="438.2142857142857" y="-28.92857142857143" type="line"/>
      <point x="438.2142857142857" y="542.3333333333334" type="line"/>
      <point x="535.3095238095237" y="542.3333333333334" type="line"/>
      <point x="493.4761904761905" y="622.0" type="line"/>
      <point x="-33.19047619047619" y="622.0" type="line"/>
      <point x="8.642857142857142" y="542.3333333333334" type="line"/>
      <point x="338.9761904761905" y="542.3333333333334" type="line"/>
      <point x="338.9761904761905" y="372.69047619047615" type="line" smooth="yes"/>
      <point x="338.9761904761905" y="318.7857142857143"/>
      <point x="343.9761904761904" y="256.5"/>
      <point x="350.52380952380946" y="202.02380952380952" type="curve"/>
      <point x="359.6190476190476" y="202.8571428571429" type="line"/>
      <point x="337.4285714285714" y="320.8333333333333"/>
      <point x="271.3333333333333" y="447.66666666666674"/>
      <point x="146.76190476190476" y="447.66666666666674" type="curve" smooth="yes"/>
      <point x="74.38095238095238" y="447.66666666666674"/>
      <point x="17.999999999999996" y="396.92857142857144"/>
      <point x="17.999999999999996" y="310.45238095238096" type="curve" smooth="yes"/>
      <point x="17.999999999999996" y="232.42857142857142"/>
      <point x="66.47619047619047" y="175.14285714285714"/>
      <point x="138.95238095238096" y="175.14285714285714" type="curve" smooth="yes"/>
      <point x="210.52380952380952" y="175.14285714285714"/>
      <point x="246.26190476190476" y="229.61904761904762"/>
      <point x="246.26190476190476" y="285.80952380952385" type="curve" smooth="yes"/>
      <point x="246.26190476190476" y="312.45238095238096"/>
      <point x="236.16666666666666" y="338.452380952381"/>
      <point x="212.9761904761905" y="355.54761904761904" type="curve"/>
      <point x="180.69047619047618" y="265.11904761904765" type="line"/>
      <point x="190.23809523809524" y="274.2142857142858"/>
      <point x="207.88095238095235" y="281.30952380952385"/>
      <point x="228.61904761904762" y="281.30952380952385" type="curve" smooth="yes"/>
      <point x="301.6190476190476" y="281.30952380952385"/>
      <point x="343.5238095238095" y="117.59523809523809"/>
      <point x="360.8095238095238" y="18.452380952380953" type="curve"/>
    </contour>
  </outline>
</glyph>
<glyph name="pa-beng" format="2">
  <advance width="577.1904761904763"/>
  <unicode hex="09AA"/>
  <anchor x="514.5714285714286" y="75.92857142857143" name="bottom"/>
  <anchor x="527.1190476190476" y="-19.92857142857143" name="bottom.rakaar"/>
  <anchor x="527.1190476190476" y="-3.0" name="bottom.rvocalic"/>
  <anchor x="481.4523809523809" y="9.095238095238095" name="bottom.virama"/>
  <anchor x="484.35714285714283" y="577.9285714285714" name="top"/>
  <anchor x="474.4523809523809" y="568.3809523809524" name="topright"/>
  <anchor x="288.59523809523813" y="0.0" name="vedic"/>
  <outline>
    <contour>
      <point x="517.4761904761906" y="-39.38095238095238" type="line"/>
      <point x="527.1190476190476" y="-36.833333333333336" type="line"/>
      <point x="527.1190476190476" y="542.3333333333334" type="line"/>
      <point x="610.3809523809525" y="542.3333333333334" type="line"/>
      <point x="567.5476190476189" y="622.0" type="line"/>
      <point x="515.9285714285716" y="622.0" type="line"/>
      <point x="506.83333333333337" y="681.9285714285714" type="line"/>
      <point x="438.61904761904754" y="719.0238095238096" type="line"/>
      <point x="430.97619047619054" y="715.4761904761905" type="line"/>
      <point x="430.97619047619054" y="489.49999999999983" type="line" smooth="yes"/>
      <point x="430.97619047619054" y="443.2380952380953"/>
      <point x="434.52380952380946" y="404.23809523809524"/>
      <point x="437.9761904761904" y="373.8095238095238" type="curve"/>
      <point x="445.52380952380946" y="392.0952380952381" type="line"/>
      <point x="393.14285714285717" y="549.5"/>
      <point x="316.7619047619048" y="630.6428571428571"/>
      <point x="220.4047619047619" y="630.6428571428571" type="curve" smooth="yes"/>
      <point x="114.47619047619048" y="630.6428571428571"/>
      <point x="33.0" y="536.2857142857142"/>
      <point x="1.9047619047619033" y="402.8809523809524" type="curve"/>
      <point x="101.85714285714286" y="320.66666666666663" type="line"/>
      <point x="113.30952380952381" y="338.2142857142857"/>
      <point x="130.7619047619048" y="347.7619047619048"/>
      <point x="148.76190476190476" y="347.7619047619048" type="curve" smooth="yes"/>
      <point x="169.57142857142858" y="347.7619047619048"/>
      <point x="182.47619047619048" y="332.85714285714283"/>
      <point x="182.47619047619048" y="308.5" type="curve" smooth="yes"/>
      <point x="182.47619047619048" y="280.9523809523809"/>
      <point x="166.3809523809524" y="253.49999999999997"/>
      <point x="141.83333333333334" y="227.85714285714283" type="curve"/>
      <point x="238.78571428571428" y="146.54761904761904" type="line"/>
      <point x="413.2619047619047" y="393.85714285714283" type="line"/>
      <point x="335.76190476190476" y="489.42857142857144" type="line"/>
      <point x="211.95238095238093" y="300.42857142857144" type="line"/>
      <point x="221.8571428571429" y="290.1666666666667" type="line"/>
      <point x="232.95238095238093" y="310.1666666666667"/>
      <point x="240.5" y="332.71428571428567"/>
      <point x="240.5" y="360.9047619047619" type="curve" smooth="yes"/>
      <point x="240.5" y="399.26190476190476"/>
      <point x="215.95238095238096" y="428.9761904761905"/>
      <point x="178.23809523809527" y="428.9761904761905" type="curve" smooth="yes"/>
      <point x="157.78571428571428" y="428.9761904761905"/>
      <point x="135.23809523809524" y="421.4285714285714"/>
      <point x="121.23809523809524" y="403.7857142857143" type="curve"/>
      <point x="144.78571428571428" y="381.047619047619" type="line"/>
      <point x="150.33333333333334" y="451.14285714285717"/>
      <point x="193.14285714285714" y="520.5000000000001"/>
      <point x="251.78571428571433" y="520.5000000000001" type="curve" smooth="yes"/>
      <point x="323.952380952381" y="520.5000000000001"/>
      <point x="391.0476190476191" y="412.26190476190476"/>
      <point x="434.97619047619054" y="256.047619047619" type="curve"/>
      <point x="427.4285714285715" y="338.33333333333337" type="line"/>
      <point x="427.4285714285715" y="-0.09523809523809534" type="line"/>
    </contour>
  </outline>
</glyph>
